<svg width="154" height="230" viewBox="0 0 154 230" fill="none" xmlns="http://www.w3.org/2000/svg">
<path d="M37.9 141.4L43.7 139L50.4 167.6L48.3 166.3L47 165.5L44.1 163.7L42.1 156.3L42 156L41.7 155.2L37.9 141.4Z" fill="#CBD5DC"/>
<path d="M55.2 170.6L59.5 163.5L61.6 174.5L60.3 173.7L57.5 172L55.2 170.6Z" fill="#474A52"/>
<path d="M43.7 139L59.5 163.5L55.2 170.6L50.4 167.6L43.7 139Z" fill="#E1E6E5"/>
<path d="M59.2 107.8L43.7 139L32.3 121.1L30.7 115.3L30.5 114.7L30.7 113.9L59.2 107.8Z" fill="#F3F6F1"/>
<path d="M32.1 108.9L33.9 102.3L59.1999 107.8L30.7 113.9L31.6999 110.3L32.1 108.9Z" fill="#E7F0F4"/>
<path d="M67.2 132.3L59.5 163.5L43.7 139L67.2 132.3Z" fill="#444950"/>
<path d="M59.2 107.8L67.2 132.3L43.7 139L59.2 107.8Z" fill="#ABB9CA"/>
<path d="M39.1 83.8L43.7 76.6L59.2 107.8L33.9 102.3L34.2 101.4L35.3 97.5L37.4 89.8L38.6 85.6L39.1 83.8Z" fill="#A3B1BC"/>
<path d="M41.9 73.7L43.7 76.5999L39.1 83.7999L41.9 73.7Z" fill="#4A4D53"/>
<path d="M59.2 107.8L82.7 101.1L67.2 132.3L59.2 107.8Z" fill="#808890"/>
<path d="M59.2 107.8L43.7 76.6L82.7 101.1L59.2 107.8Z" fill="#475875"/>
<path d="M42 73.2L42.5 71.6L43.7 76.6L41.9 73.7L42 73.2Z" fill="#E1EBF0"/>
<path d="M43.7 76.6L74.9 69.9L82.7 101.1L43.7 76.6Z" fill="#F6FBFB"/>
<path d="M49.9 62.2L56.3 58.2L74.9 69.9L43.7 76.5999L42.5 71.5999V71.4L44.1 65.7L49.1 62.6L49.3 62.5L49.9 62.2Z" fill="#A3B1BC"/>
<path d="M76.6 45.7L77 45.4L79.4001 46.9L74.9001 69.9L56.3 58.2L64.8 52.9L65 52.8L76.6 45.7Z" fill="#475875"/>
<path d="M106.1 161.2L104.7 166.9L95.9 172.4L106.1 161.2Z" fill="#E1EBF0"/>
<path d="M106.1 161.2L95.9 172.4L77 184L76.3 183.6L75.2 182.9L74.7 182.6L68.8 179L66.1 177.3L61.6 174.5L59.5 163.5L106.1 161.2Z" fill="#7A8694"/>
<path d="M106.1 161.2L108.5 164.6L104.7 166.9L106.1 161.2Z" fill="#C2CBD4"/>
<path d="M67.2 132.3L82.9 139L106.1 161.2L59.5 163.5L67.2 132.3Z" fill="#D1DADF"/>
<path d="M114.1 145.6L114.6 147L109.9 163.7L108.5 164.6L106.1 161.2L114.1 145.6Z" fill="#98A4B1"/>
<path d="M106.1 161.2L82.9 139L114.1 145.6L106.1 161.2Z" fill="#E7F0F4"/>
<path d="M67.2 132.3L98.4 116.7L82.9 139L67.2 132.3Z" fill="#98A4B1"/>
<path d="M82.7 101.1L98.4 116.7L67.2 132.3L82.7 101.1Z" fill="#E1EBF0"/>
<path d="M82.9 139L118.2 133.9L115.2 144.7L114.1 145.6L82.9 139Z" fill="#7A8694"/>
<path d="M98.4 116.7L120 127.5L118.2 133.9L82.9 139L98.4 116.7Z" fill="#B6C1CE"/>
<path d="M82.7 101.1L90.7 85.5L98.4 116.7L82.7 101.1Z" fill="#E5EDF0"/>
<path d="M82.7 101.1L74.9 69.9L90.7 85.5L82.7 101.1Z" fill="#808890"/>
<path d="M98.4 116.7L118.2 95.5L123.5 114.7L120 127.5L98.4 116.7Z" fill="#808890"/>
<path d="M90.7 85.5L115 84.1L118.2 95.5L98.4 116.7L90.7 85.5Z" fill="#9DABB9"/>
<path d="M74.9 69.9L93.3 55.5L100.5 59.9L90.7 85.5L74.9 69.9Z" fill="#304350"/>
<path d="M74.9 69.9L79.4 46.9L93.3 55.5L74.9 69.9Z" fill="#B6C1CE"/>
<path d="M90.7 85.5L112.9 76.6L115 84.1L90.7 85.5Z" fill="#304350"/>
<path d="M90.7 85.5L100.5 59.9L108.4 64.8L109.9 65.7L112.9 76.6L90.7 85.5Z" fill="#ABB9CA"/>
<path d="M114.1 145.6L114.8 146.1L114.6 147L114.1 145.6Z" fill="#7A8694"/>
<path d="M114.1 145.6L115 145.3L114.8 146.1L114.1 145.6Z" fill="#CBD5DC"/>
<path d="M114.1 145.6L115.2 144.7L115 145.3L114.1 145.6Z" fill="#E3D6C0"/>
<path d="M3.9 87.4L3.5 88.5L3.6 87.4H3.9Z" fill="#444950"/>
<path d="M3.89998 87.4H3.59998L5.79998 70.9L3.89998 87.4Z" fill="#ABB9CA"/>
<path d="M3.90002 87.4L5.80002 70.9V70.8L6.30002 71.1L6.90002 71.5L7.10002 70L14.3 70.9L11.8 74.5L10.8 73.9L3.90002 87.4Z" fill="#808890"/>
<path d="M0.2 114.4L0 114.7V114.4H0.2Z" fill="#7A8694"/>
<path d="M0.2 114.4H0L3.5 88.5L3.9 87.4L7.8 96L8.4 100.8L8 101.3L1.1 112.9L0.8 113.4L0.6 113.7L0.2 114.4Z" fill="#D1DADF"/>
<path d="M9.70005 98.5L8.40005 100.8L7.80005 96L9.70005 98.5Z" fill="#E7F0F4"/>
<path d="M17.7 80.3L7.80002 96L3.90002 87.4L17.7 80.3Z" fill="#98A4B1"/>
<path d="M17.7 80.3L3.90002 87.4L10.8 73.9L11.8 74.5L14.3 70.9L15.1 76.5L16.6 77.5L17.4 78L17.7 80.3Z" fill="#E1EBF0"/>
<path d="M9.70005 98.5L7.80005 96L10.9 96.6L9.70005 98.5Z" fill="#75746B"/>
<path d="M10.9 96.6L7.80005 96L17.7 80.3L18.9 83.3L15.7 88.6L12.6 93.7001L10.9 96.6Z" fill="#B6C1CE"/>
<path d="M18 78.3L17.7 80.3L17.4 78L18 78.3Z" fill="#E5EDF0"/>
<path d="M20.8 80.1L18.9 83.3L17.7 80.3L18.9 78.8L19.2 79L20.9 77.6L20.8 80.1Z" fill="#75746B"/>
<path d="M18.9 78.8L17.7 80.3L18 78.3L18.9 78.8Z" fill="#9DABB9"/>
<path d="M6.30005 71.1L5.80005 70.8L6.30005 69.8L7.10005 70L6.30005 71.1Z" fill="#F3F6F1"/>
<path d="M7.10005 69.9999L6.30005 69.7999L6.60005 69.2L7.10005 69.9999Z" fill="#E7F0F4"/>
<path d="M6.30005 71.1L7.10005 70L6.90005 71.5L6.30005 71.1Z" fill="#EFF7F9"/>
<path d="M7.09998 69.9999L6.59998 69.2L7.29998 67.7L7.09998 69.9999Z" fill="#A3B1BC"/>
<path d="M7.09998 70L7.29998 67.7001L10.8 59.8L14.3 70.9L7.09998 70Z" fill="#475875"/>
<path d="M14.3 70.9L10.8 59.8L13.9 52.9L17.4 53.8L14.3 70.9Z" fill="white"/>
<path d="M17.4 53.8L13.9 52.9L15.8 48.7L17.4 53.8Z" fill="#A3B1BC"/>
<path d="M17.4 53.8L15.8 48.7L22 34.8H22.5L22.2 43.1L17.4 53.8Z" fill="white"/>
<path d="M22.5 34.8H22L22.5 33.6V34.8Z" fill="#EFF7F9"/>
<path d="M15.1 76.5L14.3 70.9L18.9 64.6L16.6 77.5L15.1 76.5Z" fill="#E5EDF0"/>
<path d="M18.9 64.6L14.3 70.9L17.4 53.8L18.9 64.6Z" fill="#EFF7F9"/>
<path d="M18 78.3L17.4 78L16.6 77.5L18.9 64.6L21.4 66L21.3 68.2L21.1 72.4L24 65.6L31.4 73.5L29.8 74.5L22.7 78.9L20.8 80.1L20.9 77.6L19.2 79L18.9 78.8L18 78.3Z" fill="#F0F7FB"/>
<path d="M18.9 64.6L17.4 53.8L21.9 51.3L22 49.3L25.7 51.5L21.5 61.2L21.6 60.2L18.9 64.6Z" fill="white"/>
<path d="M21.9 51.3L17.4 53.8L22.2 43.1L22 49.3L21.9 51.3Z" fill="#B6C1CE"/>
<path d="M21.4 66L18.9 64.6L21.4 64.4V66Z" fill="#304350"/>
<path d="M42.2 21.3L32.1 24L36.6 19.5L42.2 21.3Z" fill="#E1EBF0"/>
<path d="M42.2 21.3L36.6 19.5L40.6 15.6L42.2 21.3Z" fill="#7A8694"/>
<path d="M25.3 33.3001L22.5 33.6L26.4 29.8L26.9 33.2L25.3 33.3001Z" fill="#C6CED0"/>
<path d="M26.9 33.2L26.4 29.8L32.1 24L42.2 21.3L34.6 32.6L26.9 33.2Z" fill="#C2CBD4"/>
<path d="M42.2 21.3L40.6 15.6L47.5 8.69995L47.8 9.69995L42.2 21.3Z" fill="#EFF7F9"/>
<path d="M38.8 32.2L34.6 32.6L42.2 21.3L51 21.2L38.8 32.2Z" fill="#EFF7F9"/>
<path d="M51 21.2L42.2 21.3L47.8 9.69995L49.4 15.4L51 21V21.2Z" fill="white"/>
<path d="M38.8 32.2L51 21.2L47.7 31.5L41.6 32L40 32.1L38.8 32.2Z" fill="#7A8694"/>
<path d="M53 28.5L53.8 31L50.1 31.3L48.2 31.5H47.7L51 21.2L53 28.5Z" fill="white"/>
<path d="M62.5 10.2L53.8 6.80005L60.7 4.80005L62.5 10.2Z" fill="#808890"/>
<path d="M62.5 10.2L60.7 4.80002L65.5 3.40002L62.5 10.2Z" fill="#475875"/>
<path d="M62.5 10.2L65.5 3.4L75.2 0.5L75.6 1.8L72.8 5.6L62.5 10.2Z" fill="white"/>
<path d="M75.6 1.8L75.2 0.5L77 0L75.6 1.8Z" fill="#A3B1BC"/>
<path d="M47.8 9.7L47.5 8.7L49.9 8L56.1 19.4L49.4 15.4L47.8 9.7Z" fill="#98A4B1"/>
<path d="M56.1 19.4L49.9 8.00005L53.8 6.80005L62.5 10.2L56.1 19.4Z" fill="#E1EBF0"/>
<path d="M51 21L49.4 15.4L56.1 19.4L53 28.5L51 21.2V21Z" fill="#B6C1CE"/>
<path d="M62.5 10.2L67.7 12.4L65.7 15.1L56.1 19.4L62.5 10.2Z" fill="#E5EDF0"/>
<path d="M62.5 10.2L72.8 5.59998L67.7 12.4L62.5 10.2Z" fill="#EFF7F9"/>
<path d="M56.1 19.4L60 22.7L53.8 31L53 28.5L56.1 19.4Z" fill="#75746B"/>
<path d="M56.1 19.4L65.7 15.1L60 22.7L56.1 19.4Z" fill="#F0F7FB"/>
<path d="M0.5 115.6L0.3 115.3L0 114.7L0.2 114.4L0.6 113.7L1.3 113.5L0.5 115.6Z" fill="#F3F6F1"/>
<path d="M0.799976 113.4L1.29998 113.5L0.599976 113.7L0.799976 113.4Z" fill="#E7F0F4"/>
<path d="M1.3 113.5L2.5 118.8L1.3 116.8L0.5 115.6L1.3 113.5Z" fill="#ABB9CA"/>
<path d="M1.10005 112.9L1.30005 113.5L0.800049 113.4L1.10005 112.9Z" fill="#A3B1BC"/>
<path d="M8.10005 128.2L3.70005 121L2.50005 118.8L1.30005 113.5L15 107.8L8.10005 128.2Z" fill="#808890"/>
<path d="M15 107.8L1.29998 113.5L1.09998 112.9L7.99998 101.3L15 107.8Z" fill="#475875"/>
<path d="M15 107.8L8 101.3L8.4 100.8L9.7 98.4999L10.9 96.5999L12.6 93.7L15 107.8Z" fill="#F6FBFB"/>
<path d="M21.1 148.5L20.8 149.4L16.4 142L21.1 148.5Z" fill="#D1DADF"/>
<path d="M21.1 148.5L16.4 142L15.4 140.3L22.7 142.6L21.1 148.5Z" fill="#E7F0F4"/>
<path d="M24.2 121.1L15.3 140.1H15.2L10.1 131.6V131.5L24.2 121.1Z" fill="#98A4B1"/>
<path d="M24.2 121.1L10.1 131.5L8.29998 128.6L8.09998 128.2L15 107.8L24.2 121.1Z" fill="#E1EBF0"/>
<path d="M24.5 136.4L23.9 138.4L15.3 140.2V140.1L24.2 121.1L27.9 123.8L24.5 136.4Z" fill="#B6C1CE"/>
<path d="M24.2 121.1L15 107.8L19.7 94.4L24.2 121.1Z" fill="#E5EDF0"/>
<path d="M19.7 94.4L15 107.8L12.6 93.7L15.7 88.6L19.7 94.4Z" fill="#808890"/>
<path d="M28.2 122.9L27.9 123.8L24.2 121.1L29.8 112.4L30.5 114.7L28.4 122.3L28.3 122.6L28.2 122.9Z" fill="#75746B"/>
<path d="M29.8 112.4L24.2 121.1L19.7 94.4L24.7 94L28.4 107.3L29.3 110.5L29.8 112.3V112.4Z" fill="#9DABB9"/>
<path d="M19.7 94.4L15.7 88.6L18.9 83.3L20.8 80.1L22.2 84.9L19.7 94.4Z" fill="#304350"/>
<path d="M24.7 94L19.7 94.4L24.1 91.8L24.7 93.9V94Z" fill="#304350"/>
<path d="M24.1 91.8L19.7 94.4L22.2 84.9L22.3 85.2L22.4 85.6V85.7L22.6 86.2L24.1 91.8Z" fill="#ABB9CA"/>
<path d="M50.7 41.8L50.8 42H50.7V41.8Z" fill="#F3F6F1"/>
<path d="M50.7 41.8L50.9 41.4L50.8 42L50.7 41.8Z" fill="#E7F0F4"/>
<path d="M50.7 42H50.8L50.7 42.2V42Z" fill="#EFF7F9"/>
<path d="M53.4 32.4L53.8 31L59.2 34.4L50.8 42L50.9 41.4L51.2 40.1L53.4 32.4Z" fill="#A3B1BC"/>
<path d="M50.7 42.2L50.8 42L56.2 52.1L48.1 51.4L50.2 43.7L50.7 42.2Z" fill="#808890"/>
<path d="M56.2 52.1L50.8 42L59.2 34.4L62.5 36.4L56.2 52.1Z" fill="#475875"/>
<path d="M56.2 52.1L62.5 36.4L71.5 42L71.6 42.3L56.2 52.1Z" fill="white"/>
<path d="M71.6 42.3L71.5 42L71.7 42.1L71.6 42.3Z" fill="#A3B1BC"/>
<path d="M71.6 42.3L71.7 42.1L71.9 42.2L71.6 42.3Z" fill="white"/>
<path d="M45.2 61.7L45.9 59.2L46 58.8L49.3 62.5L49.1 62.6L45.2 61.7Z" fill="#98A4B1"/>
<path d="M49.3 62.5L46 58.8L48.1 51.4L56.2 52.1L49.9 62.2L49.3 62.5Z" fill="#E1EBF0"/>
<path d="M49.1 62.6L44.1 65.7L45.2 61.7L49.1 62.6Z" fill="#B6C1CE"/>
<path d="M49.9 62.2L56.2 52.1L64.8 52.9L56.3 58.2L49.9 62.2Z" fill="#E5EDF0"/>
<path d="M64.7999 52.9L56.2 52.1L71.6 42.3L65 52.8L64.7999 52.9Z" fill="#EFF7F9"/>
<path d="M65 52.8L71.6 42.3L76.6 45.7L65 52.8Z" fill="white"/>
<path d="M71.6 42.3L71.9 42.2L77 45.4L76.6 45.7L71.6 42.3Z" fill="#B6C1CE"/>
<path d="M22.3 85.2L22.2 84.9L20.8 80.1L22.7 78.9L22.3 85.2Z" fill="#EFF7F9"/>
<path d="M22.3 85.2L22.7 78.9L29.8 74.5L32.6 75.5L22.4 85.6L22.3 85.2Z" fill="#808890"/>
<path d="M32.6 75.5L29.8 74.5L31.4 73.5L31.6 73.4L32.6 75.5Z" fill="#475875"/>
<path d="M32.6 75.5L31.6 73.4L33 72.6L32.6 75.5Z" fill="white"/>
<path d="M31.6 109.4L29.8 112.3L29.3 110.5L31.6 109.4Z" fill="#E1EBF0"/>
<path d="M31.6 109.4L29.3 110.5L28.4 107.3L31.6 109.4Z" fill="#7A8694"/>
<path d="M30.7 113.9L30.5 114.7L29.8 112.4V112.3L31.6 109.4L31.7 110.3L30.7 113.9Z" fill="#C2CBD4"/>
<path d="M31.6 109.4L28.4 107.3L24.7 94V93.9L26.8 93L31.6 109.4Z" fill="#EFF7F9"/>
<path d="M26.8 92.9999L24.7 93.8999L24.1 91.7999L22.6 86.2L26.8 92.9999Z" fill="white"/>
<path d="M32.1 108.9L31.7 110.3L31.6 109.4L32.1 108.9Z" fill="#EFF7F9"/>
<path d="M26.8 93L34.2 101.4L33.9 102.3L32.1 108.9L31.6 109.4L26.8 93Z" fill="white"/>
<path d="M26.8 92.9999L22.6 86.2L22.4 85.7L35.7 86.8999L26.8 92.9999Z" fill="#98A4B1"/>
<path d="M35.7 86.9L22.4 85.7V85.6L32.6 75.5L35.7 86.9Z" fill="#E1EBF0"/>
<path d="M26.8 93L35.3 97.5L34.2 101.4L26.8 93Z" fill="#75746B"/>
<path d="M35.7 86.9L37.4 89.8L35.3 97.5L26.8 93L35.7 86.9Z" fill="#B6C1CE"/>
<path d="M35.7 86.9L32.6 75.5L37.9 70.4L35.7 86.9Z" fill="#E5EDF0"/>
<path d="M32.6 75.4999L33 72.5999L37.6 69.7L37.9 70.3999L32.6 75.4999Z" fill="#EFF7F9"/>
<path d="M35.7 86.9L38.6 85.6L37.4 89.8L35.7 86.9Z" fill="#75746B"/>
<path d="M35.7 86.9L37.9 70.4L42 73.2L41.9 73.7L39.1 83.8L38.6 85.6L35.7 86.9Z" fill="#F0F7FB"/>
<path d="M37.9 70.3999L37.6 69.7L38.2 69.3999L39.1 68.7999L39.3 68.7L37.9 70.3999Z" fill="white"/>
<path d="M37.9 70.4L42.5 71.4V71.6L42 73.2L37.9 70.4Z" fill="#304350"/>
<path d="M37.9 70.3999L39.3 68.7L44.1 65.7L42.5 71.3999L37.9 70.3999Z" fill="#EFF7F9"/>
<path d="M22.5 34.8V33.6L25.3 33.3L25.7 51.5L22 49.3L22.2 43.1L22.5 34.8Z" fill="#A3B1BC"/>
<path d="M40 32.1L25.7 51.5L25.3 33.3L26.9 33.2L34.6 32.6L38.8 32.2L40 32.1Z" fill="white"/>
<path d="M21.1 72.4L21.3 68.2L24 65.6L21.1 72.4Z" fill="#E5EDF0"/>
<path d="M21.5 61.2L25.7 51.5L24 65.6L21.3 68.2L21.4 66V64.4L18.9 64.6L21.6 60.2L21.5 61.2Z" fill="#EFF7F9"/>
<path d="M24 65.6L25.7 51.5L41.7 46.5L24 65.6Z" fill="white"/>
<path d="M41.6999 46.5L25.7 51.5L40 32.1L41.6 32L41.6999 46.5Z" fill="#B6C1CE"/>
<path d="M31.4 73.5L24 65.6L38.7 68.4L38.2 69.4L37.6 69.7L33 72.6L31.6 73.4L31.4 73.5Z" fill="#304350"/>
<path d="M38.7 68.4L24 65.6L41.7 46.5L38.7 68.4Z" fill="#EFF7F9"/>
<path d="M41.6 32L47.7 31.5H48.2L41.7 46.5L41.6 32Z" fill="#E1EBF0"/>
<path d="M41.7 46.5L49.1 39.7L38.7 68.4L41.7 46.5Z" fill="#C6CED0"/>
<path d="M41.7 46.5L48.2 31.5L50.1 31.3L49.1 39.7L41.7 46.5Z" fill="#D1DADF"/>
<path d="M50.1 31.3L53.8 31L53.4 32.4L49.1 39.7L50.1 31.3Z" fill="#B6C1CE"/>
<path d="M38.2 69.4L38.7 68.4L39.1 68.8L38.2 69.4Z" fill="#D1DADF"/>
<path d="M39.1 68.8L38.7 68.4L45.9 59.2L45.2 61.7L44.1 65.7L39.3 68.7L39.1 68.8Z" fill="#F0F7FB"/>
<path d="M38.7 68.4L49.1 39.7L50.2 43.7L48.1 51.4L46 58.8L45.9 59.2L38.7 68.4Z" fill="#9DABB9"/>
<path d="M50.2 43.7L49.1 39.7L51.2 40.1L50.9 41.4L50.7 41.8V42V42.2L50.2 43.7Z" fill="#525A66"/>
<path d="M51.2 40.1L49.1 39.7L53.4 32.4L51.2 40.1Z" fill="#EFF7F9"/>
<path d="M58.7 223.6L59.4 224.3L58.7 224V223.6Z" fill="#444950"/>
<path d="M58.7 223.6V224L47.6 220.8L58.7 223.6Z" fill="#ABB9CA"/>
<path d="M58.7 223.6L47.6 220.8L47.5 220.7L47.7 220L48 219.1L47 218.8L47.6 208.1L50 211.9L49.6 213.3L58.7 223.6Z" fill="#808890"/>
<path d="M76.8 229.2L77.0001 229.5L76.8 229.4V229.2Z" fill="#7A8694"/>
<path d="M76.7999 229.2V229.4L59.4 224.3L58.7 223.6L64.4 217.9L67.6 217L71.7999 222.5L76.7 229.1L76.7999 229.2Z" fill="#D1DADF"/>
<path d="M66.1 214.9L67.6 217L64.4 217.9L66.1 214.9Z" fill="#E7F0F4"/>
<path d="M53.9 203.1L64.4 217.9L58.7 223.6L53.9 203.1Z" fill="#98A4B1"/>
<path d="M53.9 203.1L58.7 223.6L49.6 213.3L50 211.9L47.6 208.1L51.4 206.9L52 204.7L52.3 203.5L53.9 203.1Z" fill="#E1EBF0"/>
<path d="M66.1 214.9L64.4 217.9L64.8 213.2L65 213.4L65.1 213.6L66.1 214.9Z" fill="#75746B"/>
<path d="M64.8 213.2L64.4001 217.9L53.9 203.1L56 201.3L53.8 198.4L54.8 197.7L56.8 196.5L57.6 196L59 195.2L64.5 212.7L64.8 213.2Z" fill="#B6C1CE"/>
<path d="M52.6 202.6L53.9 203.1L52.3 203.5L52.6 202.6Z" fill="#E5EDF0"/>
<path d="M52.9 201.4L53.9 203.1L52.6 202.6L52.9 201.4Z" fill="#9DABB9"/>
<path d="M47.7 220L47.5 220.7L46.8 220L47 218.8L47.7 220Z" fill="#F3F6F1"/>
<path d="M47 218.8L46.8 220L46.5 219.7L47 218.8Z" fill="#E7F0F4"/>
<path d="M47.7 220L47 218.8L48 219.1L47.7 220Z" fill="#EFF7F9"/>
<path d="M47 218.8L46.5 219.7L45.4 218.6L47 218.8Z" fill="#A3B1BC"/>
<path d="M47 218.8L45.4 218.6L40.1 213.4L47.6 208.1L47 218.8Z" fill="#475875"/>
<path d="M47.6 208.1L40.1 213.4L35.5 208.8L36.1 203.6L47.6 208.1Z" fill="white"/>
<path d="M36.1 203.6L35.5 208.8L32.7 206L36.1 203.6Z" fill="#A3B1BC"/>
<path d="M36.1 203.6L32.7 206L23.4 196.7V195.9L28.9 196.4L36.1 203.6Z" fill="white"/>
<path d="M23.4 195.9V196.7L22.5 195.9H23.4Z" fill="#EFF7F9"/>
<path d="M51.4 206.9L47.6 208.1L43.3 201.3L52 204.7L51.4 206.9Z" fill="#E5EDF0"/>
<path d="M43.3 201.3L47.6 208.1L36.1 203.6L43.3 201.3Z" fill="#EFF7F9"/>
<path d="M52.1 198.3L53.8 198.4L56 201.3L53.9 203.1L52.9 201.4L53.1 200.9L52.1 198.3Z" fill="#75746B"/>
<path d="M53.5 197.5L53.8 198.4L52.1 198.3L53.1 200.9L52.9 201.4L52.6 202.6L52.3 203.5L52 204.7L43.3 201.3L44.3 197.6L45.8 197.8L48.6 198L44.1 193.6L49.4 182.6L49.7 183.7L53.5 197.5Z" fill="#F0F7FB"/>
<path d="M43.3 201.3L36.1 203.6L34.4 196.8L33.1 196.7L34.6 191.1L41.1 197.4L40.4 197.3L43.3 201.3Z" fill="white"/>
<path d="M34.4 196.8L36.1 203.6L28.9 196.4L33.1 196.7L34.4 196.8Z" fill="#B6C1CE"/>
<path d="M44.3 197.6L43.3 201.3V197.5L44.3 197.6Z" fill="#304350"/>
<path d="M14.3 166.5L16.1 181.6L13.1 174.9L14.3 166.5Z" fill="#E1EBF0"/>
<path d="M14.3 166.5L13.1 174.9L10.5 169L14.3 166.5Z" fill="#7A8694"/>
<path d="M22.4 191.8L22.5 195.9L20 190.2L22.3 189.4L22.4 191.8Z" fill="#C6CED0"/>
<path d="M22.3 189.4L20 190.2L16.1 181.6L14.3 166.5L21.9 178L22.3 189.4Z" fill="#C2CBD4"/>
<path d="M14.3 166.5L10.5 169L5.80005 158.6L6.50005 158.2L14.3 166.5Z" fill="#EFF7F9"/>
<path d="M21.7 171.6L21.9 178L14.3 166.5L14.2 153.5L21.7 171.6Z" fill="#EFF7F9"/>
<path d="M14.2 153.5L14.3 166.5L6.5 158.2L10.4 155.8L14.1 153.5H14.2Z" fill="white"/>
<path d="M14.2 153.4V153.5H14.1L14.2 153.4Z" fill="#75746B"/>
<path d="M21.2 158.4L21.5 167.4L21.6 169.8L21.7 171.6L14.2 153.5L21.2 158.4Z" fill="#7A8694"/>
<path d="M21.2 158.4L14.2 153.5L14.3 153.4L19.1 150.4L20.8 149.4L21 154.8L21.1 157.6L21.2 158.4Z" fill="white"/>
<path d="M14.3 153.4L14.2 153.5V153.4H14.3Z" fill="#E3D6C0"/>
<path d="M6.89995 136.3L4.59995 149.3L3.19995 139L6.89995 136.3Z" fill="#808890"/>
<path d="M6.90005 136.3L3.20005 139L2.30005 131.8L6.90005 136.3Z" fill="#475875"/>
<path d="M6.90005 136.3L2.30005 131.8L0.300049 117.4L1.30005 116.8L2.50005 118.8L3.70005 121L6.90005 136.3Z" fill="white"/>
<path d="M1.3 116.8L0.3 117.4L0 114.7L0.3 115.3L0.5 115.6L1.3 116.8Z" fill="#A3B1BC"/>
<path d="M6.50002 158.2L5.80002 158.6L5.40002 155.2L13.1 145.8L10.4 155.8L6.50002 158.2Z" fill="#98A4B1"/>
<path d="M13.1 145.8L5.39998 155.2L4.59998 149.3L6.89998 136.3L13.1 145.8Z" fill="#E1EBF0"/>
<path d="M14.1 153.5L10.4 155.8L13.1 145.8L19.1 150.4L14.3 153.4H14.2L14.1 153.5Z" fill="#B6C1CE"/>
<path d="M10.1 131.6L13.1 145.8L6.90002 136.3L8.30002 128.6L10.1 131.5V131.6Z" fill="#E5EDF0"/>
<path d="M8.29995 128.6L6.89995 136.3L3.69995 121L8.09995 128.2L8.29995 128.6Z" fill="#EFF7F9"/>
<path d="M19.1 150.4L13.1 145.8L15.2 140.1H15.3V140.2L23.9 138.4L23.1 141.3L22.7 142.6L15.4 140.3L16.4 142L20.8 149.4L19.1 150.4Z" fill="#75746B"/>
<path d="M15.2 140.1L13.1 145.8L10.1 131.6L15.2 140.1Z" fill="#F0F7FB"/>
<path d="M78 227.6L78.2 227.9L78 228.1V227.6Z" fill="#F3F6F1"/>
<path d="M78 227.6V228.1L77.9 228.3L78 227.6Z" fill="#E7F0F4"/>
<path d="M78 227.6L79.2 226.5L78.2 227.9L78 227.6Z" fill="#ABB9CA"/>
<path d="M78 227.6L77.9 228.3L77 229.5L76.7999 229.2L76.7 229.1L78 227.6Z" fill="#A3B1BC"/>
<path d="M75.6 207.1L85 218.8L79.2 226.5L78 227.6L75.6 207.1Z" fill="#808890"/>
<path d="M71.8 222.5L75.6001 207.1L78.0001 227.6L76.7001 229.1L71.8 222.5Z" fill="#475875"/>
<path d="M65.1 213.6L75.6 207.1L71.8 222.5L67.6 217L66.1 214.9L65.1 213.6Z" fill="#F6FBFB"/>
<path d="M96.7 196.2L100.3 198.4L96.7999 203L96.7 196.2Z" fill="#7A8694"/>
<path d="M96.7001 196.2L96.8 203L87.3 215.7L88.8 206.8L93.6001 194.3L94.8 195.1L96.7001 196.2Z" fill="#D1DADF"/>
<path d="M91.6001 193L93.6001 194.3L88.8 206.8L90.1001 192.1L91.6001 193Z" fill="#E7F0F4"/>
<path d="M88.8 206.8L87.3 215.7L85.9 217.6L81.1 193.3L88.8 206.8Z" fill="#98A4B1"/>
<path d="M81.1 193.3L85.9 217.6L85 218.8L75.6 207.1L81.1 193.3Z" fill="#E1EBF0"/>
<path d="M90.1 192.1L88.8 206.8L87.9 190.8L90.1 192.1Z" fill="#75746B"/>
<path d="M87.9 190.8L88.8 206.8L81.1 193.3L82.3 187.3L82.5 187.5L87.9 190.8Z" fill="#B6C1CE"/>
<path d="M70.2 200.1L81.1 193.3L75.6 207.1L70.2 200.1Z" fill="#E5EDF0"/>
<path d="M70.2 200.1L75.6 207.1L65.1 213.6L65 213.4L70.2 200.1Z" fill="#808890"/>
<path d="M82.3 187.3L81.1 193.3L77.1 184.1L82.1 187.2L82.3 187.3Z" fill="#75746B"/>
<path d="M77.1 184.1L81.1 193.3L70.2 200.1L70 188.4L74 185.9L75.3 185.1L76 184.6L77 184V184.1H77.1Z" fill="#9DABB9"/>
<path d="M62.8 192.8L70.2 200.1L65 213.4L64.8 213.2L64.5 212.7L59 195.2L60.2 194.4L62.8 192.8Z" fill="#304350"/>
<path d="M68.5 189.3L70 188.4L70.2 200.1L68.5 189.3Z" fill="#304350"/>
<path d="M68.5 189.3L70.2 200.1L62.8 192.8L63.2 192.6L68.5 189.3Z" fill="#ABB9CA"/>
<path d="M28.1 153.8L28.2 153.7V153.9L28.1 153.8Z" fill="#F3F6F1"/>
<path d="M28.1 153.8L27.8 153.6L28.2 153.7L28.1 153.8Z" fill="#E7F0F4"/>
<path d="M28.2 153.9V153.7L28.3 154L28.2 153.9Z" fill="#EFF7F9"/>
<path d="M21.8 149.9L20.8 149.4L21.1 148.5L22.7 142.6L23.1 141.3L28.2 153.7L27.8 153.6L27 153.1L21.8 149.9Z" fill="#A3B1BC"/>
<path d="M28.3 154L28.2 153.7L35 145.7L34.5 157.8L29.4 154.6L28.3 154Z" fill="#808890"/>
<path d="M28.2 153.7L23.1 141.3L23.9 138.4L24.5 136.4L35 145.7L28.2 153.7Z" fill="#475875"/>
<path d="M28.4 122.7L35 145.7L24.5 136.4L27.9 123.8L28.2 122.9L28.4 122.7Z" fill="white"/>
<path d="M28.3 122.6L28.4 122.7L28.2 122.9L28.3 122.6Z" fill="#A3B1BC"/>
<path d="M28.4 122.3V122.7L28.3 122.6L28.4 122.3Z" fill="white"/>
<path d="M42.1 156.3L41.4 162.1L39.7 161L39.5 160.9L42 156L42.1 156.3Z" fill="#98A4B1"/>
<path d="M34.5 157.8L35 145.7L41.7 155.2L42 156L39.5 160.9L34.5 157.8Z" fill="#E1EBF0"/>
<path d="M42.1 156.3L44.1 163.7L41.4 162.1L42.1 156.3Z" fill="#B6C1CE"/>
<path d="M41.7 155.2L35 145.7L35.5 132.9V132.7L32.3 121.1L43.7 139L37.9 141.4L41.7 155.2Z" fill="#E5EDF0"/>
<path d="M35.5 132.9L35 145.7L28.4 122.7L35.5 132.7V132.9Z" fill="#EFF7F9"/>
<path d="M30.7 115.3L32.3 121.1L35.5 132.7L28.4 122.7L30.7 115.3Z" fill="white"/>
<path d="M30.7 115.3L28.4 122.7V122.3L30.5 114.7L30.7 115.3Z" fill="#B6C1CE"/>
<path d="M53.5 197.5L54.8 197.7L53.8 198.4L53.5 197.5Z" fill="#EFF7F9"/>
<path d="M50 181.3L56.8 196.5L54.8 197.7L53.5 197.5L49.7 183.7L50 181.3Z" fill="#808890"/>
<path d="M49.2 182.2L50 181.3L49.7 183.7L49.4 182.6L49.2 182.2Z" fill="#475875"/>
<path d="M48.9 181L50 181.3L49.2 182.2L48.9 181Z" fill="white"/>
<path d="M74.9 183L76 184.6L75.3 185.1L74.9 183Z" fill="#E1EBF0"/>
<path d="M74.9 183L75.3 185.1L74 185.9L74.9 183Z" fill="#7A8694"/>
<path d="M75.2 182.9L76.3 183.6L77 184L76 184.6L74.9 183L75.2 182.9Z" fill="#C2CBD4"/>
<path d="M74.9001 183L74 185.9L70 188.4L68.5 189.3L63.2 192.6L62.8 190.8L74.9001 183Z" fill="#EFF7F9"/>
<path d="M60.2 194.4L62.8 190.8L63.2 192.6L62.8 192.8L60.2 194.4Z" fill="white"/>
<path d="M74.9 183L74.7 182.6L75.2 182.9L74.9 183Z" fill="#EFF7F9"/>
<path d="M62.8 190.8L68.8 179L74.7 182.6L74.9001 183L62.8 190.8Z" fill="white"/>
<path d="M60.2 194.4L59 195.2L57.6 196L58.3 176.2L62.8 190.8L60.2 194.4Z" fill="#98A4B1"/>
<path d="M58.3 176.2L57.6 196L56.8 196.5L50 181.3L58.3 176.2Z" fill="#E1EBF0"/>
<path d="M62.8 190.8L66.1 177.3L68.8 179L62.8 190.8Z" fill="#75746B"/>
<path d="M60.3 173.7L61.6 174.5L66.1 177.3L62.8 190.8L58.3 176.2L60.3 173.7Z" fill="#B6C1CE"/>
<path d="M46.7 172.9L58.3 176.2L50 181.3L47.2 174.7L46.7 172.9Z" fill="#E5EDF0"/>
<path d="M47.2 174.7L50 181.3L48.9 181L47.2 174.7Z" fill="#EFF7F9"/>
<path d="M60.3 173.7L58.3 176.2L57.5 172L60.3 173.7Z" fill="#75746B"/>
<path d="M57.5 172L58.3 176.2L46.7 172.9L46.6 172.6L46.5 172.3L48.3 166.3L50.4 167.6L55.2 170.6L57.5 172Z" fill="#F0F7FB"/>
<path d="M47 165.5L48.3 166.3L46.5 172.3L46.4 172L47 165.5Z" fill="#304350"/>
<path d="M47 165.5L46.4 172L46.2 171.1L44.1 163.7L47 165.5Z" fill="#EFF7F9"/>
<path d="M23.4 195.9H22.5L22.4 191.8L34.6 191.1L33.1 196.7L28.9 196.4L23.4 195.9Z" fill="#A3B1BC"/>
<path d="M21.6 169.8L34.6 191.1L22.4 191.8L22.3 189.4L21.9 178L21.7 171.6L21.6 169.8Z" fill="white"/>
<path d="M48.6 198L45.8 197.8L44.1 193.6L48.6 198Z" fill="#E5EDF0"/>
<path d="M41.1 197.4L34.6 191.1L44.1 193.6L45.8 197.8L44.3 197.6L43.3 197.5V201.3L40.4 197.3L41.1 197.4Z" fill="#EFF7F9"/>
<path d="M44.1 193.6L34.6 191.1L31.3 167.3L44.1 193.6Z" fill="white"/>
<path d="M31.3 167.3L34.6 191.1L21.6 169.8L21.5 167.4L31.3 167.3Z" fill="#182631"/>
<path d="M49.4 182.6L44.1 193.6L45.9 171.7L46.6 172.6L46.7 172.9L47.2 174.7L48.9 181L49.2 182.2L49.4 182.6Z" fill="#304350"/>
<path d="M45.9 171.7L44.1 193.6L31.3 167.3L45.9 171.7Z" fill="#EFF7F9"/>
<path d="M21.1 157.6L31.3 167.3L21.5 167.4L21.2 158.4L21.1 157.6Z" fill="#E1EBF0"/>
<path d="M45.9 171.7L31.3 167.3L26.7 156.3L45.9 171.7Z" fill="#C6CED0"/>
<path d="M26.7 156.3L31.3 167.3L21.1 157.6L21 154.8L26.7 156.3Z" fill="#D1DADF"/>
<path d="M21 154.8L20.8 149.4L21.8 149.9L26.7 156.3L21 154.8Z" fill="#B6C1CE"/>
<path d="M46.5 172.3L46.6 172.6L45.9 171.7L46.2 171.1L46.4 172L46.5 172.3Z" fill="#D1DADF"/>
<path d="M46.2 171.1L45.9 171.7L39.7 161L41.4 162.1L44.1 163.7L46.2 171.1Z" fill="#F0F7FB"/>
<path d="M39.6999 161L45.9 171.7L26.7 156.3L29.4 154.6L34.5 157.8L39.5 160.9L39.6999 161Z" fill="#9DABB9"/>
<path d="M29.4 154.6L26.7 156.3L27 153.1L27.8 153.6L28.1 153.8L28.2 153.9L28.3 154L29.4 154.6Z" fill="#525A66"/>
<path d="M27 153.1L26.7 156.3L21.8 149.9L27 153.1Z" fill="#EFF7F9"/>
<path d="M150.1 142.1L150.5 140.9L150.4 142L150.1 142.1Z" fill="#444950"/>
<path d="M150.1 142.1L150.4 142L148.2 158.6L150.1 142.1Z" fill="#ABB9CA"/>
<path d="M150.1 142.1L148.2 158.6L147.7 158.4L147.1 158L146.9 159.5L139.7 158.5L142.2 155L143.2 155.6L150.1 142.1Z" fill="#808890"/>
<path d="M153.9 115L154 114.7V115.1L153.9 115Z" fill="#7A8694"/>
<path d="M153.9 115L154 115.1L150.5 140.9L150.1 142.1L146.3 133.5L145.6 128.7L146.2 127.8L150.1 121.2L153.9 115Z" fill="#D1DADF"/>
<path d="M144.3 130.9L145.6 128.7L146.3 133.5L144.3 130.9Z" fill="#E7F0F4"/>
<path d="M136.3 149.2L146.3 133.5L150.1 142.1L136.3 149.2Z" fill="#98A4B1"/>
<path d="M136.3 149.2L150.1 142.1L143.2 155.6L142.2 155L139.7 158.5L138.9 152.9L137.4 152L136.6 151.5L136.3 149.2Z" fill="#E1EBF0"/>
<path d="M144.3 130.9L146.3 133.5L143.1 132.9L143.5 132.3L144.3 130.9Z" fill="#75746B"/>
<path d="M143.1 132.9L146.3 133.5L136.3 149.2L135.2 146.1L137.3 142.6L143.1 132.9Z" fill="#B6C1CE"/>
<path d="M136 151.1L136.3 149.2L136.6 151.5L136 151.1Z" fill="#E5EDF0"/>
<path d="M133.3 149.2L135.2 146.1L136.3 149.2L135.2 150.6L134.9 150.4L133.1 151.9L133.2 149.4L133.3 149.2Z" fill="#75746B"/>
<path d="M135.2 150.6L136.3 149.2L136 151.1L135.2 150.6Z" fill="#9DABB9"/>
<path d="M147.7 158.4L148.2 158.6L147.7 159.7L146.9 159.5L147.7 158.4Z" fill="#F3F6F1"/>
<path d="M146.9 159.5L147.7 159.7L147.5 160.2L146.9 159.5Z" fill="#E7F0F4"/>
<path d="M147.7 158.4L146.9 159.5L147.1 158L147.7 158.4Z" fill="#EFF7F9"/>
<path d="M146.9 159.5L147.5 160.2L146.8 161.8L146.9 159.5Z" fill="#A3B1BC"/>
<path d="M146.9 159.5L146.8 161.8L143.2 169.7L139.7 158.5L146.9 159.5Z" fill="#475875"/>
<path d="M139.7 158.5L143.2 169.7L140.1 176.6L136.7 175.7L139.7 158.5Z" fill="white"/>
<path d="M136.7 175.7L140.1 176.6L138.3 180.8L136.7 175.7Z" fill="#A3B1BC"/>
<path d="M136.7 175.7L138.3 180.8L132 194.7H131.5L131.8 186.4L136.7 175.7Z" fill="white"/>
<path d="M131.5 194.7H132L131.5 195.9V194.7Z" fill="#EFF7F9"/>
<path d="M138.9 152.9L139.7 158.5L135.1 164.9L137.4 152L138.9 152.9Z" fill="#E5EDF0"/>
<path d="M135.1 164.9L139.7 158.5L136.7 175.7L135.1 164.9Z" fill="#EFF7F9"/>
<path d="M136 151.1L136.6 151.5L137.4 152L135.1 164.9L132.7 163.5L132.8 161.3L132.9 157.1L130 163.8L122.6 155.9L123.7 155.3L132.1 150.1L133.2 149.4L133.1 151.9L134.9 150.4L135.2 150.6L136 151.1Z" fill="#F0F7FB"/>
<path d="M135.1 164.9L136.7 175.7L132.1 178.2V180.2L128.3 178L132.5 168.2V169.3L135.1 164.9Z" fill="white"/>
<path d="M132.1 178.2L136.7 175.7L131.8 186.4L132.1 180.2V178.2Z" fill="#B6C1CE"/>
<path d="M132.7 163.5L135.1 164.9L132.6 165L132.7 163.5Z" fill="#304350"/>
<path d="M111.8 208.1L121.9 205.4L117.4 209.9L111.8 208.1Z" fill="#E1EBF0"/>
<path d="M111.8 208.1L117.4 209.9L113.5 213.8L111.8 208.1Z" fill="#7A8694"/>
<path d="M128.7 196.1L131.5 195.9L127.7 199.7L127.1 196.3L128.7 196.1Z" fill="#C6CED0"/>
<path d="M127.1 196.3L127.7 199.7L121.9 205.4L111.8 208.1L119.5 196.9L127.1 196.3Z" fill="#C2CBD4"/>
<path d="M111.8 208.1L113.5 213.8L106.5 220.8L106.2 219.7L111.8 208.1Z" fill="#EFF7F9"/>
<path d="M115.2 197.2L119.5 196.9L111.8 208.1L103.1 208.3L115.2 197.2Z" fill="#EFF7F9"/>
<path d="M103.1 208.3L111.8 208.1L106.2 219.7L104.6 214L103.1 208.4V208.3Z" fill="white"/>
<path d="M103 208.3H103.1V208.4L103 208.3Z" fill="#75746B"/>
<path d="M115.2 197.2L103.1 208.3L106.4 197.9L112.4 197.4L114 197.3L115.2 197.2Z" fill="#7A8694"/>
<path d="M101 200.9L100.3 198.4L103.9 198.1L105.8 198L106.4 197.9L103.1 208.3L103 208.2L101 200.9Z" fill="white"/>
<path d="M103 208.3V208.2L103.1 208.3H103Z" fill="#E3D6C0"/>
<path d="M91.5 219.2L100.2 222.6L93.3 224.7L91.5 219.2Z" fill="#808890"/>
<path d="M91.5 219.2L93.3 224.7L88.5 226.1L91.5 219.2Z" fill="#475875"/>
<path d="M91.5 219.2L88.5 226.1L78.8 229L78.4 227.6L81.2 223.9L91.5 219.2Z" fill="white"/>
<path d="M78.4 227.6L78.8 229L77 229.5L78.4 227.6Z" fill="#A3B1BC"/>
<path d="M106.2 219.7L106.5 220.8L104.2 221.5L97.9 210L104.6 214L106.2 219.7Z" fill="#98A4B1"/>
<path d="M97.9 210L104.2 221.5L100.2 222.6L91.5 219.2L97.9 210Z" fill="#E1EBF0"/>
<path d="M103.1 208.4L104.6 214L97.9 210L101 200.9L103 208.2V208.3L103.1 208.4Z" fill="#B6C1CE"/>
<path d="M91.5001 219.2L86.3 217.1L88.3 214.4L97.9001 210L91.5001 219.2Z" fill="#E5EDF0"/>
<path d="M91.5 219.2L81.2 223.9L86.2999 217.1L91.5 219.2Z" fill="#EFF7F9"/>
<path d="M97.9 210L94 206.8L100.3 198.4L101 200.9L97.9 210Z" fill="#75746B"/>
<path d="M97.9001 210L88.3 214.4L94.0001 206.8L97.9001 210Z" fill="#F0F7FB"/>
<path d="M148.8 106L154 114.7L153.9 115L150.1 121.2L142 124.3L148.8 106Z" fill="#808890"/>
<path d="M146.2 127.8L142 124.3L150.1 121.2L146.2 127.8Z" fill="#475875"/>
<path d="M143.5 132.3L142 124.3L146.2 127.8L145.6 128.7L144.3 130.9L143.5 132.3Z" fill="#F6FBFB"/>
<path d="M132.6 82.3L133.2 80.1L134.9 83L132.6 82.3Z" fill="#E7F0F4"/>
<path d="M129.8 108.1L139.2 90L144.2 98.4L129.8 108.1Z" fill="#98A4B1"/>
<path d="M129.8 108.1L144.2 98.4L148.8 106L142 124.3L129.8 108.1Z" fill="#E1EBF0"/>
<path d="M132.6 82.3L134.9 83L136.7 85.9L131.3 87L132.6 82.3Z" fill="#75746B"/>
<path d="M131.3 87L136.7 85.9L139.2 90L129.8 108.1L126.1 105.6L131.3 87Z" fill="#B6C1CE"/>
<path d="M129.8 108.1L142 124.3L135.8 140.6L129.8 108.1Z" fill="#E5EDF0"/>
<path d="M135.8 140.6L142 124.3L143.5 132.3L143.1 132.9L137.3 142.6L135.8 140.6Z" fill="#808890"/>
<path d="M124 116.4L123.5 114.7L126.1 105.6L129.8 108.1L124 116.4Z" fill="#75746B"/>
<path d="M124 116.4L129.8 108.1L135.8 140.6L130.8 140.9L129.3 135.5L125.1 120.3L124.4 118L124.1 116.6L124 116.4Z" fill="#9DABB9"/>
<path d="M133.3 149.2L135.8 140.6L137.3 142.6L135.2 146.1L133.3 149.2Z" fill="#304350"/>
<path d="M130.8 140.9L135.8 140.6L131.4 142.9L130.9 141.1L130.8 140.9Z" fill="#304350"/>
<path d="M131.4 142.9L135.8 140.6L133.3 149.2L133.2 149.4L132.4 146.4L131.8 144.5L131.6 143.7L131.4 142.9Z" fill="#ABB9CA"/>
<path d="M103.3 187.6L103.2 187.4H103.3V187.6Z" fill="#F3F6F1"/>
<path d="M103.3 187.6L103.2 188.1V187.4L103.3 187.6Z" fill="#E7F0F4"/>
<path d="M103.3 187.4H103.2L103.4 187.3L103.3 187.4Z" fill="#EFF7F9"/>
<path d="M100.7 197L100.3 198.4L96.7001 196.2L94.8 195.1L103.2 187.4V188.1L102.8 189.3L100.7 197Z" fill="#A3B1BC"/>
<path d="M103.4 187.3L103.2 187.4L97.8 177.4L105.9 178L103.8 185.7L103.4 187.3Z" fill="#808890"/>
<path d="M97.8 177.4L103.2 187.4L94.8 195.1L93.6 194.3L91.6 193L97.8 177.4Z" fill="#475875"/>
<path d="M82.4 187.2L97.8 177.4L91.6 193L90.1 192.1L87.9 190.8L82.5 187.5L82.4 187.2Z" fill="white"/>
<path d="M82.4001 187.2L82.5001 187.5L82.3 187.3L82.4001 187.2Z" fill="#A3B1BC"/>
<path d="M82.4 187.2L82.3 187.3L82.1 187.2H82.4Z" fill="white"/>
<path d="M108 170.7L104.7 166.9L104.9 166.8L108.8 167.8L108.1 170.3L108 170.7Z" fill="#98A4B1"/>
<path d="M97.8 177.4L104.2 167.3L104.7 166.9L108 170.7L105.9 178L97.8 177.4Z" fill="#E1EBF0"/>
<path d="M108.8 167.8L104.9 166.8L109.9 163.7L108.8 167.8Z" fill="#B6C1CE"/>
<path d="M97.7999 177.4L89.2 176.5L104.2 167.3L97.7999 177.4Z" fill="#E5EDF0"/>
<path d="M82.4 187.2L89.1 176.6L89.2 176.5L97.8 177.4L82.4 187.2Z" fill="#EFF7F9"/>
<path d="M82.4 187.2L77.4 183.8L89.1 176.6L82.4 187.2Z" fill="white"/>
<path d="M77 184.1L77.4 183.8L82.4 187.2H82.1L77.1 184.1H77Z" fill="#B6C1CE"/>
<path d="M132.1 150.1L132.4 146.4L133.2 149.4L132.1 150.1Z" fill="#EFF7F9"/>
<path d="M121.6 154.6L131.8 144.5L132.4 146.4L132.1 150.1L123.7 155.3L121.6 154.6Z" fill="#808890"/>
<path d="M121.6 154.6L123.7 155.3L122.6 155.9L122.3 156.1L121.6 154.6Z" fill="#475875"/>
<path d="M121.6 154.6L122.3 156.1L121.4 156.7L121.6 154.6Z" fill="white"/>
<path d="M124.4 118L122.7 118.7L124.1 116.6L124.4 118Z" fill="#E1EBF0"/>
<path d="M125.1 120.3L122.7 118.7L124.4 118L125.1 120.3Z" fill="#7A8694"/>
<path d="M122.7 118.7L122.6 118.1L123.5 114.7L124 116.4L124.1 116.6L122.7 118.7Z" fill="#C2CBD4"/>
<path d="M129.3 135.5L127.8 136.1L122.7 118.7L125.1 120.3L129.3 135.5Z" fill="#EFF7F9"/>
<path d="M130.9 141.1L127.8 136.1L129.3 135.5L130.8 140.9L130.9 141.1Z" fill="white"/>
<path d="M122.7 118.7L122.3 119.1L122.6 118.1L122.7 118.7Z" fill="#EFF7F9"/>
<path d="M127.8 136.1L120 127.3L122.3 119.1L122.7 118.7L127.8 136.1Z" fill="white"/>
<path d="M131.6 143.7L118.3 142.6L127.8 136.1L130.9 141.1L131.4 142.9L131.6 143.7Z" fill="#98A4B1"/>
<path d="M121.6 154.6L118.3 142.6L131.6 143.7L131.8 144.5L121.6 154.6Z" fill="#E1EBF0"/>
<path d="M127.8 136.1L118.9 131.4L120 127.3L127.8 136.1Z" fill="#75746B"/>
<path d="M118.3 142.6L116.6 139.6L118.9 131.4L127.8 136.1L118.3 142.6Z" fill="#B6C1CE"/>
<path d="M121.6 154.6L116.1 159.9L118.3 142.6L121.6 154.6Z" fill="#E5EDF0"/>
<path d="M116.1 159.9L121.6 154.6L121.4 156.7L116.1 159.9Z" fill="#EFF7F9"/>
<path d="M118.3 142.6L115.5 143.8L116.6 139.6L118.3 142.6Z" fill="#75746B"/>
<path d="M116.1 159.9L111.8 157.1L115.5 143.8L118.3 142.6L116.1 159.9Z" fill="#F0F7FB"/>
<path d="M116.1 159.9L116 160L116.1 159.9Z" fill="white"/>
<path d="M116.1 159.9L111.3 158.9L111.8 157.1L116.1 159.9Z" fill="#304350"/>
<path d="M114.9 160.7L109.9 163.7L111.3 158.9L116.1 159.9L116 160L115.9 160.1L114.9 160.7Z" fill="#EFF7F9"/>
<path d="M131.5 194.7V195.9L128.7 196.1L128.3 178L132.1 180.2L131.8 186.4L131.5 194.7Z" fill="#A3B1BC"/>
<path d="M114 197.3L128.3 178L128.7 196.1L127.1 196.3L119.5 196.9L115.2 197.2L114 197.3Z" fill="white"/>
<path d="M132.9 157.1L132.8 161.3L130 163.8L132.9 157.1Z" fill="#E5EDF0"/>
<path d="M132.5 168.2L128.3 178L130 163.8L132.8 161.3L132.7 163.5L132.6 165L135.1 164.9L132.5 169.3V168.2Z" fill="#EFF7F9"/>
<path d="M130 163.8L128.3 178L112.3 182.9L130 163.8Z" fill="white"/>
<path d="M112.3 182.9L128.3 178L114 197.3L112.4 197.4L112.3 182.9Z" fill="#B6C1CE"/>
<path d="M122.6 155.9L130 163.8L115.3 161.1L115.9 160.1L116 160L116.1 159.9L121.4 156.7L122.3 156.1L122.6 155.9Z" fill="#304350"/>
<path d="M115.3 161.1L130 163.8L112.3 182.9L115.3 161.1Z" fill="#EFF7F9"/>
<path d="M112.4 197.4L106.4 197.9L105.8 198L112.3 182.9L112.4 197.4Z" fill="#E1EBF0"/>
<path d="M112.3 182.9L105 189.7L115.3 161.1L112.3 182.9Z" fill="#C6CED0"/>
<path d="M112.3 182.9L105.8 198L103.9 198.1L105 189.7L112.3 182.9Z" fill="#D1DADF"/>
<path d="M103.9 198.1L100.3 198.4L100.7 197L105 189.7L103.9 198.1Z" fill="#B6C1CE"/>
<path d="M115.9 160.1L115.3 161.1L114.9 160.7L115.9 160.1Z" fill="#D1DADF"/>
<path d="M108.8 167.8L109.9 163.7L114.9 160.7L115.3 161.1L108.1 170.3L108.8 167.8Z" fill="#F0F7FB"/>
<path d="M115.3 161.1L105 189.7L103.8 185.7L105.9 178L108 170.7L108.1 170.3L115.3 161.1Z" fill="#9DABB9"/>
<path d="M103.8 185.7L105 189.7L102.8 189.3L103.2 188.1L103.3 187.6V187.4L103.4 187.3L103.8 185.7Z" fill="#525A66"/>
<path d="M102.8 189.3L105 189.7L100.7 197L102.8 189.3Z" fill="#EFF7F9"/>
<path d="M105.2 13.3L99.3 6.59998L106.5 8.69998L106.3 9.39998L106 10.3L107.1 10.6L106.4 21.3L104 17.6L105.2 13.3Z" fill="#808890"/>
<path d="M78.4 1.7L77 0L90.6 4L86.8 7.7L83.5 8.7L82.7 7.5L78.4 1.7Z" fill="#D1DADF"/>
<path d="M85.1 10.7L83.5 8.69995L86.8 7.69995L85.1 10.7Z" fill="#E7F0F4"/>
<path d="M86.8 7.7L90.6001 4L95.1001 5.3L100 26.3L86.8 7.7Z" fill="#98A4B1"/>
<path d="M100 26.3L95.1 5.30005L99.3 6.60005L105.2 13.3L104 17.6L106.4 21.3L102.6 22.5L102 24.8L101.7 25.8L100 26.3Z" fill="#E1EBF0"/>
<path d="M85.1 10.7L86.8 7.69995L86.4 12.5L85.1 10.7Z" fill="#75746B"/>
<path d="M86.4 12.5L86.8 7.69995L100 26.2999L98 28L90.8 18.4L87 13.3L86.4 12.5Z" fill="#B6C1CE"/>
<path d="M101.5 26.8L100 26.3L101.7 25.8L101.5 26.8Z" fill="#E5EDF0"/>
<path d="M98 28L100 26.3L101.1 28.2L101 28.5L101.9 31.2L100.3 31L98 28Z" fill="#75746B"/>
<path d="M101.1 28.2L100 26.3L101.5 26.8L101.1 28.2Z" fill="#9DABB9"/>
<path d="M106.3 9.39995L106.5 8.69995L107.2 9.39995L107.1 10.6L106.3 9.39995Z" fill="#F3F6F1"/>
<path d="M107.1 10.6L107.2 9.40002L107.6 9.80002L107.1 10.6Z" fill="#E7F0F4"/>
<path d="M106.3 9.40002L107.1 10.6L106 10.3L106.3 9.40002Z" fill="#EFF7F9"/>
<path d="M107.1 10.6L107.6 9.80005L108.6 10.8L107.1 10.6Z" fill="#A3B1BC"/>
<path d="M107.1 10.6L108.6 10.8L113.9 16.1L106.4 21.3L107.1 10.6Z" fill="#475875"/>
<path d="M106.4 21.3L113.9 16.1L118.5 20.7L117.9 25.8L106.4 21.3Z" fill="white"/>
<path d="M117.9 25.8L118.5 20.7L121.3 23.5L117.9 25.8Z" fill="#A3B1BC"/>
<path d="M117.9 25.8L121.3 23.5L130.7 32.7V33.5L125.1 33L117.9 25.8Z" fill="white"/>
<path d="M130.7 33.5V32.7L131.5 33.6L130.7 33.5Z" fill="#EFF7F9"/>
<path d="M110.7 28.2L102 24.8L102.6 22.5L106.4 21.3L110.7 28.2Z" fill="#E5EDF0"/>
<path d="M110.7 28.2L106.4 21.3L117.9 25.8L110.7 28.2Z" fill="#EFF7F9"/>
<path d="M101.5 26.8L101.7 25.8L102 24.8L110.7 28.2L109.7 31.8001L108.3 31.7L105.5 31.5L110 35.8001L104.7 46.8001L104.1 44.9L100.8 33.1L100.3 31L101.9 31.2L101 28.5L101.1 28.2L101.5 26.8Z" fill="#F0F7FB"/>
<path d="M110.7 28.2L117.9 25.8L119.6 32.6L120.9 32.7L119.5 38.3001L112.9 32.1H113.6L110.7 28.2Z" fill="white"/>
<path d="M119.6 32.6L117.9 25.8L125.1 33L120.9 32.7L119.6 32.6Z" fill="#B6C1CE"/>
<path d="M110.8 31.9L109.7 31.8L110.7 28.2L110.8 31.9Z" fill="#304350"/>
<path d="M139.7 62.9L137.9 47.9L140.9 54.6L139.7 62.9Z" fill="#E1EBF0"/>
<path d="M139.7 62.9L140.9 54.6L143.5 60.4L139.7 62.9Z" fill="#7A8694"/>
<path d="M131.6 37.6L131.5 33.6L134 39.3L131.7 40.1L131.6 37.6Z" fill="#C6CED0"/>
<path d="M131.7 40.1L134 39.3L137.9 47.9L139.7 62.9L132.1 51.5L131.7 40.1Z" fill="#C2CBD4"/>
<path d="M139.7 62.9L143.5 60.4L148.2 70.8L147.5 71.2L139.7 62.9Z" fill="#EFF7F9"/>
<path d="M132.4 57.8L132.1 51.5L139.7 62.9L139.8 75.9L132.4 57.8Z" fill="#EFF7F9"/>
<path d="M139.8 75.9L139.7 62.9L147.5 71.2L143.7 73.6L139.9 75.9H139.8Z" fill="white"/>
<path d="M139.8 76V75.9H139.9L139.8 76Z" fill="#75746B"/>
<path d="M132.4 57.8L139.8 75.9L132.9 71L132.5 62L132.4 59.6V57.8Z" fill="#7A8694"/>
<path d="M134.9 79L133.2 80.1L133 74.6L132.9 71.9V71L139.8 75.9V76L134.9 79Z" fill="white"/>
<path d="M147.1 93.1L149.4 80.1L150.8 90.4L147.1 93.1Z" fill="#808890"/>
<path d="M147.1 93.1L150.8 90.4L151.8 97.6L147.1 93.1Z" fill="#475875"/>
<path d="M147.1 93.1L151.8 97.6L153.7 112.1L152.8 112.6L150.3 108.5L147.1 93.1Z" fill="white"/>
<path d="M152.8 112.6L153.7 112.1L154 114.7L152.8 112.6Z" fill="#A3B1BC"/>
<path d="M147.5 71.2001L148.2 70.8L148.6 74.3L141 83.6L143.7 73.6L147.5 71.2001Z" fill="#98A4B1"/>
<path d="M141 83.6L148.6 74.3L149.4 80.1L147.1 93.1L141 83.6Z" fill="#E1EBF0"/>
<path d="M139.9 75.9L143.7 73.6L141 83.6L134.9 79L139.8 76L139.9 75.9Z" fill="#B6C1CE"/>
<path d="M147.1 93.1L145.7 100.9L143.9 97.8L141 83.6L147.1 93.1Z" fill="#E5EDF0"/>
<path d="M147.1 93.1L150.3 108.5L145.7 100.9L147.1 93.1Z" fill="#EFF7F9"/>
<path d="M141 83.6L138.8 89.4L133.2 80.1L134.9 79L141 83.6Z" fill="#75746B"/>
<path d="M141 83.6L143.9 97.8L138.8 89.4L141 83.6Z" fill="#F0F7FB"/>
<path d="M80.1 17.5L71.7 7L77 0L78.4 1.7L80.1 17.5Z" fill="#808890"/>
<path d="M82.7 7.49995L80.1 17.5L78.4 1.69995L82.7 7.49995Z" fill="#475875"/>
<path d="M87 13.3L80.1 17.5L82.7 7.5L83.5 8.7L85.1 10.7L86.4 12.5L87 13.3Z" fill="#F6FBFB"/>
<path d="M56.7 32.8001L53.8 31L61.1 21.3L56.7 32.8001Z" fill="#D1DADF"/>
<path d="M56.7 32.8L61.1 21.3L62.2 19.7L60.9 35.4L56.7 32.8Z" fill="#E7F0F4"/>
<path d="M72.8 36.1L62.9 18.8L68 12L72.8 36.1Z" fill="#98A4B1"/>
<path d="M72.8 36.1L68 12L71.7 7L80.1 17.5L72.8 36.1Z" fill="#E1EBF0"/>
<path d="M60.9 35.4L62.2 19.7L62.5 19.4L63.5 37L60.9 35.4Z" fill="#75746B"/>
<path d="M63.5 37L62.5 19.4L62.9 18.8L72.8 36.1L71.6 42.1L63.5 37Z" fill="#B6C1CE"/>
<path d="M87.5001 27L72.8 36.1L80.1001 17.5L87.5001 27Z" fill="#E5EDF0"/>
<path d="M87.5 27L80.1 17.5L87 13.3L90.8 18.4L87.5 27Z" fill="#808890"/>
<path d="M72.8 36.1L76.7 45.2L71.6 42.1L72.8 36.1Z" fill="#75746B"/>
<path d="M78.4001 44.5L77.0001 45.4L76.7001 45.2L72.8 36.1L87.5001 27L87.7001 38.8L81.2001 42.8L79.4001 43.9L78.4001 44.5Z" fill="#9DABB9"/>
<path d="M95 34.3L87.5 27L90.8 18.4L98 28L100.3 31L97.8 32.6L96.8 33.2L96.5 33.4L95.2 34.2L95 34.3Z" fill="#304350"/>
<path d="M89.2 37.9L87.7 38.8L87.5 27L89.2 37.9Z" fill="#304350"/>
<path d="M89.2 37.9L87.5 27L95 34.3L91 36.8L89.2 37.9Z" fill="#ABB9CA"/>
<path d="M125.9 75.6L125.8 75.7V75.5L125.9 75.6Z" fill="#F3F6F1"/>
<path d="M125.9 75.6L126.2 75.8L125.8 75.7L125.9 75.6Z" fill="#E7F0F4"/>
<path d="M125.8 75.5V75.7L125.7 75.4L125.8 75.5Z" fill="#EFF7F9"/>
<path d="M132.2 79.4999L133.2 80.0999L130.9 88.2L125.8 75.7L126.2 75.7999L127.1 76.2999L132.2 79.4999Z" fill="#A3B1BC"/>
<path d="M125.7 75.4L125.8 75.7L119 83.7L119.5 71.6L124.7 74.8L125.7 75.4Z" fill="#808890"/>
<path d="M119 83.7L125.8 75.7L130.9 88.2L129.6 92.9999L119 83.7Z" fill="#475875"/>
<path d="M119 83.7L129.6 92.9999L125.8 106.5L125.6 106.7L119 83.7Z" fill="white"/>
<path d="M125.6 106.7L125.8 106.5L125.7 106.8L125.6 106.7Z" fill="#A3B1BC"/>
<path d="M125.6 106.7L125.7 106.8V107.1L125.6 106.7Z" fill="white"/>
<path d="M114.5 68.6L112.1 73.4L112 73.1L112.6 67.4L114.3 68.4L114.5 68.6Z" fill="#98A4B1"/>
<path d="M119 83.7L112.3 74.3L112.1 73.4L114.5 68.6L119.5 71.6L119 83.7Z" fill="#E1EBF0"/>
<path d="M112.6 67.3999L112 73.0999L109.9 65.7L112.6 67.3999Z" fill="#B6C1CE"/>
<path d="M119 83.7001L118.5 96.6L112.3 74.3L119 83.7001Z" fill="#E5EDF0"/>
<path d="M125.6 106.7L118.6 96.7999L118.5 96.5999L119 83.7L125.6 106.7Z" fill="#EFF7F9"/>
<path d="M125.6 106.7L123.4 114.1L118.6 96.8L125.6 106.7Z" fill="white"/>
<path d="M125.6 106.7L125.7 107.1L123.5 114.7L123.4 114.1L125.6 106.7Z" fill="#B6C1CE"/>
<path d="M97.8 32.6L100.3 31L100.8 33.1L97.8 32.6Z" fill="#EFF7F9"/>
<path d="M97.8 32.6L100.8 33.1L104.1 44.9L103.6 48.4L96.8 33.2L97.8 32.6Z" fill="#808890"/>
<path d="M103.6 48.4L104.1 44.9L104.7 46.8L104.8 47.2L103.6 48.4Z" fill="#475875"/>
<path d="M104.8 47.2L105.2 48.8L103.6 48.4L104.8 47.2Z" fill="white"/>
<path d="M79.4 43.9L80 46.8L78.4 44.5L79.4 43.9Z" fill="#E1EBF0"/>
<path d="M81.2 42.8L80 46.8L79.4 43.9L81.2 42.8Z" fill="#7A8694"/>
<path d="M80 46.8L79.5 46.9L77 45.4L78.4 44.5L80 46.8Z" fill="#C2CBD4"/>
<path d="M91 36.8L91.4 39.4L80 46.8L81.2 42.8L87.7 38.8L89.2 37.9L91 36.8Z" fill="#EFF7F9"/>
<path d="M95.2 34.2L91.4 39.4L91 36.8L95 34.3L95.2 34.2Z" fill="white"/>
<path d="M80 46.8L80.3 47.4L79.5 46.9L80 46.8Z" fill="#EFF7F9"/>
<path d="M91.4 39.4L85.7 50.7L80.3 47.4L80 46.8L91.4 39.4Z" fill="white"/>
<path d="M96.5 33.4L95.7 53.2L91.4 39.4L95.2 34.2L96.5 33.4Z" fill="#98A4B1"/>
<path d="M103.6 48.4L95.7 53.2L96.5 33.4L96.7999 33.2L103.6 48.4Z" fill="#E1EBF0"/>
<path d="M91.4 39.4L88.2999 52.4L85.7 50.7L91.4 39.4Z" fill="#75746B"/>
<path d="M95.7001 53.2L93.7001 55.7L88.3 52.4L91.4001 39.4L95.7001 53.2Z" fill="#B6C1CE"/>
<path d="M103.6 48.4L107.1 56.5L95.7 53.2L103.6 48.4Z" fill="#E5EDF0"/>
<path d="M107.3 56.4L107.1 56.5L103.6 48.4L105.2 48.8L107.3 56.4Z" fill="#EFF7F9"/>
<path d="M95.7 53.2L96.5 57.4L93.7 55.7L95.7 53.2Z" fill="#75746B"/>
<path d="M107.1 56.5L105.2 62.8L96.5 57.4L95.7 53.2L107.1 56.5Z" fill="#F0F7FB"/>
<path d="M107.4 56.8L107.6 57.4L107.1 56.5L107.3 56.4L107.4 56.8Z" fill="white"/>
<path d="M107.1 56.5L106.5 63.6L105.2 62.8L107.1 56.5Z" fill="#304350"/>
<path d="M109.9 65.7L108.4 64.8L106.5 63.6L107.1 56.5L107.6 57.4L107.9 58.3L109.9 65.7V65.7Z" fill="#EFF7F9"/>
<path d="M130.7 33.5L131.5 33.6L131.6 37.6L119.5 38.3L120.9 32.7L125.1 33L130.7 33.5Z" fill="#A3B1BC"/>
<path d="M132.4 59.6L119.5 38.3L131.6 37.6L131.7 40.1L132.1 51.5L132.4 57.8V59.6Z" fill="white"/>
<path d="M108.3 31.7L110 35.8L105.5 31.5L108.3 31.7Z" fill="#E5EDF0"/>
<path d="M112.9 32.1L119.5 38.3L110 35.8L108.3 31.7L109.7 31.8L110.8 31.9L110.7 28.2L113.6 32.1H112.9Z" fill="#EFF7F9"/>
<path d="M110 35.8L119.5 38.3L122.8 62.1L110 35.8Z" fill="white"/>
<path d="M122.8 62.1L119.5 38.3L132.4 59.6L132.5 62L122.8 62.1Z" fill="#182631"/>
<path d="M104.8 47.2L104.7 46.8L110 35.8L108.1 57.7L107.4 56.8L107.3 56.4L105.2 48.8L104.8 47.2Z" fill="#304350"/>
<path d="M108.1 57.7L110 35.8L122.8 62.1L108.1 57.7Z" fill="#EFF7F9"/>
<path d="M132.5 62L132.9 71V71.9L122.8 62.1L132.5 62Z" fill="#E1EBF0"/>
<path d="M122.8 62.1L127.3 73.0999L108.1 57.7L122.8 62.1Z" fill="#C6CED0"/>
<path d="M122.8 62.1L132.9 71.9L133 74.6L127.3 73.1L122.8 62.1Z" fill="#D1DADF"/>
<path d="M133 74.6L133.2 80.1L132.2 79.5L127.3 73.1L133 74.6Z" fill="#B6C1CE"/>
<path d="M108.1 57.7L107.9 58.3L107.6 57.4L107.4 56.8L108.1 57.7Z" fill="#D1DADF"/>
<path d="M112.6 67.4L109.9 65.7L107.9 58.3L108.1 57.7L114.3 68.4L112.6 67.4Z" fill="#F0F7FB"/>
<path d="M108.1 57.7L127.3 73.0999L124.7 74.8L119.5 71.5999L114.5 68.5999L114.3 68.4L108.1 57.7Z" fill="#9DABB9"/>
<path d="M124.7 74.8L127.3 73.1L127.1 76.3L126.2 75.8L125.9 75.6L125.8 75.5L125.7 75.4L124.7 74.8Z" fill="#525A66"/>
<path d="M127.1 76.3L127.3 73.1L132.2 79.5L127.1 76.3Z" fill="#EFF7F9"/>
<path style="mix-blend-mode:screen" d="M77 45.4L109.9 65.7L123.5 114.7L109.9 163.7L77 184L44.1 163.7L30.5 114.7L44.1 65.7L77 45.4Z" fill="url(#paint0_linear_3_5677)"/>
<defs>
<linearGradient id="paint0_linear_3_5677" x1="155.3" y1="110.5" x2="87.4" y2="200.1" gradientUnits="userSpaceOnUse">
<stop stop-color="white"/>
<stop offset="1"/>
</linearGradient>
</defs>
</svg>
