<svg version="1.2" xmlns="http://www.w3.org/2000/svg" viewBox="0 0 201 191" width="201" height="191">
	<title>121-ai</title>
	<defs>
		<linearGradient id="g1" x1="167.1" y1="69.6" x2="129.5" y2="149.7" gradientUnits="userSpaceOnUse">
			<stop offset="0" stop-color="#ffffff"/>
			<stop offset="1" stop-color="#000000"/>
		</linearGradient>
	</defs>
	<style>
		.s0 { fill: #474a52 } 
		.s1 { fill: #dee6e8 } 
		.s2 { fill: #e1ebf0 } 
		.s3 { fill: #7a8694 } 
		.s4 { fill: #c6ced0 } 
		.s5 { fill: #c2cbd4 } 
		.s6 { fill: #eff7f9 } 
		.s7 { fill: #75746b } 
		.s8 { fill: #182631 } 
		.s9 { fill: #808890 } 
		.s10 { fill: #ffffff } 
		.s11 { fill: #f0f7fb } 
		.s12 { fill: #304350 } 
		.s13 { fill: #b6c1ce } 
		.s14 { fill: #e5edf0 } 
		.s15 { fill: #d1dadf } 
		.s16 { fill: #9dabb9 } 
		.s17 { fill: #444950 } 
		.s18 { fill: #525a66 } 
		.s19 { fill: #a3b1bc } 
		.s20 { fill: #4a4d53 } 
		.s21 { fill: #475875 } 
		.s22 { fill: #f3f6f1 } 
		.s23 { fill: #cbd5dc } 
		.s24 { fill: #e1e6e5 } 
		.s25 { fill: #e7f0f4 } 
		.s26 { fill: #98a4b1 } 
		.s27 { mix-blend-mode: screen;fill: url(#g1) } 
	</style>
	<g id="Layer 1">
		<g id="&lt;Group&gt;">
			<g id="&lt;Group&gt;">
				<g id="&lt;Group&gt;">
					<g id="&lt;Group&gt;">
						<path id="&lt;Path&gt;" class="s0" d="m78.1 152.5l0.4-0.1 5.7-1.9 4.5-1.6 0.7 0.3-10.9 4z"/>
						<path id="&lt;Path&gt;" class="s1" d="m80.2 156l-1.1-1.8-0.6-1 10.9-4z"/>
						<path id="&lt;Path&gt;" class="s2" d="m110.4 155.2l-21-6-0.1-0.5 3.7-1.2 3.1-1.1 4.3-1.5 0.4 0.2z"/>
						<path id="&lt;Path&gt;" class="s3" d="m110.4 155.2l-9.6-10.1-0.4-0.2 3.3-2.9 0.8-0.8 0.2 5.2 3.1 1.1 2.3 0.7z"/>
						<path id="&lt;Path&gt;" class="s4" d="m88.1 169.6l-1-1.8-6.9-11.8 9.2-6.8z"/>
						<path id="&lt;Path&gt;" class="s5" d="m110.4 155.2l-20.9 16.8-1.4-2.4 1.3-20.4z"/>
						<g id="&lt;Group&gt;">
							<path id="&lt;Path&gt;" class="s6" d="m110.4 155.2l-0.3-7 4.7 1.7z"/>
						</g>
						<path id="&lt;Path&gt;" class="s7" d="m122.5 152.5h0.2l-0.3 0.5z"/>
						<g id="&lt;Group&gt;">
							<path id="&lt;Path&gt;" class="s6" d="m107.4 178.7l-2.3 3.8-7 4.1-6.8-11.6-9.8-5.6 5.6-1.6 1 1.8 1.4 2.4 20.9-16.8 8 4.7-1.8 3-26.7 9.7 0.9 1.6z"/>
						</g>
						<path id="&lt;Path&gt;" class="s8" d="m109.6 175l-2.2 3.7-16.6-4.5-0.9-1.6 26.7-9.7-2.9 4.9z"/>
						<g id="&lt;Group&gt;">
							<path id="&lt;Path&gt;" class="s6" d="m122.7 152.5l0.4 1.2-1.4 0.5 0.7-1.2z"/>
						</g>
						<g id="&lt;Group&gt;">
							<path id="&lt;Path&gt;" class="s6" d="m119.4 169.4l-9.8 5.6 4.1-7.2z"/>
						</g>
						<path id="&lt;Path&gt;" class="s3" d="m124.7 158.4l0.4 1.1-5.7 9.9-5.7-1.6 2.9-4.9 1.8-3 3.3-5.7 1.4-0.5z"/>
						<path id="&lt;Path&gt;" class="s9" d="m101 189.6l0.2 0.6q-0.5 0.3-0.8 0.4z"/>
						<path id="&lt;Path&gt;" class="s1" d="m106.9 187c-2.7 1.6-4.7 2.7-5.7 3.2l-0.2-0.6-0.6 1-0.6-1-0.2 0.6c-1-0.5-3-1.6-5.7-3.2l-12.4-17.6 9.8 5.6 6.8 11.6 7-4.1 2.3-3.8 2.2-3.7 9.8-5.6z"/>
						<g id="&lt;Group&gt;">
							<path id="&lt;Path&gt;" class="s10" d="m129.4 172.1c-9.2 6.8-17.2 11.8-22.5 14.9l12.5-17.6 5.7-9.9z"/>
						</g>
						<path id="&lt;Path&gt;" class="s7" d="m138.7 164.9q-4.8 3.9-9.3 7.2l-4.3-12.6-0.4-1.1 2.2-5.2 1.1 0.2z"/>
						<g id="&lt;Group&gt;">
							<path id="&lt;Path&gt;" class="s11" d="m151.7 153.7q-1.6 1.5-3.1 2.9-5 4.4-9.9 8.3l-10.7-11.5 7.2 1.1 13.4 2-9.7-10.4 12.5-3.6-0.2 1.4z"/>
						</g>
						<path id="&lt;Path&gt;" class="s12" d="m155.4 150.2q-1.9 1.8-3.7 3.5l-0.5-9.8 0.2-1.4 0.5-2.3z"/>
						<g id="&lt;Group&gt;">
							<path id="&lt;Path&gt;" class="s6" d="m162.9 142.5q-3.7 4-7.5 7.7l-3.5-10 0.5-2.4z"/>
						</g>
						<g id="&lt;Group&gt;">
							<path id="&lt;Path&gt;" class="s10" d="m184.4 114.1q-2.7 4.5-5.6 8.8l-16.5-3.7 5.2-2.2 10.1-4.4 2.7-1.2 2-0.8 1-0.5z"/>
						</g>
						<g id="&lt;Group&gt;">
							<path id="&lt;Path&gt;" class="s6" d="m187.7 108.2q-1.6 3-3.3 5.9l-1.1-4z"/>
						</g>
						<g id="&lt;Group&gt;">
							<path id="&lt;Path&gt;" class="s10" d="m170.7 133.6q-1.3 1.5-2.5 3-2.6 3-5.3 5.9l-10.5-4.7 0.4-1.8 0.3-1.5 6.6-7.6-1-1.2-4.1 1.2-1.2 5.9-4.1 1.1 6.2-11.1 0.1-0.6 1.1 1.2 2.3-2.7 2.2-1z"/>
						</g>
						<path id="&lt;Path&gt;" class="s13" d="m178.8 122.9q-3.9 5.6-8.1 10.7l-9.5-13.9 1.1-0.5z"/>
						<path id="&lt;Path&gt;" class="s14" d="m158.7 53.8l5.1 4-5.7 1.6z"/>
						<path id="&lt;Path&gt;" class="s4" d="m199.5 72.8q-0.4 2.5-0.9 5l-15.6 7-0.6-3.3 9.6-10.6h4.3z"/>
						<path id="&lt;Path&gt;" class="s15" d="m199.3 70.9h0.5q-0.1 1-0.3 1.9l-3.2-1.9z"/>
						<g id="&lt;Group&gt;">
							<path id="&lt;Path&gt;" class="s11" d="m194.7 92.3q-1 2.6-2 5.2l-6.4 3.7 1.4 7-4.4 1.9-1 0.5-1.1-13.3 4.6 1.3-0.6-3-0.5-2.2-0.8-4.1z"/>
						</g>
						<path id="&lt;Path&gt;" class="s16" d="m198.6 77.8q-1.4 7.5-3.9 14.5l-10.8-3-0.9-4.5z"/>
						<path id="&lt;Path&gt;" class="s17" d="m192.7 97.5q-2.3 5.5-5 10.7l-1.4-7z"/>
						<g id="&lt;Group&gt;">
							<path id="&lt;Path&gt;" class="s10" d="m189.4 52.7l0.6-1.3 1.5 2.3z"/>
						</g>
						<path id="&lt;Path&gt;" class="s13" d="m196.8 38q0.8 2 1.4 4.2l-6.7 11.5-1.5-2.3-0.6 1.3v0.1l-10.1-14.8 15.7 3.5z"/>
						<g id="&lt;Group&gt;">
							<path id="&lt;Path&gt;" class="s6" d="m189.4 52.8v-0.1l2.1 1-5.8 6.4-4.5 9-0.9 1.8-0.5 0.3 0.6 0.3-0.1-0.6h11.7l-9.6 10.6 0.6 3.3 0.9 4.5 0.8 4.1-3.5 3.9-7.8-22.3 4.9-2.9-1.3-3.8-2.6-2-5.6-16.1 17.9 7.9z"/>
						</g>
						<path id="&lt;Path&gt;" class="s2" d="m198.2 42.2q1.3 4.4 1.9 9l-8.6 2.5z"/>
						<path id="&lt;Path&gt;" class="s4" d="m200.6 59c0 0.5-0.1 1-0.1 1.5l-19.3 8.6 4.5-9 5.8-6.4z"/>
						<path id="&lt;Path&gt;" class="s15" d="m200.1 51.2q0.5 3.7 0.5 7.5 0 0.2 0 0.3l-9.1-5.3z"/>
						<path id="&lt;Path&gt;" class="s16" d="m200.5 60.5q-0.1 3.6-0.4 7.1l-0.8 3.3h-3-4.3-11.7l0.9-1.8z"/>
						<path id="&lt;Path&gt;" class="s18" d="m200.1 67.6c-0.1 1.1-0.2 2.2-0.3 3.3h-0.5z"/>
						<path id="&lt;Path&gt;" class="s19" d="m172.5 8.8c0.4 0.2 0.7 0.4 1 0.6l-8.9 16.3-0.8-0.3 1.5-2.8 3.7-7.2z"/>
						<g id="&lt;Group&gt;">
							<path id="&lt;Path&gt;" class="s10" d="m173.5 9.4q3.2 2 6.1 4.5l5.7 19.7 3.5 1.3 8 3.1-1.8 3.5-15.7-3.5 3.1-5.5-4.4-1.7 1.3 7.2-18.7 5.4 0.9-5.2 6.2-11.3-3.1-1.2z"/>
						</g>
						<g id="&lt;Group&gt;">
							<path id="&lt;Path&gt;" class="s6" d="m179.6 13.9c4.6 3.8 8.6 8.4 11.8 13.5l-2.6 7.5-3.5-1.3z"/>
						</g>
						<path id="&lt;Path&gt;" class="s20" d="m191.4 27.4c2.1 3.3 4 6.8 5.4 10.6l-8-3.1z"/>
						<path id="&lt;Path&gt;" class="s17" d="m133.1 0.9c0.9-0.2 1.9-0.3 2.8-0.4l0.8 3.2z"/>
						<g id="&lt;Group&gt;">
							<path id="&lt;Path&gt;" class="s6" d="m135.9 0.5c2-0.2 4-0.3 6.1-0.3 3.4 0 6.6 0.3 9.8 0.8l-12.5 4.8-0.6-0.5-2-1.6z"/>
						</g>
						<path id="&lt;Path&gt;" class="s9" d="m151.8 1q1.2 0.2 2.3 0.4l4.2 17.1-11.2-6.4-7.8-6.3z"/>
						<path id="&lt;Path&gt;" class="s21" d="m154.1 1.4c4 0.9 7.9 2.1 11.5 3.7l-7.3 13.4z"/>
						<g id="&lt;Group&gt;">
							<path id="&lt;Path&gt;" class="s10" d="m165.6 5.1q3.6 1.6 6.9 3.7l-3.5 6.6-10.7 3.1z"/>
						</g>
						<path id="&lt;Path&gt;" class="s2" d="m147.1 12.1l11.2 6.4-1.3 1.5-0.1-0.2-2.4-1.9-1.6-1.2z"/>
						<path id="&lt;Path&gt;" class="s14" d="m158.3 18.5l7 4.1-1.5 2.8-6.8-5.4z"/>
						<g id="&lt;Group&gt;">
							<path id="&lt;Path&gt;" class="s6" d="m158.3 18.5l10.7-3.1-3.7 7.2z"/>
						</g>
						<path id="&lt;Path&gt;" class="s22" d="m125.7 2.6c2.4-0.7 4.9-1.3 7.4-1.7l-2.5 2.5-1.2 1.3z"/>
						<path id="&lt;Path&gt;" class="s17" d="m107.3 11.6c3.4-2.5 7.1-4.7 11-6.4l2.2 8.6-1.2 1.2z"/>
						<g id="&lt;Group&gt;">
							<path id="&lt;Path&gt;" class="s6" d="m118.3 5.2q3.6-1.5 7.4-2.6l3.7 2.1-7.8 7.9-1.1 1.2z"/>
						</g>
						<path id="&lt;Path&gt;" class="s3" d="m100.4 21.9l0.5 11.8-0.5 0.5v-6.6-4.3z"/>
						<g id="&lt;Group&gt;">
							<path id="&lt;Path&gt;" class="s6" d="m100.4 17.9v-0.3q1.8-1.8 3.7-3.5l7.7 8.5-0.2 0.3-10.7 10.8-0.5-11.8z"/>
						</g>
						<g id="&lt;Group&gt;">
							<path id="&lt;Path&gt;" class="s10" d="m104.1 14.1q1.6-1.3 3.2-2.5l12 3.4-5.2 5.2-2.3 2.4z"/>
						</g>
						<path id="&lt;Path&gt;" class="s23" d="m42.1 53.8l7.7-2.8 1.3-0.5 10.2-3.9 0.9 2.4-20.1 5.4z"/>
						<path id="&lt;Path&gt;" class="s14" d="m61.3 46.6l3.6-1.3 2.2-0.8 2.4-0.9-7.3 5.4z"/>
						<path id="&lt;Path&gt;" class="s24" d="m43.2 63.1l-0.5-3.7-0.6-5 20.1-5.4z"/>
						<path id="&lt;Path&gt;" class="s22" d="m69.5 43.6l0.9-0.3 3.9-1.5 13.8 5.3 3.5 18.6-29.4-16.7z"/>
						<path id="&lt;Path&gt;" class="s25" d="m88.1 47.1l6.5 2.6-3 16z"/>
						<path id="&lt;Path&gt;" class="s17" d="m43.7 67.3l-0.5-4.2 19-14.1 6.3 25.4z"/>
						<g id="&lt;Group&gt;">
							<path id="&lt;Path&gt;" class="s6" d="m91.6 65.7l-23.1 8.7-6.3-25.4z"/>
						</g>
						<path id="&lt;Path&gt;" class="s19" d="m100.4 51.9l1.7-0.6 7.9-3.1 2.5-1 4-1.5 4.4 3.3-29.3 16.7 3-16z"/>
						<path id="&lt;Path&gt;" class="s20" d="m118 45.1l4.8-1.9 3.7-1.4 2.7 1-8.3 6.2-4.4-3.3z"/>
						<path id="&lt;Path&gt;" class="s9" d="m91.6 65.7l6.3 25.5-29.4-16.8z"/>
						<path id="&lt;Path&gt;" class="s21" d="m91.6 65.7l29.3-16.7-23 42.2z"/>
						<path id="&lt;Path&gt;" class="s2" d="m129.2 42.8l1.2 0.5 3.3 1.2 1.3 0.5-14.1 4z"/>
						<g id="&lt;Group&gt;">
							<path id="&lt;Path&gt;" class="s10" d="m120.9 49l6.3 33.8-29.3 8.4z"/>
						</g>
						<path id="&lt;Path&gt;" class="s19" d="m135 45l0.9 0.3 9.8 3.7-18.5 33.8-6.3-33.8z"/>
						<g id="&lt;Group&gt;">
							<path id="&lt;Path&gt;" class="s10" d="m145.7 49l4 1.5 1.4 0.5 2.4 0.9 3.9 13.3-0.3 2.2-2.1 18.1h1l-1.1 0.6-0.8 1.1-1.1 1.3-25.8-5.7z"/>
						</g>
						<g id="&lt;Group&gt;">
							<path id="&lt;Path&gt;" class="s6" d="m153.5 51.9l5.2 1.9-0.6 5.6-0.7 5.8z"/>
						</g>
						<g id="&lt;Group&gt;">
							<path id="&lt;Path&gt;" class="s6" d="m56.1 98.8l-6.4-7.9-3-3.7-0.8-1.1-0.1-0.6-1.6-14 18 19.9z"/>
						</g>
						<g id="&lt;Group&gt;">
							<path id="&lt;Path&gt;" class="s10" d="m62.2 91.4l-18-19.9-0.5-4.1v-0.1l24.8 7.1z"/>
						</g>
						<g id="&lt;Group&gt;">
							<path id="&lt;Path&gt;" class="s10" d="m59.9 103.6l-3.8-4.8 6.1-7.4z"/>
						</g>
						<path id="&lt;Path&gt;" class="s26" d="m83.2 108.2l-21-16.8 6.3-17z"/>
						<path id="&lt;Path&gt;" class="s2" d="m83.2 108.2l-14.7-33.8 29.4 16.8z"/>
						<path id="&lt;Path&gt;" class="s7" d="m64.4 109.2l-0.3-0.5-4.2-5.1 2.3-12.2z"/>
						<path id="&lt;Path&gt;" class="s13" d="m76.5 123.5l-0.9-0.8-1-0.9-0.2-0.3-5.7-7-4.3-5.3-2.2-17.8 21 16.8z"/>
						<path id="&lt;Path&gt;" class="s14" d="m112.5 99.8l-29.3 8.4 14.7-17z"/>
						<g id="&lt;Group&gt;">
							<path id="&lt;Path&gt;" class="s6" d="m112.5 99.8l-14.6-8.6 29.3-8.4z"/>
						</g>
						<path id="&lt;Path&gt;" class="s7" d="m77.9 124.7l-1.4-1.2 6.7-15.3 26.4 28.4-5.1 4.6-0.8 0.8h-6.6l-0.8-0.8-12.6-11.3z"/>
						<g id="&lt;Group&gt;">
							<path id="&lt;Path&gt;" class="s11" d="m112.5 99.8l1.6 32.8-4.5 4-26.4-28.4z"/>
						</g>
						<g id="&lt;Group&gt;">
							<path id="&lt;Path&gt;" class="s10" d="m141.2 103.3l-4.4 5.4-1.1 1.4-23.2-10.3 14.7-17z"/>
						</g>
						<path id="&lt;Path&gt;" class="s13" d="m151.1 90.9l-9.9 12.4-14-20.5 25.8 5.7z"/>
						<path id="&lt;Path&gt;" class="s12" d="m112.5 99.8l9.1 26.1-4.5 4-3 2.7z"/>
						<g id="&lt;Group&gt;">
							<path id="&lt;Path&gt;" class="s6" d="m125.2 122.7l-2.2 2-1.4 1.2-9.1-26.1 23.2 10.3-3.5 4.4-5.7 7-0.3 0.3z"/>
						</g>
						<g id="&lt;Group&gt;">
							<path id="&lt;Path&gt;" class="s10" d="m103.7 142l-3.3 2.9-3.3-2.9z"/>
						</g>
						<g id="&lt;Group&gt;">
							<path id="&lt;Path&gt;" class="s10" d="m108.5 36.6l3.9 1.1-0.8 2.2z"/>
						</g>
						<g id="&lt;Group&gt;">
							<path id="&lt;Path&gt;" class="s10" d="m102.1 51.3l9.5-11.4-1.6 8.3z"/>
						</g>
						<path id="&lt;Path&gt;" class="s26" d="m112.4 37.7l4.7 1.4 4.4 1.3 1.3 2.8-4.8 1.9-6.4-5.2z"/>
						<path id="&lt;Path&gt;" class="s2" d="m122.8 43.2l-1.3-2.8 5 1.4z"/>
						<path id="&lt;Path&gt;" class="s7" d="m111.6 39.9l0.9 7.3-2.5 1z"/>
						<path id="&lt;Path&gt;" class="s13" d="m111.6 39.9l6.4 5.2-1.5 0.6-4 1.5z"/>
						<path id="&lt;Path&gt;" class="s23" d="m121.6 12.6l7.8-7.9 1.2-1.3 2.3 6.2z"/>
						<path id="&lt;Path&gt;" class="s14" d="m133.1 0.9l3.6 2.8 2 1.6-5.8 4.3-2.3-6.2z"/>
						<path id="&lt;Path&gt;" class="s0" d="m111.6 22.9l0.2-0.3 2.3-2.4 2.3 1.6z"/>
						<path id="&lt;Path&gt;" class="s24" d="m114.1 20.2l5.2-5.2 1.2-1.2 1.1-1.2 11.3-3-16.5 12.2z"/>
						<path id="&lt;Path&gt;" class="s22" d="m132.9 9.6l5.8-4.3 0.6 0.5 7.8 6.3 5.8 4.6 0.9 4.9z"/>
						<path id="&lt;Path&gt;" class="s25" d="m153.8 21.6l-0.9-4.9 1.6 1.2z"/>
						<path id="&lt;Path&gt;" class="s17" d="m132.9 9.6l4.5 18.2-21-6z"/>
						<g id="&lt;Group&gt;">
							<path id="&lt;Path&gt;" class="s6" d="m132.9 9.6l20.9 12-16.4 6.2z"/>
						</g>
						<path id="&lt;Path&gt;" class="s19" d="m153.8 21.6l0.7-3.7 2.4 1.9z"/>
						<path id="&lt;Path&gt;" class="s9" d="m137.4 27.8l16.4-6.2 1.9 7.3 2.4-1 2.4 9.7-10.7-6.1-3.3 1.5z"/>
						<path id="&lt;Path&gt;" class="s21" d="m163.8 25.4l0.8 0.3 3.1 1.2-6.2 11.3 0.2-0.9 0.5-2.8-1.7 3.1-2.4-9.7-2.4 1-1.9-7.3 3.1-1.8 0.1 0.2z"/>
						<path id="&lt;Path&gt;" class="s8" d="m100.9 33.7l10.7-10.8 4.8-1.1 0.7 17.3-4.7-1.4-3.9-1.1-8.1-2.4z"/>
						<g id="&lt;Group&gt;">
							<path id="&lt;Path&gt;" class="s6" d="m117.1 39.1l-0.7-17.3 15.8 17.5 1.1-0.5 1.4-0.6-4.3 5.1-1.2-0.5-2.7-1-5-1.4z"/>
						</g>
						<g id="&lt;Group&gt;">
							<path id="&lt;Path&gt;" class="s10" d="m116.4 21.8l21 6-4.1 11-1.1 0.5z"/>
						</g>
						<path id="&lt;Path&gt;" class="s26" d="m137.4 27.8l3.3 7.7 2.6-1.1 6.7 15.4-14.8-11.8h-0.2l-0.1 0.1-0.2 0.1-1.4 0.6z"/>
						<path id="&lt;Path&gt;" class="s2" d="m137.4 27.8l9.1 5.2 3.3-1.5 10.7 6.1-10.5 12.2-6.7-15.4-2.6 1.1z"/>
						<g id="&lt;Group&gt;">
							<path id="&lt;Path&gt;" class="s10" d="m160.5 37.6l1.7-3.1-0.5 2.8z"/>
						</g>
						<g id="&lt;Group&gt;">
							<path id="&lt;Path&gt;" class="s10" d="m130.4 43.3l4.3-5.1 0.2-0.1-1.2 6.4z"/>
						</g>
						<path id="&lt;Path&gt;" class="s7" d="m134.9 38.1l0.1-0.1 0.9 7.3-0.9-0.3-1.3-0.5z"/>
						<path id="&lt;Path&gt;" class="s13" d="m150 49.8l-0.3 0.7-4-1.5-9.8-3.7-0.9-7.3h0.2z"/>
						<path id="&lt;Path&gt;" class="s14" d="m161.5 38.2l-0.9 5.2-0.3 1.8 8.5 5-9.9 2.8 1.1-6.1-10 2.9 10.5-12.2z"/>
						<g id="&lt;Group&gt;">
							<path id="&lt;Path&gt;" class="s6" d="m161.5 38.2l-1-0.6 1.2-0.3z"/>
						</g>
						<path id="&lt;Path&gt;" class="s7" d="m150 49.8l1.1 1.2-1.4-0.5z"/>
						<g id="&lt;Group&gt;">
							<path id="&lt;Path&gt;" class="s11" d="m151.1 51l-1.1-1.2 10-2.9-1.1 6.1 9.9-2.8 0.6 12.1 3.6 2.8 0.4 9.9-2.3 1.4 1.1 20.9-12.9-13.8 8.2-4.9-10.4-11.2 0.3-2.2 0.7-5.8 5.7-1.6-5.1-4-5.2-1.9z"/>
						</g>
						<path id="&lt;Path&gt;" class="s19" d="m179.3 38l-1.3-7.2 4.4 1.7z"/>
						<g id="&lt;Group&gt;">
							<path id="&lt;Path&gt;" class="s6" d="m160.6 43.4l18.7-5.4-10.5 12.2-8.5-5z"/>
						</g>
						<g id="&lt;Group&gt;">
							<path id="&lt;Path&gt;" class="s10" d="m179.3 38l10.1 14.8-2.7 5.3-17.9-7.9z"/>
						</g>
						<path id="&lt;Path&gt;" class="s12" d="m168.8 50.2l5.6 16.1 2.6 2 1.3 3.8-4.9 2.9-0.4-9.9-3.6-2.8z"/>
						<path id="&lt;Path&gt;" class="s7" d="m172.2 97.3h-17.1l-0.1-7.8v-0.8-0.9l-0.1-1.7 1.1-0.6h-1l2.1-18.1 10.4 11.2-8.2 4.9z"/>
						<g id="&lt;Group&gt;">
							<path id="&lt;Path&gt;" class="s10" d="m180.3 70.9l0.1 0.6-0.6-0.3z"/>
						</g>
						<path id="&lt;Path&gt;" class="s12" d="m181.2 97.3h-9l-1.1-20.9 2.3-1.4z"/>
						<path id="&lt;Path&gt;" class="s4" d="m184.7 93.4l0.5 2.2-4 1.7z"/>
						<path id="&lt;Path&gt;" class="s17" d="m161.7 103.5l-6.4 3.7-0.1-5.5z"/>
						<g id="&lt;Group&gt;">
							<path id="&lt;Path&gt;" class="s10" d="m172.2 97.3l-10.5 6.2-6.5-1.8 0.1 5.5 0.1 5.5v1.1l-16.2 4.7 15.8-29 0.1 7.8z"/>
						</g>
						<path id="&lt;Path&gt;" class="s4" d="m161.7 103.5l-6.3 9.2-0.1-5.5z"/>
						<path id="&lt;Path&gt;" class="s25" d="m180.3 111.4l-2.7 1.2-15.9-9.1 10.5-6.2z"/>
						<path id="&lt;Path&gt;" class="s15" d="m181.2 97.3l1.1 13.3-2 0.8-8.1-14.1z"/>
						<g id="&lt;Group&gt;">
							<path id="&lt;Path&gt;" class="s6" d="m167.5 117l-5.2 2.2-1.1 0.5-2.2 1-2.3 2.7-1.1-1.2-0.1-4.3-3.6 4.2-5.5-0.1-1.3-0.1-5.9-3.4 16.2-4.7v-1.1l6.3-9.2z"/>
						</g>
						<path id="&lt;Path&gt;" class="s18" d="m177.6 112.6l-10.1 4.4-5.8-13.5z"/>
						<path id="&lt;Path&gt;" class="s16" d="m185.2 95.6l0.6 3-4.6-1.3z"/>
						<path id="&lt;Path&gt;" class="s19" d="m155 87.8v0.9l-3.9 2.2 1.9-2.4 1.1-1.3z"/>
						<path id="&lt;Path&gt;" class="s20" d="m154.9 86.1l0.1 1.7-0.9-0.6z"/>
						<path id="&lt;Path&gt;" class="s9" d="m139.2 118.5l-7-4 3.5-4.4 1.1-1.4z"/>
						<path id="&lt;Path&gt;" class="s21" d="m139.2 118.5l-2.4-9.8 4.4-5.4 9.9-12.4 3.9-2.2v0.8z"/>
						<path id="&lt;Path&gt;" class="s2" d="m139.2 118.5l-2.9 3.3-7-0.2h-1l-1.4-0.1h-0.4l5.7-7z"/>
						<path id="&lt;Path&gt;" class="s14" d="m139.2 118.5l5.9 3.4-8.8-0.1z"/>
						<g id="&lt;Group&gt;">
							<path id="&lt;Path&gt;" class="s10" d="m155.6 122.2l-3.7-0.1 3.6-4.2z"/>
						</g>
						<path id="&lt;Path&gt;" class="s17" d="m128.3 121.6l0.1 0.4-1.5-0.5z"/>
						<g id="&lt;Group&gt;">
							<path id="&lt;Path&gt;" class="s6" d="m129.3 121.6l-0.9 0.4-0.1-0.4z"/>
						</g>
						<path id="&lt;Path&gt;" class="s9" d="m149.3 133.9l-20.9-11.9 0.9-0.4 7 0.2 8.8 0.1 1.3 0.1z"/>
						<path id="&lt;Path&gt;" class="s21" d="m151.9 122.1l3.7 0.1-0.1 0.6-6.2 11.1-2.9-11.9z"/>
						<g id="&lt;Group&gt;">
							<path id="&lt;Path&gt;" class="s10" d="m128.4 122l-2.9 7.8 0.6-5.1 0.3-2.8 0.1-0.4h0.4z"/>
						</g>
						<path id="&lt;Path&gt;" class="s26" d="m138.9 146.1l-14.1-11.2-0.2 1.8-4.7-3.7 3.1-8.3 2.2-2 0.9 2-0.6 5.1 2.9-7.8z"/>
						<path id="&lt;Path&gt;" class="s2" d="m149.3 133.9l-10.4 12.2-10.5-24.1z"/>
						<path id="&lt;Path&gt;" class="s7" d="m122.7 152.5l1.7-14.1 1.8 14.7z"/>
						<path id="&lt;Path&gt;" class="s13" d="m138.9 146.1l-3.7 8.4-7.2-1.1-1.1-0.2-2.2 5.2-1.6-4.7-0.4-1.2 3.5 0.6-1.8-14.7-1.7 14.1h-0.2l-0.2-0.1-2.4-19.4 4.7 3.7 0.2-1.8z"/>
						<path id="&lt;Path&gt;" class="s14" d="m149.3 133.9l3.5 2.1-0.4 1.8-0.5 2.4-0.5 2.3-12.5 3.6z"/>
						<g id="&lt;Group&gt;">
							<path id="&lt;Path&gt;" class="s6" d="m149.3 133.9l4.1-1.1 1.2-5.9 4.1-1.2 1 1.2-6.6 7.6-0.3 1.5z"/>
						</g>
						<path id="&lt;Path&gt;" class="s7" d="m138.9 146.1l9.7 10.4-13.4-2z"/>
						<path id="&lt;Path&gt;" class="s9" d="m126.2 121.8l0.3-0.3-0.1 0.4z"/>
						<g id="&lt;Group&gt;">
							<path id="&lt;Path&gt;" class="s6" d="m119.9 133l-12.1 14.5-3.1-1.1-0.2-5.2 5.1-4.6 4.5-4 3-2.7z"/>
						</g>
						<g id="&lt;Group&gt;">
							<path id="&lt;Path&gt;" class="s10" d="m123 124.7l-3.1 8.3-2.8-3.1 4.5-4z"/>
						</g>
						<g id="&lt;Group&gt;">
							<path id="&lt;Path&gt;" class="s10" d="m119.9 133l-3.3 17.5 5.7 1.9 0.2 0.1-0.1 0.5-0.7 1.2-3.3 5.7-8-4.7 4.4-5.3-4.7-1.7-2.3-0.7z"/>
						</g>
						<path id="&lt;Path&gt;" class="s2" d="m126.1 124.7l-0.9-2 1-0.9 0.2 0.1z"/>
						<path id="&lt;Path&gt;" class="s7" d="m119.9 133l2.4 19.4-5.7-1.9z"/>
						<g id="&lt;Group&gt;">
							<path id="&lt;Path&gt;" class="s6" d="m79.1 154.2l-1.4-0.5 0.4-1.2 0.4 0.7z"/>
						</g>
						<path id="&lt;Path&gt;" class="s3" d="m81.5 169.4l-5.8-9.9 1-2.8 1-3 1.4 0.5 1.1 1.8 6.9 11.8z"/>
						<path id="&lt;Path&gt;" class="s9" d="m99.8 189.6l0.6 1q-0.3-0.1-0.8-0.4z"/>
						<g id="&lt;Group&gt;">
							<path id="&lt;Path&gt;" class="s10" d="m93.9 187c-5.3-3.1-13.3-8.1-22.5-14.9l4.3-12.6 5.8 9.9z"/>
						</g>
						<path id="&lt;Path&gt;" class="s26" d="m76.7 156.7l-10.8 8.6 5.1-11.7 3.6-0.5 3.5-0.6-0.4 1.2z"/>
						<path id="&lt;Path&gt;" class="s2" d="m65.9 165.3l-8.2-9.6 7.9-1.2 5.4-0.9z"/>
						<path id="&lt;Path&gt;" class="s13" d="m71.4 172.1q-1.9-1.4-3.8-2.8l-1.7-4 10.8-8.6-1 2.8z"/>
						<path id="&lt;Path&gt;" class="s14" d="m60.8 163.9q-4.2-3.5-8.6-7.3l0.1-0.1 5.4-0.8 8.2 9.6z"/>
						<path id="&lt;Path&gt;" class="s7" d="m67.6 169.3q-1.5-1.2-3.1-2.5l1.4-1.5z"/>
						<g id="&lt;Group&gt;">
							<path id="&lt;Path&gt;" class="s11" d="m64.5 166.8q-1.8-1.4-3.7-2.9l5.1 1.4z"/>
						</g>
						<g id="&lt;Group&gt;">
							<path id="&lt;Path&gt;" class="s10" d="m37.9 142.5q-2.7-2.9-5.2-5.9-1.3-1.5-2.5-3l9.5-13.9 2.1 1 2.4 2.7 1-1.2 0.2 0.6 6.1 11.1-4.1-1.1-1.2-5.9-4-1.2-1 1.2 6.6 7.6 0.2 1.5 0.4 1.8z"/>
						</g>
						<path id="&lt;Path&gt;" class="s12" d="m49.2 153.7q-1.9-1.7-3.8-3.5l3.5-10 0.5 2.3 0.3 1.4z"/>
						<g id="&lt;Group&gt;">
							<path id="&lt;Path&gt;" class="s6" d="m45.4 150.2q-3.8-3.7-7.5-7.7l10.5-4.7 0.5 2.4z"/>
						</g>
						<g id="&lt;Group&gt;">
							<path id="&lt;Path&gt;" class="s10" d="m22.1 122.9q-3-4.3-5.7-8.8l1.2-4 5.5 2.4 0.7 0.3 2 0.9h19.6l0.4-23.3v-0.9l15.9 29-16.3-4.7-0.1 2.8-7.8 2.2 1 0.4z"/>
						</g>
						<g id="&lt;Group&gt;">
							<path id="&lt;Path&gt;" class="s6" d="m16.4 114.1q-1.7-2.9-3.3-5.9l1.4-7 2.4-11.9 0.5-2.6 7.1-3.1-9 25.7 2.1 0.8z"/>
						</g>
						<g id="&lt;Group&gt;">
							<path id="&lt;Path&gt;" class="s6" d="m45.2 122.2l-1 1.2-2.4-2.7z"/>
						</g>
						<path id="&lt;Path&gt;" class="s13" d="m30.2 133.6q-4.3-5.1-8.1-10.7l16.4-3.7 1.2 0.5z"/>
						<path id="&lt;Path&gt;" class="s14" d="m42.7 59.4l-5.6-1.6 5-4v0.6z"/>
						<path id="&lt;Path&gt;" class="s7" d="m38.9 81.9l-5.6-3.3 10.4-11.2 0.5 4.1 1.6 14h-1z"/>
						<g id="&lt;Group&gt;">
							<path id="&lt;Path&gt;" class="s11" d="m33.3 78.6l-0.2-0.1-5.1-3.1-0.6-0.4 0.5-9.9 3.5-2.8 0.6-12.1 9.9 2.8-1-6.1 9.9 2.9-1 1.2-7.7 2.8-5 4 5.6 1.6 0.5 3.7 0.5 4.2v0.1z"/>
						</g>
						<path id="&lt;Path&gt;" class="s12" d="m22.5 72.1l1.3-3.8 2.6-2 5.6-16.1-0.6 12.1-3.5 2.8-0.5 9.9z"/>
						<g id="&lt;Group&gt;">
							<path id="&lt;Path&gt;" class="s10" d="m45.8 85.5l0.1 0.6-1.1-0.6z"/>
						</g>
						<path id="&lt;Path&gt;" class="s4" d="m2.2 77.8q-0.5-2.5-0.9-5l3.2-1.9h-3.5q-0.4-3-0.5-6.2l4.5-2.7 8.1 8.9h-4.3l9.7 10.6-0.7 3.3z"/>
						<path id="&lt;Path&gt;" class="s15" d="m1.3 72.8q-0.1-0.9-0.3-1.9h3.5z"/>
						<g id="&lt;Group&gt;">
							<path id="&lt;Path&gt;" class="s11" d="m8.1 97.5q-1-2.6-1.9-5.2l10.7-3-2.4 11.9z"/>
						</g>
						<path id="&lt;Path&gt;" class="s16" d="m6.2 92.3q-2.5-7-4-14.5l15.6 7-0.4 1.9-0.5 2.6z"/>
						<path id="&lt;Path&gt;" class="s17" d="m13.1 108.2q-2.7-5.2-5-10.7l6.4 3.7z"/>
						<g id="&lt;Group&gt;">
							<path id="&lt;Path&gt;" class="s10" d="m2.7 42q0.6-2 1.3-4l8-3.1 3.5-1.3 5.7-19.7q2.9-2.5 6.1-4.5l8.9 16.3-3.1 1.2 6.2 11.3 0.9 5.2-18.7-5.4 1.4-7.2-4.4 1.7 3 5.5-15.7 3.5-0.1-0.1z"/>
						</g>
						<g id="&lt;Group&gt;">
							<path id="&lt;Path&gt;" class="s10" d="m5 62l6.4-9.3 0.1 0.1 10-14.8 10.5 12.2-17.9 7.9v-0.1z"/>
						</g>
						<path id="&lt;Path&gt;" class="s13" d="m0.4 54.1c0.4-4.2 1.1-8.2 2.3-12.1l3-0.6 0.1 0.1 15.7-3.5-10 14.8-0.1-0.1-6.4 9.3z"/>
						<path id="&lt;Path&gt;" class="s2" d="m0.3 60.7c0-0.7 0-1.3 0-2q0-2.3 0.1-4.6l4.6 7.9z"/>
						<path id="&lt;Path&gt;" class="s15" d="m0.5 64.7c-0.1-1.3-0.2-2.7-0.2-4l4.7 1.3z"/>
						<path id="&lt;Path&gt;" class="s19" d="m27.3 9.4c0.4-0.2 0.7-0.4 1-0.6l2.9 5.4 5.3 10.2 0.5 1-0.8 0.3z"/>
						<g id="&lt;Group&gt;">
							<path id="&lt;Path&gt;" class="s6" d="m9.4 27.4c3.2-5.1 7.2-9.7 11.8-13.5l-5.7 19.7-3.5 1.3z"/>
						</g>
						<path id="&lt;Path&gt;" class="s20" d="m4 38c1.5-3.8 3.3-7.3 5.4-10.6l2.6 7.5z"/>
						<g id="&lt;Group&gt;">
							<path id="&lt;Path&gt;" class="s6" d="m62.6 0.3q2.6 0.2 5.1 0.6l-8.3 6.6-1.6-1.9z"/>
						</g>
						<g id="&lt;Group&gt;">
							<path id="&lt;Path&gt;" class="s10" d="m55.9 0.3q1.4-0.1 2.9-0.1 1.9 0 3.8 0.1l-4.8 5.3z"/>
						</g>
						<g id="&lt;Group&gt;">
							<path id="&lt;Path&gt;" class="s10" d="m57.8 5.6l1.6 1.9-1.1 0.9z"/>
						</g>
						<path id="&lt;Path&gt;" class="s26" d="m50.1 0.8q2.8-0.4 5.8-0.5l1.9 5.3-15 11.9z"/>
						<path id="&lt;Path&gt;" class="s2" d="m50.1 0.8l-7.3 16.7-9.8-11.3c5.3-2.6 11-4.4 17.1-5.4z"/>
						<path id="&lt;Path&gt;" class="s7" d="m57.8 5.6l0.5 2.8-0.9 0.7z"/>
						<path id="&lt;Path&gt;" class="s13" d="m42.8 17.5l15-11.9-0.4 3.5-2.1 1.6-1.3 1.1-2.1 1.7-8.1 6.4z"/>
						<path id="&lt;Path&gt;" class="s14" d="m28.3 8.8q2.3-1.4 4.7-2.6l9.8 11.3-11.6-3.3z"/>
						<path id="&lt;Path&gt;" class="s7" d="m42.8 17.5l1 2.4-0.7 0.6-6.1 4.9-0.5-1z"/>
						<g id="&lt;Group&gt;">
							<path id="&lt;Path&gt;" class="s11" d="m42.8 17.5l-6.3 6.9-5.3-10.2z"/>
						</g>
						<path id="&lt;Path&gt;" class="s23" d="m89.5 8.9c0.7 0.4 1.3 0.9 2 1.3l-2.2-0.6z"/>
						<path id="&lt;Path&gt;" class="s14" d="m84.7 6.3q2.5 1.2 4.8 2.6l-0.2 0.7z"/>
						<path id="&lt;Path&gt;" class="s24" d="m91.5 10.2c3.2 2.2 6.2 4.6 8.9 7.4v0.3l-11.1-8.3z"/>
						<path id="&lt;Path&gt;" class="s25" d="m67.7 0.9q2.2 0.3 4.3 0.8l-0.6 3z"/>
						<path id="&lt;Path&gt;" class="s17" d="m89.3 9.6l11.1 8.3v4 1.4l-8.4 2.4-0.4-0.5-4.5-4.6-0.5-0.4z"/>
						<g id="&lt;Group&gt;">
							<path id="&lt;Path&gt;" class="s6" d="m80.9 14.4l8.4-4.8-2.7 10.6-2.6-2.7z"/>
						</g>
						<g id="&lt;Group&gt;">
							<path id="&lt;Path&gt;" class="s6" d="m100.4 27.6v6.6l-3.1-3.1z"/>
						</g>
						<g id="&lt;Group&gt;">
							<path id="&lt;Path&gt;" class="s10" d="m92 25.7l8.4-2.4v4.3l-3.1 3.5z"/>
						</g>
						<g id="&lt;Group&gt;">
							<path id="&lt;Path&gt;" class="s6" d="m100.4 34.2l8.1 2.4 3.1 3.3-9.5 11.4-1.7 0.6-1.7-0.6-9.4-11.4 3-3.3z"/>
						</g>
						<g id="&lt;Group&gt;">
							<path id="&lt;Path&gt;" class="s10" d="m88.4 37.7l2.7-0.8 1.2-0.3-3 3.3z"/>
						</g>
						<g id="&lt;Group&gt;">
							<path id="&lt;Path&gt;" class="s10" d="m89.3 39.9l9.4 11.4-7.9-3.1z"/>
						</g>
						<path id="&lt;Path&gt;" class="s26" d="m81 39.9l7.4-2.2 0.9 2.2-6.5 5.2-4.8-1.9 1.3-2.8z"/>
						<path id="&lt;Path&gt;" class="s2" d="m74.4 41.8h0.1l2.5-0.8 2.3-0.6-1.3 2.8z"/>
						<path id="&lt;Path&gt;" class="s7" d="m89.3 39.9l1.5 8.3-2.5-1z"/>
						<path id="&lt;Path&gt;" class="s13" d="m89.3 39.9l-1 7.3-5.5-2.1z"/>
						<path id="&lt;Path&gt;" class="s22" d="m67.7 0.9l3.7 3.8 0.6-3c4.5 1 8.7 2.6 12.7 4.6l4.6 3.3-8.4 4.8-6.5-6.7-2.5-2.6-17.3 9.9 0.7-4.3 2.1-1.6 0.9-0.7 1.1-0.9z"/>
						<path id="&lt;Path&gt;" class="s25" d="m55.3 10.7l-0.7 4.3-0.6-3.2z"/>
						<path id="&lt;Path&gt;" class="s17" d="m74.4 7.7l6.5 6.7 3.1 3.1-13 3.7z"/>
						<g id="&lt;Group&gt;">
							<path id="&lt;Path&gt;" class="s6" d="m54.6 15l17.3-9.9 2.5 2.6-3.4 13.5z"/>
						</g>
						<path id="&lt;Path&gt;" class="s19" d="m54.6 15l-2.7-1.5 2.1-1.7z"/>
						<path id="&lt;Path&gt;" class="s9" d="m54.6 15l16.4 6.2-18.9 10.8-1.1-0.5-10.6 6.1 2.4-9.7 5.8 2.6 1.9 0.8z"/>
						<path id="&lt;Path&gt;" class="s21" d="m54.6 15l-4.1 16.3-1.9-0.8-5.5-10 0.7-0.6 8.1-6.4z"/>
						<g id="&lt;Group&gt;">
							<path id="&lt;Path&gt;" class="s10" d="m37 25.4l6.1-4.9 5.5 10-5.8-2.6z"/>
						</g>
						<path id="&lt;Path&gt;" class="s3" d="m91.6 25.2l0.4 0.5 5.3 5.4 3.1 3.1-8.1 2.4-1.2 0.3z"/>
						<g id="&lt;Group&gt;">
							<path id="&lt;Path&gt;" class="s6" d="m87.1 20.6l4.5 4.6-0.5 11.7-2.7 0.8-7.4 2.2-5.5-6.6z"/>
						</g>
						<g id="&lt;Group&gt;">
							<path id="&lt;Path&gt;" class="s10" d="m71 21.2l13-3.7 2.6 2.7 0.5 0.4-11.6 12.7z"/>
						</g>
						<g id="&lt;Group&gt;">
							<path id="&lt;Path&gt;" class="s10" d="m75.5 33.3l5.5 6.6-1.7 0.5-2.3 0.6z"/>
						</g>
						<path id="&lt;Path&gt;" class="s26" d="m71 21.2l4.5 12.1-7.2 5.8-2.2-0.9-0.2-0.1-0.1-0.1h-0.2l-14.8 11.8 6.7-15.4 6.5 2.9z"/>
						<path id="&lt;Path&gt;" class="s7" d="m75.5 33.3l1.5 7.7-2.5 0.8z"/>
						<path id="&lt;Path&gt;" class="s13" d="m68.3 39.1l7.2-5.8-1 8.5h-0.1z"/>
						<g id="&lt;Group&gt;">
							<path id="&lt;Path&gt;" class="s10" d="m40.4 37.6l-1.3-0.3-0.5-2.8z"/>
						</g>
						<g id="&lt;Group&gt;">
							<path id="&lt;Path&gt;" class="s6" d="m66.1 38.2l2.2 0.9 6.1 2.7h-0.1l-3.9 1.5z"/>
						</g>
						<g id="&lt;Group&gt;">
							<path id="&lt;Path&gt;" class="s10" d="m65.9 38.1l0.2 0.1 4.3 5.1-0.9 0.3-2.4 0.9z"/>
						</g>
						<path id="&lt;Path&gt;" class="s2" d="m40.4 37.6l10.6-6.1 1.1 0.5 18.9-10.8-7 16.1-6.5-2.9-6.7 15.4z"/>
						<path id="&lt;Path&gt;" class="s7" d="m65.8 38l0.1 0.1 1.2 6.4-2.2 0.8z"/>
						<path id="&lt;Path&gt;" class="s13" d="m50.8 49.8l14.8-11.8h0.2l-0.9 7.3-3.6 1.3-10.2 3.9z"/>
						<path id="&lt;Path&gt;" class="s14" d="m40.2 43.4l-0.9-5.2 1.1-0.6 10.4 12.2-9.9-2.9 1 6.1-9.9-2.8 8.5-5z"/>
						<g id="&lt;Group&gt;">
							<path id="&lt;Path&gt;" class="s6" d="m39.3 38.2l-0.2-0.9 1.3 0.3z"/>
						</g>
						<path id="&lt;Path&gt;" class="s7" d="m50.8 49.8l0.3 0.7-1.3 0.5z"/>
						<path id="&lt;Path&gt;" class="s21" d="m39.3 38.2l-6.2-11.3 3.1-1.2 0.8-0.3 5.8 2.5-2.4 9.7-1.8-3.1 0.5 2.8z"/>
						<path id="&lt;Path&gt;" class="s19" d="m21.5 38l-3-5.5 4.4-1.7z"/>
						<g id="&lt;Group&gt;">
							<path id="&lt;Path&gt;" class="s6" d="m21.5 38l18.7 5.4 0.3 1.8-8.5 5z"/>
						</g>
						<g id="&lt;Group&gt;">
							<path id="&lt;Path&gt;" class="s10" d="m28 75.4l-7.9-2.3 0.5-2.2 1.9 1.2 4.9 2.9z"/>
						</g>
						<path id="&lt;Path&gt;" class="s26" d="m45.8 88.7v0.6l-0.3 0.3z"/>
						<path id="&lt;Path&gt;" class="s2" d="m45.5 89.6l-6.6-7.7 5.9 3.6 1.1 0.6v1.7l-0.1 0.9z"/>
						<path id="&lt;Path&gt;" class="s13" d="m45.8 89.5v0.9l-0.3-0.8 0.3-0.3z"/>
						<path id="&lt;Path&gt;" class="s14" d="m24.5 83.6l8.6-5.1 0.2 0.1 5.6 3.3 6.6 7.7z"/>
						<g id="&lt;Group&gt;">
							<path id="&lt;Path&gt;" class="s6" d="m24.5 83.6l-5.2-6.1-0.8 4-9.7-10.6h4.3l-8.1-8.9 9.1-4v0.1l17.9-7.9-5.6 16.1-2.6 2-1.3 3.8-1.9-1.2-0.5 2.2 7.9 2.3 5.1 3.1z"/>
						</g>
						<path id="&lt;Path&gt;" class="s7" d="m45.8 90.4l-0.4 23.3h-19.6l-2-0.9 21.7-23.2z"/>
						<g id="&lt;Group&gt;">
							<path id="&lt;Path&gt;" class="s11" d="m23.8 112.8l-0.7-0.3 1.4-28.9 21 6z"/>
						</g>
						<g id="&lt;Group&gt;">
							<path id="&lt;Path&gt;" class="s10" d="m24.5 83.6l-7.1 3.1 0.4-1.9 0.7-3.3 0.8-4z"/>
						</g>
						<path id="&lt;Path&gt;" class="s12" d="m23.1 112.5l-5.5-2.4-2.1-0.8 9-25.7z"/>
						<path id="&lt;Path&gt;" class="s17" d="m45.2 122.2l-3.4-1.5-2.1-1-1.2-0.5-1-0.4 7.8-2.2v1.3z"/>
						<path id="&lt;Path&gt;" class="s19" d="m49.7 90.9l-3.9-2.2 0.1-0.9 0.8-0.6z"/>
						<path id="&lt;Path&gt;" class="s20" d="m45.9 86.1l0.8 1.1-0.8 0.6z"/>
						<path id="&lt;Path&gt;" class="s9" d="m61.7 118.5l2.4-9.8 0.3 0.5 4.3 5.3z"/>
						<path id="&lt;Path&gt;" class="s21" d="m61.7 118.5l-15.9-29v-0.2-0.6l3.9 2.2 6.4 7.9 3.8 4.8 4.2 5.1z"/>
						<path id="&lt;Path&gt;" class="s2" d="m61.7 118.5l7-4 5.7 7h-0.5l-1.3 0.1h-1.1l-7 0.2z"/>
						<path id="&lt;Path&gt;" class="s14" d="m61.7 118.5l2.8 3.3-8.8 0.1z"/>
						<g id="&lt;Group&gt;">
							<path id="&lt;Path&gt;" class="s6" d="m45.3 116.6l0.1-2.8 16.3 4.7-6 3.4-1.3 0.1-5.4 0.1-3.7-4.2z"/>
						</g>
						<g id="&lt;Group&gt;">
							<path id="&lt;Path&gt;" class="s10" d="m49 122.1l-3.8 0.1 0.1-4.3z"/>
						</g>
						<path id="&lt;Path&gt;" class="s17" d="m72.5 122l0.1-0.4 1.3-0.1z"/>
						<g id="&lt;Group&gt;">
							<path id="&lt;Path&gt;" class="s6" d="m72.6 121.6l-0.1 0.4-1-0.4z"/>
						</g>
						<path id="&lt;Path&gt;" class="s9" d="m51.5 133.9l2.9-11.9 1.3-0.1 8.8-0.1 7-0.2 1 0.4z"/>
						<path id="&lt;Path&gt;" class="s21" d="m51.5 133.9l-6.1-11.1-0.2-0.6 3.8-0.1 5.4-0.1z"/>
						<g id="&lt;Group&gt;">
							<path id="&lt;Path&gt;" class="s10" d="m74.7 124.7l0.7 5.1-2.9-7.8 1.4-0.5h0.5v0.4z"/>
						</g>
						<path id="&lt;Path&gt;" class="s26" d="m62 146.1l10.5-24.1 2.9 7.8-0.7-5.1 0.9-2 0.9 0.8 1.4 1.2 3 8.3-4.7 3.7-0.2-1.8z"/>
						<path id="&lt;Path&gt;" class="s2" d="m62 146.1l-10.5-12.2 21-11.9z"/>
						<path id="&lt;Path&gt;" class="s7" d="m78.1 152.5l-3.5 0.6 1.8-14.7z"/>
						<path id="&lt;Path&gt;" class="s13" d="m62 146.1l14-11.2 0.2 1.8 4.7-3.7-2.4 19.4-0.4 0.1-1.7-14.1-1.8 14.7-3.6 0.5-5.4 0.9z"/>
						<path id="&lt;Path&gt;" class="s14" d="m62 146.1l-12.6-3.6-0.5-2.3-0.5-2.4-0.4-1.8 3.5-2.1z"/>
						<g id="&lt;Group&gt;">
							<path id="&lt;Path&gt;" class="s6" d="m48 136l-0.2-1.5-6.6-7.6 1-1.2 4 1.2 1.2 5.9 4.1 1.1z"/>
						</g>
						<path id="&lt;Path&gt;" class="s7" d="m57.7 155.7l-5.4 0.8 9.7-10.4 3.6 8.4z"/>
						<g id="&lt;Group&gt;">
							<path id="&lt;Path&gt;" class="s11" d="m52.3 156.5l-0.1 0.1q-1.5-1.4-3-2.9l0.5-9.8-0.3-1.4 12.6 3.6z"/>
						</g>
						<path id="&lt;Path&gt;" class="s9" d="m74.4 121.9v-0.4l0.2 0.3z"/>
						<path id="&lt;Path&gt;" class="s3" d="m100.4 144.9l-4.3 1.5 0.2-5.2 0.8 0.8z"/>
						<g id="&lt;Group&gt;">
							<path id="&lt;Path&gt;" class="s6" d="m80.9 133l2.8-3.1 12.6 11.3-0.2 5.2-3.1 1.1z"/>
						</g>
						<g id="&lt;Group&gt;">
							<path id="&lt;Path&gt;" class="s10" d="m80.9 133l-3-8.3 5.8 5.2z"/>
						</g>
						<g id="&lt;Group&gt;">
							<path id="&lt;Path&gt;" class="s10" d="m80.9 133l12.1 14.5-3.7 1.2 0.1 0.5-0.7-0.3-4.5 1.6z"/>
						</g>
						<path id="&lt;Path&gt;" class="s2" d="m75.6 122.7l-0.9 2-0.3-2.8 0.2-0.1z"/>
						<path id="&lt;Path&gt;" class="s7" d="m78.5 152.4l2.4-19.4 3.3 17.5z"/>
					</g>
					<path id="&lt;Path&gt;" class="s27" d="m158.7 53.8l-3.8 32.3-28.4 35.4-26.1 23.4-26-23.4-28.5-35.4-3.8-32.3 32.2-12 26.1 10.1 26.1-10.1z"/>
				</g>
			</g>
		</g>
	</g>
</svg>