<svg version="1.2" xmlns="http://www.w3.org/2000/svg" viewBox="0 0 176 176" width="176" height="176">
	<title>121-ai</title>
	<defs>
		<linearGradient id="g1" x1="155.7" y1="80.4" x2="103" y2="167" gradientUnits="userSpaceOnUse">
			<stop offset="0" stop-color="#ffffff"/>
			<stop offset="1" stop-color="#000000"/>
		</linearGradient>
	</defs>
	<style>
		.s0 { fill: #eff7f9 } 
		.s1 { fill: #f0f7fb } 
		.s2 { fill: #304350 } 
		.s3 { fill: #7a8694 } 
		.s4 { fill: #dee6e8 } 
		.s5 { fill: #b6c1ce } 
		.s6 { fill: #75746b } 
		.s7 { fill: #182631 } 
		.s8 { fill: #ffffff } 
		.s9 { fill: #e3d6c0 } 
		.s10 { fill: #444950 } 
		.s11 { fill: #a3b1bc } 
		.s12 { fill: #e5edf0 } 
		.s13 { fill: #f6fbfb } 
		.s14 { fill: #c6ced0 } 
		.s15 { fill: #d1dadf } 
		.s16 { fill: #9dabb9 } 
		.s17 { fill: #525a66 } 
		.s18 { fill: #475875 } 
		.s19 { fill: #e1ebf0 } 
		.s20 { fill: #808890 } 
		.s21 { fill: #f3f6f1 } 
		.s22 { fill: #e7f0f4 } 
		.s23 { fill: #4a4d53 } 
		.s24 { fill: #c2cbd4 } 
		.s25 { fill: #98a4b1 } 
		.s26 { fill: #cbd5dc } 
		.s27 { fill: #474a52 } 
		.s28 { fill: #e1e6e5 } 
		.s29 { mix-blend-mode: screen;fill: url(#g1) } 
	</style>
	<g id="Layer 1">
		<g id="&lt;Group&gt;">
			<g id="&lt;Group&gt;">
				<g id="&lt;Group&gt;">
					<g id="&lt;Group&gt;">
						<g id="&lt;Group&gt;">
							<path id="&lt;Path&gt;" class="s0" d="m111.1 152.6l2.5-2.4 4.7-0.1h2.6l-6.4 2.3-0.4-0.9z"/>
						</g>
						<g id="&lt;Group&gt;">
							<path id="&lt;Path&gt;" class="s1" d="m89.2 175.2h-1.8l1.2-1.2z"/>
						</g>
						<path id="&lt;Path&gt;" class="s2" d="m89.9 175.2h-0.7l-0.6-1.2 1.1-1.1z"/>
						<g id="&lt;Group&gt;">
							<path id="&lt;Path&gt;" class="s0" d="m92.7 175.2h-2.8l-0.2-2.3 9.7-9.2 9.1 2.5z"/>
						</g>
						<path id="&lt;Path&gt;" class="s3" d="m99.4 163.7l11.7-11.1 3-1.1 0.4 0.9 0.8 2-6.8 11.8z"/>
						<path id="&lt;Path&gt;" class="s4" d="m102.1 175.2h-9.4l15.8-9z"/>
						<path id="&lt;Path&gt;" class="s5" d="m136.2 158l-1-8 4.5-0.1z"/>
						<path id="&lt;Path&gt;" class="s6" d="m149.3 149.8l-8.2 8.2h-4.9l3.5-8.1-4.5 0.1 1 8-6-8h1.3l3.4-7.8 7.2 7.7z"/>
						<g id="&lt;Group&gt;">
							<path id="&lt;Path&gt;" class="s0" d="m118.8 163.4h0.3l-0.2 0.1z"/>
						</g>
						<path id="&lt;Path&gt;" class="s7" d="m126.8 150.1l-7.7 13.3h-0.3l-3.5-9-0.8-2 6.4-2.3h3.1z"/>
						<path id="&lt;Path&gt;" class="s4" d="m118.9 163.5l0.2-0.1-0.2 0.2z"/>
						<g id="&lt;Group&gt;">
							<path id="&lt;Path&gt;" class="s8" d="m134.3 164.7l-10.7 10.6-21.5-0.1 6.4-9 6.8-11.8 3.5 9 0.1 0.1v0.1l0.2-0.2 7.7-13.3 2.4-0.1z"/>
						</g>
						<path id="&lt;Path&gt;" class="s9" d="m136.6 162.4l-2.3 2.3-5.1-14.7h1l6 8z"/>
						<path id="&lt;Path&gt;" class="s10" d="m140 159l-3.4 3.4-0.4-4.4z"/>
						<g id="&lt;Group&gt;">
							<path id="&lt;Path&gt;" class="s8" d="m141.1 158l-1.1 1-3.8-1z"/>
						</g>
						<path id="&lt;Path&gt;" class="s11" d="m163.9 120.7l-0.2-1.3 0.8 0.4z"/>
						<g id="&lt;Group&gt;">
							<path id="&lt;Path&gt;" class="s8" d="m163.9 120.7l0.6-0.9 5 2.2z"/>
						</g>
						<path id="&lt;Path&gt;" class="s12" d="m154.7 131.4l-5 1.5 0.1-3.1v-1.2z"/>
						<g id="&lt;Group&gt;">
							<path id="&lt;Path&gt;" class="s0" d="m163.9 120.7l-9.2 10.7-4.9-2.8 0.1-3.9z"/>
						</g>
						<g id="&lt;Group&gt;">
							<path id="&lt;Path&gt;" class="s1" d="m155.3 143.9l-6 5.9-7.2 0.1-7.2-7.7 14.7-4.2 0.1-3.3v-1.8l5-1.5z"/>
						</g>
						<g id="&lt;Group&gt;">
							<path id="&lt;Path&gt;" class="s8" d="m169.9 129.4l-6.1 6.1-9.1-4.1 9.2-10.7z"/>
						</g>
						<path id="&lt;Path&gt;" class="s2" d="m158.1 141.1l-2.8 2.8-0.6-12.5z"/>
						<g id="&lt;Group&gt;">
							<path id="&lt;Path&gt;" class="s0" d="m163.8 135.5l-5.7 5.6-3.4-9.7z"/>
						</g>
						<g id="&lt;Group&gt;">
							<path id="&lt;Path&gt;" class="s8" d="m155.4 115.4l-0.6 0.2 0.3 0.1 0.3-0.3 0.3 0.6 8 3.4 0.2 1.3-14 4-0.1 3.9v1.2l-5.7 1.6 5.9-10.7 0.1-3.2 1.7-3.2-1.6-0.7 0.4-0.4 3.6-3.7z"/>
						</g>
						<path id="&lt;Path&gt;" class="s11" d="m164.1 99.4l-8.7 16-1.2-5.9 0.5-0.5 4.5-4.5 4.8-4.9z"/>
						<path id="&lt;Path&gt;" class="s13" d="m175.2 88.1v2.3l-1.8-0.5z"/>
						<g id="&lt;Group&gt;">
							<path id="&lt;Path&gt;" class="s8" d="m175.1 107l-0.1 12.8-19.6-4.4 8.7-16 0.3-0.3 0.6-0.6 5.9-6z"/>
						</g>
						<g id="&lt;Group&gt;">
							<path id="&lt;Path&gt;" class="s0" d="m175.2 90.4l-0.1 16.6-4.2-14.5 2.5-2.6z"/>
						</g>
						<g id="&lt;Group&gt;">
							<path id="&lt;Path&gt;" class="s0" d="m154.8 115.6l0.6-0.2-0.3 0.3z"/>
						</g>
						<path id="&lt;Path&gt;" class="s5" d="m175 119.8v4.5l-5.1 5.1-6-8.7 5.6 1.3-5-2.2-0.8-0.4-8-3.4-0.3-0.6z"/>
						<path id="&lt;Path&gt;" class="s14" d="m175.3 59.8v0.5l-18.7 8.3-1.4-1.4 10.3-11.4 1.8-0.7z"/>
						<path id="&lt;Path&gt;" class="s15" d="m173 52.8l2.3-0.6v7.6l-8-4.7z"/>
						<g id="&lt;Group&gt;">
							<path id="&lt;Path&gt;" class="s1" d="m160.9 73.1l10.9 3-5.2 3-2.3-2.4z"/>
						</g>
						<path id="&lt;Path&gt;" class="s16" d="m175.3 60.3v1.9l-3.5 13.9-10.9-3-3.6-3.7-0.7-0.8z"/>
						<path id="&lt;Path&gt;" class="s10" d="m171.8 76.1l-3.3 5-1.9-2z"/>
						<path id="&lt;Path&gt;" class="s17" d="m175.3 62.2l-0.1 16.6-3.4-2.7z"/>
						<path id="&lt;Path&gt;" class="s18" d="m171.8 76.1l-0.5 8-2.8-3z"/>
						<path id="&lt;Path&gt;" class="s16" d="m175.2 78.8v9.3l-0.7-0.7-3.2-3.3 0.5-8z"/>
						<path id="&lt;Path&gt;" class="s11" d="m149.9 29.2l-0.1-3 1.1 1.1z"/>
						<g id="&lt;Group&gt;">
							<path id="&lt;Path&gt;" class="s8" d="m150.9 27.3l14.3 14.4-15.2-3.4-0.1-9.1z"/>
						</g>
						<g id="&lt;Group&gt;">
							<path id="&lt;Path&gt;" class="s8" d="m150 44l9.7 14.1-0.4 0.2-9.2-4.1-0.1-7.4z"/>
						</g>
						<g id="&lt;Group&gt;">
							<path id="&lt;Path&gt;" class="s0" d="m159.3 58.3l0.4-0.2 0.7-0.3 5.1-2-10.3 11.4 1.4 1.4 0.7 0.8-2.6 3-7.1-4.2 0.8-2 4.6-1.4-2.8-2.9-0.1-7.3v-0.4z"/>
						</g>
						<path id="&lt;Path&gt;" class="s19" d="m168.1 44.6l7.2 7.3v0.3l-2.3 0.6-5.7 2.3-1.8 0.7-5.1 2z"/>
						<path id="&lt;Path&gt;" class="s20" d="m117.4 16.5l0.1-0.2 2.3 9.1h-0.7l0.6 2.5-4.4-2.6h0.4l-1.7-0.9z"/>
						<path id="&lt;Path&gt;" class="s18" d="m128.8 5l2.7 2.7-9.7 17.8h-0.8l-1.3 2.4-0.6-2.5h0.7l-2.3-9.1 2.8-6.5z"/>
						<g id="&lt;Group&gt;">
							<path id="&lt;Path&gt;" class="s8" d="m131.5 7.7l5.6 5.6 1.8 9.5-10.2 2.9-1.2-0.1-7.8 2.3 1.3-2.4h0.8z"/>
						</g>
						<path id="&lt;Path&gt;" class="s11" d="m137.1 13.3l4.5 4.5-2.7 5z"/>
						<g id="&lt;Group&gt;">
							<path id="&lt;Path&gt;" class="s8" d="m141.6 17.8l7 7.1-9.7-2.1z"/>
						</g>
						<g id="&lt;Group&gt;">
							<path id="&lt;Path&gt;" class="s8" d="m138.9 22.8l2.2 3.2h-0.6l9.5 13.8v2.9l-21-9.4 6.4-7.5 0.8 0.1z"/>
						</g>
						<path id="&lt;Path&gt;" class="s5" d="m148.6 24.9l1.2 1.3 0.1 3 0.1 9.1 15.2 3.4 2.9 2.9-7.7 13.2-0.7 0.3-9.7-14.1v-1.3-2.9l-9.5-13.8h0.6l-2.2-3.2z"/>
						<path id="&lt;Path&gt;" class="s12" d="m89.3 0.3l15.7 0.1-9.6 7.1-0.1-0.2-5.3-5.2z"/>
						<path id="&lt;Path&gt;" class="s21" d="m105 0.4h2.5l3.7 19.6-7-3.9-6.1-6-2.3-2.2-0.4-0.4z"/>
						<path id="&lt;Path&gt;" class="s22" d="m107.5 0.4h7.3l-3.6 19.6z"/>
						<path id="&lt;Path&gt;" class="s11" d="m114.8 0.4h2.6l5.3 4 1.7-3.9 4.4 4.5-8.5 4.8-2.8 6.5-0.1 0.2-6.2 3.5z"/>
						<path id="&lt;Path&gt;" class="s23" d="m117.4 0.4l7 0.1-1.7 3.9z"/>
						<path id="&lt;Path&gt;" class="s20" d="m111.2 20l0.9 3.8 1.5 1.5-4.4 1.8 1.6 6.3-7-4 0.3-0.2 4.9-2-7.7-4.4 7-2.7 0.8 0.7z"/>
						<path id="&lt;Path&gt;" class="s18" d="m111.2 20l6.2-3.5-3.4 7.9-0.4 0.9-1.5-1.5z"/>
						<path id="&lt;Path&gt;" class="s19" d="m104.9 137.2l-6.9-2 2-0.8 1.6-0.7z"/>
						<path id="&lt;Path&gt;" class="s3" d="m104.9 137.2l-3.3-3.5 1.6-0.6 1.5-0.6z"/>
						<path id="&lt;Path&gt;" class="s24" d="m97.2 143.4l-9.4-3.9 1.2-0.6 9-3.7 6.9 2z"/>
						<g id="&lt;Group&gt;">
							<path id="&lt;Path&gt;" class="s0" d="m111 129.9l-6.1 7.3-0.2-4.7z"/>
						</g>
						<g id="&lt;Group&gt;">
							<path id="&lt;Path&gt;" class="s0" d="m114.1 142.6l-10 3.6-6.9-2.8 7.7-6.2z"/>
						</g>
						<g id="&lt;Group&gt;">
							<path id="&lt;Path&gt;" class="s8" d="m114.1 142.6l-9.2-5.4 6.1-7.3 0.3-0.2 5.6-2.3z"/>
						</g>
						<path id="&lt;Path&gt;" class="s25" d="m124.3 124.3l-0.6 1.6-1.1-0.9z"/>
						<path id="&lt;Path&gt;" class="s6" d="m119.8 135.3l-4 9.6-1.7-2.3 2.8-15.2 1.8-0.8z"/>
						<path id="&lt;Path&gt;" class="s5" d="m120.9 132.6l-1.1 2.7-1.1-8.7 3.9-1.6 1.1 0.9-2.3 5.4z"/>
						<path id="&lt;Path&gt;" class="s3" d="m114.1 142.6l-3.6 6.3-6.4-2.7z"/>
						<path id="&lt;Path&gt;" class="s9" d="m115.8 144.9l-0.5 1.2-1.2-3.5z"/>
						<path id="&lt;Path&gt;" class="s20" d="m144.1 131.4l-15.5-8.8 6.7-2.8-7.4-4.2 2-4.7 0.9-2.2 1.6-3.8 0.5-0.2 3.6 14.6 1.5-0.7 2.7-1.1z"/>
						<path id="&lt;Path&gt;" class="s18" d="m150.2 113.6l1.6 0.7-1.7 3.2-0.1 3.2-5.9 10.7-3.4-13.9z"/>
						<g id="&lt;Group&gt;">
							<path id="&lt;Path&gt;" class="s0" d="m121.7 131.6l-0.8 1 0.5-1.3z"/>
						</g>
						<g id="&lt;Group&gt;">
							<path id="&lt;Path&gt;" class="s8" d="m121.7 131.6l-0.3-0.3 2.3-5.4 0.6-1.6h0.1z"/>
						</g>
						<g id="&lt;Group&gt;">
							<path id="&lt;Path&gt;" class="s8" d="m113.6 150.2l-3.1-1.3 3.6-6.3 1.2 3.5 0.5-1.2 4-9.6 1.1-2.7 0.8-1-3.4 18.5z"/>
						</g>
						<path id="&lt;Path&gt;" class="s25" d="m134.9 142.2l-13.2-10.6 2.7-7.3h-0.1l0.1-0.2 0.1 0.1 2.2-0.9z"/>
						<path id="&lt;Path&gt;" class="s19" d="m134.9 142.2l-8.2-18.9-2.2 0.9-0.1-0.1 3.5-8.5 7.4 4.2-6.7 2.8 15.5 8.8z"/>
						<path id="&lt;Path&gt;" class="s6" d="m120.9 150.1h-2.6l3.4-18.5 2.3 18.5z"/>
						<path id="&lt;Path&gt;" class="s5" d="m134.9 142.2l-3.4 7.8h-1.3-1l-2.4 0.1h-2.8l-2.3-18.5z"/>
						<path id="&lt;Path&gt;" class="s12" d="m149.7 134.7l-0.1 3.3-14.7 4.2 9.2-10.8z"/>
						<g id="&lt;Group&gt;">
							<path id="&lt;Path&gt;" class="s0" d="m149.7 132.9v1.8l-5.6-3.3 5.7-1.6z"/>
						</g>
						<path id="&lt;Path&gt;" class="s21" d="m132.8 103.9l0.1 0.8-0.4-0.2z"/>
						<path id="&lt;Path&gt;" class="s22" d="m132.9 104.7l-0.1-0.8 0.5-1.2z"/>
						<g id="&lt;Group&gt;">
							<path id="&lt;Path&gt;" class="s0" d="m132.5 104.5l0.4 0.2-0.5 0.2z"/>
						</g>
						<path id="&lt;Path&gt;" class="s11" d="m139.5 87.7l4.4 10.7-11 6.3 0.4-2z"/>
						<path id="&lt;Path&gt;" class="s18" d="m143.9 98.4l0.2 0.6 2 4.8-8.1 14.8-1.5 0.7-3.6-14.6z"/>
						<g id="&lt;Group&gt;">
							<path id="&lt;Path&gt;" class="s8" d="m150.2 61.9l2.8 2.9-4.6 1.4z"/>
						</g>
						<path id="&lt;Path&gt;" class="s12" d="m147.4 68.6l0.2-0.4 7.1 4.2-10.1 2.9 0.5-1.2z"/>
						<path id="&lt;Path&gt;" class="s6" d="m156 99h-11.9l-0.2-0.6-4.4-10.7 0.1-0.3 0.4-0.9 1.4-3.3z"/>
						<g id="&lt;Group&gt;">
							<path id="&lt;Path&gt;" class="s8" d="m157.3 69.4l3.6 3.7 3.4 3.6-9.6-4.3z"/>
						</g>
						<path id="&lt;Path&gt;" class="s2" d="m163.9 99h-7.9l-1.3-26.6z"/>
						<g id="&lt;Group&gt;">
							<path id="&lt;Path&gt;" class="s0" d="m171.3 84.1l3.2 3.3-10.6 11.6-9.2-26.6 9.6 4.3 2.3 2.4 1.9 2z"/>
						</g>
						<path id="&lt;Path&gt;" class="s14" d="m175.2 88.1l-1.8 1.8-2.5 2.6-5.9 6-1.1 0.5 10.6-11.6z"/>
						<path id="&lt;Path&gt;" class="s10" d="m146.8 104.4l-0.3 0.2-0.1-0.3z"/>
						<g id="&lt;Group&gt;">
							<path id="&lt;Path&gt;" class="s8" d="m156 99l-9.2 5.4-0.4-0.1 0.1 0.3v0.2l3.7 8.8-9.5 3.9-2.7 1.1 8.1-14.8-2-4.8z"/>
						</g>
						<path id="&lt;Path&gt;" class="s14" d="m146.8 104.4l-0.3 0.4v-0.2z"/>
						<path id="&lt;Path&gt;" class="s22" d="m156 99l3.2 5.5-4.5 4.5-7.9-4.6z"/>
						<path id="&lt;Path&gt;" class="s15" d="m163.9 99l0.1 0.6-4.8 4.9-3.2-5.5z"/>
						<g id="&lt;Group&gt;">
							<path id="&lt;Path&gt;" class="s0" d="m150.6 113.2l-0.4 0.4-3.7-8.8 0.3-0.4z"/>
						</g>
						<path id="&lt;Path&gt;" class="s17" d="m154.7 109l-0.5 0.5-3.6 3.7-3.8-8.8z"/>
						<g id="&lt;Group&gt;">
							<path id="&lt;Path&gt;" class="s1" d="m163.9 99l0.5 0.1-0.3 0.3-0.1 0.2z"/>
						</g>
						<path id="&lt;Path&gt;" class="s16" d="m163.9 99l1.1-0.5-0.6 0.6z"/>
						<path id="&lt;Path&gt;" class="s19" d="m119.7 27.9l-3.4 3.9-2-4.8-0.7-1.7 0.4-0.9 1.7 0.9h-0.4z"/>
						<path id="&lt;Path&gt;" class="s12" d="m119.7 27.9l9.3 5.4-10.8 3.1-1.9-4.6z"/>
						<g id="&lt;Group&gt;">
							<path id="&lt;Path&gt;" class="s0" d="m119.7 27.9l7.8-2.3 1.2 0.1 10.2-2.9-2.7 3.1-0.8-0.1-6.4 7.5z"/>
						</g>
						<g id="&lt;Group&gt;">
							<path id="&lt;Path&gt;" class="s1" d="m118.2 36.4l10.8-3.1 1 20.2 0.6 12.9-5.8-14-0.5-1.2-0.1-0.2-4.1-10 0.5 8.6-11.6-4.8-1.2-0.5-1.1-0.4-1.7-0.8 14.3-4-0.3-0.9z"/>
						</g>
						<path id="&lt;Path&gt;" class="s2" d="m129 33.3l8 23.1-4.3-1.8 6.2 17.8h-5.8l-2.5-6-0.6-12.9z"/>
						<g id="&lt;Group&gt;">
							<path id="&lt;Path&gt;" class="s0" d="m150 42.7v1.3 2.8l-9.8 10.9 1.4 0.6 7.3 3-10 11.1-6.2-17.8 4.3 1.8-8-23.1z"/>
						</g>
						<path id="&lt;Path&gt;" class="s14" d="m141.6 58.3l-1.4-0.6 9.8-10.9 0.1 7.4v0.4z"/>
						<path id="&lt;Path&gt;" class="s16" d="m150.2 61.9l-1.3-0.6-7.3-3 8.5-3.7z"/>
						<path id="&lt;Path&gt;" class="s14" d="m138.9 72.4l10-11.1 1.3 0.6-1.8 4.3-0.8 2-0.2 0.4z"/>
						<path id="&lt;Path&gt;" class="s22" d="m138.7 85.9l0.9 1.5-0.1 0.3z"/>
						<path id="&lt;Path&gt;" class="s15" d="m138.9 72.4l1.1 14.1-0.4 0.9-0.9-1.5-0.6-1.6-5-11.9z"/>
						<g id="&lt;Group&gt;">
							<path id="&lt;Path&gt;" class="s1" d="m138.9 72.4l6.2 1.7-0.5 1.2 10.1-2.9 1.3 26.6-14.6-15.8-1.4 3.3z"/>
						</g>
						<path id="&lt;Path&gt;" class="s16" d="m138.9 72.4l8.5-3.8-2.3 5.5z"/>
						<path id="&lt;Path&gt;" class="s3" d="m75.7 12.6l-0.3-0.1 0.1-0.2z"/>
						<g id="&lt;Group&gt;">
							<path id="&lt;Path&gt;" class="s0" d="m75.7 12.6l-0.2-0.3 12.7-12 0.3 0.3z"/>
						</g>
						<path id="&lt;Path&gt;" class="s25" d="m75.7 12.6l-1.2 0.7 0.9-0.8z"/>
						<path id="&lt;Path&gt;" class="s26" d="m88.5 0.6l-0.3-0.3h1.1l0.7 1.8 5.3 5.2-19.6 5.3z"/>
						<path id="&lt;Path&gt;" class="s27" d="m66.2 21.2l8.3-7.9 1.2-0.7 7.1 4.9z"/>
						<path id="&lt;Path&gt;" class="s28" d="m82.8 17.5l-7.1-4.9 19.6-5.3 0.1 0.2 0.4 0.4z"/>
						<path id="&lt;Path&gt;" class="s10" d="m82.8 17.5l13-9.6 2.3 2.2 3.2 12.7z"/>
						<g id="&lt;Group&gt;">
							<path id="&lt;Path&gt;" class="s0" d="m98.1 10.1l6.1 6 7 3.9-2.1 0.8-0.8-0.7-7 2.7z"/>
						</g>
						<path id="&lt;Path&gt;" class="s3" d="m61.9 25.3l4.3-4.1 16.6-3.7 0.7 16.7z"/>
						<g id="&lt;Group&gt;">
							<path id="&lt;Path&gt;" class="s0" d="m87.8 36l-4.3-1.8-0.7-16.7 13.6 14.9-6.2 2.6-1.6 0.6-0.7 0.3z"/>
						</g>
						<g id="&lt;Group&gt;">
							<path id="&lt;Path&gt;" class="s8" d="m82.8 17.5l18.5 5.3-3.4 9-1.4 0.6h-0.1z"/>
						</g>
						<path id="&lt;Path&gt;" class="s25" d="m97.9 31.8l3.4-9 2.8 6.4-0.3 0.2z"/>
						<path id="&lt;Path&gt;" class="s19" d="m101.3 22.8l7.7 4.4-4.9 2z"/>
						<path id="&lt;Path&gt;" class="s18" d="m110.8 33.4l-1.6-6.3 4.4-1.8 0.7 1.7z"/>
						<g id="&lt;Group&gt;">
							<path id="&lt;Path&gt;" class="s8" d="m110.8 33.4l3.5-6.4 2 4.8z"/>
						</g>
						<g id="&lt;Group&gt;">
							<path id="&lt;Path&gt;" class="s8" d="m87.8 36l0.1-0.1v0.2z"/>
						</g>
						<path id="&lt;Path&gt;" class="s25" d="m90.2 35l6.2-2.6h0.1l3.8 8.8-4.9-2z"/>
						<path id="&lt;Path&gt;" class="s19" d="m96.5 32.4l1.4-0.6 5.9-2.4 7 4-7.7 9-2.8-1.2z"/>
						<path id="&lt;Path&gt;" class="s6" d="m88.7 36.4l-0.8-0.3v-0.2l0.7-0.3z"/>
						<path id="&lt;Path&gt;" class="s5" d="m88.7 36.4l-0.1-0.8 1.6-0.6 5.2 4.2z"/>
						<path id="&lt;Path&gt;" class="s12" d="m110.8 33.4l8.2 4.8 0.3 0.9-14.3 4-1.9-0.7z"/>
						<g id="&lt;Group&gt;">
							<path id="&lt;Path&gt;" class="s0" d="m110.8 33.4l5.5-1.6 1.9 4.6 0.8 1.8z"/>
						</g>
						<path id="&lt;Path&gt;" class="s2" d="m120.6 49.6l-0.5-8.6 4.1 10 0.1 0.2z"/>
						<g id="&lt;Group&gt;">
							<path id="&lt;Path&gt;" class="s0" d="m124.3 51.2l-0.1-0.2 0.1 0.2z"/>
						</g>
						<g id="&lt;Group&gt;">
							<path id="&lt;Path&gt;" class="s0" d="m64.4 22.9l-2.5 2.4-0.5-1.3z"/>
						</g>
						<g id="&lt;Group&gt;">
							<path id="&lt;Path&gt;" class="s1" d="m86.3 0.3h1.8l-1.2 1.2z"/>
						</g>
						<path id="&lt;Path&gt;" class="s2" d="m85.6 0.3h0.7l0.6 1.2-1.1 1.1z"/>
						<g id="&lt;Group&gt;">
							<path id="&lt;Path&gt;" class="s0" d="m82.8 0.3h2.8l0.2 2.3-9.7 9.2-9.1-2.5z"/>
						</g>
						<path id="&lt;Path&gt;" class="s3" d="m76.1 11.8l-11.7 11.1-3 1.1-1.2-2.9 6.8-11.8z"/>
						<path id="&lt;Path&gt;" class="s4" d="m73.4 0.2l9.4 0.1-15.8 9z"/>
						<g id="&lt;Group&gt;">
							<path id="&lt;Path&gt;" class="s8" d="m52 0.2h-0.1v-0.1l21.5 0.1-6.4 9.1-6.8 11.8-3.5-9z"/>
						</g>
						<path id="&lt;Path&gt;" class="s25" d="m52.6 21.5l4.8 3.8h-0.2l-2.9 0.1z"/>
						<path id="&lt;Path&gt;" class="s19" d="m52.6 21.5l1.7 3.9h-2.8-2.3z"/>
						<path id="&lt;Path&gt;" class="s5" d="m61.9 25.3h-4.5l-4.8-3.8 4.1-9.4 3.5 9 1.2 2.9z"/>
						<path id="&lt;Path&gt;" class="s12" d="m38.4 25.5l14.2-4-3.4 3.9-5.2 0.1z"/>
						<path id="&lt;Path&gt;" class="s6" d="m41.9 10l10-9.8h0.1l4.7 11.9-4.1 9.4z"/>
						<g id="&lt;Group&gt;">
							<path id="&lt;Path&gt;" class="s1" d="m33.7 18.2l8.2-8.2 10.7 11.5-14.2 4-4.3 0.1z"/>
						</g>
						<g id="&lt;Group&gt;">
							<path id="&lt;Path&gt;" class="s8" d="m26.2 25.6l1.7-1.6 3.6 1.6z"/>
						</g>
						<path id="&lt;Path&gt;" class="s2" d="m31.8 20.1l1.9-1.9 0.4 7.4h-0.4z"/>
						<g id="&lt;Group&gt;">
							<path id="&lt;Path&gt;" class="s0" d="m27.9 24l3.9-3.9 1.9 5.5h-0.3-1.9z"/>
						</g>
						<path id="&lt;Path&gt;" class="s11" d="m11.6 54.8l0.2 1.2-0.8-0.3z"/>
						<g id="&lt;Group&gt;">
							<path id="&lt;Path&gt;" class="s8" d="m11.6 54.8l-0.6 0.9-5-2.2z"/>
						</g>
						<path id="&lt;Path&gt;" class="s12" d="m20.8 44l5-1.4-0.1 3.1v1.2z"/>
						<g id="&lt;Group&gt;">
							<path id="&lt;Path&gt;" class="s0" d="m11.6 54.8l9.2-10.8 4.9 2.9-0.1 3.9z"/>
						</g>
						<g id="&lt;Group&gt;">
							<path id="&lt;Path&gt;" class="s1" d="m20.2 31.6l6-6h5.3 1.9l7.2 7.7-14.7 4.2-0.1 3.3v1.8l-5 1.4z"/>
						</g>
						<g id="&lt;Group&gt;">
							<path id="&lt;Path&gt;" class="s8" d="m5.6 46l6.1-6 9.1 4-9.2 10.8z"/>
						</g>
						<path id="&lt;Path&gt;" class="s2" d="m17.4 34.3l2.8-2.7 0.6 12.4z"/>
						<g id="&lt;Group&gt;">
							<path id="&lt;Path&gt;" class="s0" d="m11.7 40l5.7-5.7 3.4 9.7z"/>
						</g>
						<g id="&lt;Group&gt;">
							<path id="&lt;Path&gt;" class="s8" d="m20.1 60l0.6-0.1-0.3-0.1-0.3 0.2-0.3-0.5-8-3.5-0.2-1.2 14-4 0.1-3.9v-1.2l5.7-1.7-5.9 10.8-0.1 3.2-1.7 3.2 1.6 0.7-0.4 0.4-3.6 3.7z"/>
						</g>
						<path id="&lt;Path&gt;" class="s11" d="m11.4 76.1l8.7-16.1 1.2 6-0.5 0.5-4.5 4.5-4.8 4.9z"/>
						<path id="&lt;Path&gt;" class="s13" d="m0.3 87.3v-2.3l1.8 0.5z"/>
						<g id="&lt;Group&gt;">
							<path id="&lt;Path&gt;" class="s8" d="m0.4 68.5l0.1-12.8 19.6 4.3-8.7 16.1-0.3 0.3-0.6 0.6-5.9 6z"/>
						</g>
						<g id="&lt;Group&gt;">
							<path id="&lt;Path&gt;" class="s0" d="m0.3 85l0.1-16.5 4.2 14.5-2.5 2.5z"/>
						</g>
						<g id="&lt;Group&gt;">
							<path id="&lt;Path&gt;" class="s0" d="m20.7 59.9l-0.6 0.1 0.3-0.2z"/>
						</g>
						<path id="&lt;Path&gt;" class="s5" d="m0.5 55.7v-4.6l5.1-5.1 6 8.8-5.6-1.3 5 2.2 0.8 0.3 8 3.5 0.3 0.5z"/>
						<g id="&lt;Group&gt;">
							<path id="&lt;Path&gt;" class="s0" d="m9.9 119.7l10.4-11.4-1.4-1.5-0.7-0.7 2.6-3.1 7.1 4.2-0.8 2.1-4.6 1.3 2.8 3 0.1 7.3v0.4l-9.2-4.1-0.4 0.2-0.7 0.2z"/>
						</g>
						<path id="&lt;Path&gt;" class="s14" d="m0.2 115.7v-0.6l18.7-8.3 1.4 1.5-10.4 11.4-1.7 0.7z"/>
						<path id="&lt;Path&gt;" class="s15" d="m0.2 115.7l8 4.7-5.7 2.3-2.3 0.6z"/>
						<g id="&lt;Group&gt;">
							<path id="&lt;Path&gt;" class="s1" d="m14.6 102.4l-10.9-3 5.2-3 2.3 2.3z"/>
						</g>
						<path id="&lt;Path&gt;" class="s16" d="m0.2 115.1v-1.8l3.5-13.9 10.9 3 3.6 3.7 0.7 0.7z"/>
						<path id="&lt;Path&gt;" class="s10" d="m3.7 99.4l3.3-5 1.9 2z"/>
						<path id="&lt;Path&gt;" class="s17" d="m0.2 113.3l0.1-16.6 3.4 2.7z"/>
						<path id="&lt;Path&gt;" class="s18" d="m3.7 99.4l0.5-8 2.8 3z"/>
						<path id="&lt;Path&gt;" class="s16" d="m0.3 96.7v-9.4l0.7 0.8 3.2 3.3-0.5 8z"/>
						<path id="&lt;Path&gt;" class="s11" d="m25.6 146.3l0.1 3-1.1-1.1z"/>
						<g id="&lt;Group&gt;">
							<path id="&lt;Path&gt;" class="s8" d="m24.6 148.2l-14.3-14.4 15.2 3.4 0.1 9.1z"/>
						</g>
						<g id="&lt;Group&gt;">
							<path id="&lt;Path&gt;" class="s8" d="m25.5 131.5l-9.7-14.1 0.4-0.2 9.2 4.1v7.4z"/>
						</g>
						<path id="&lt;Path&gt;" class="s19" d="m7.4 130.9l-7.2-7.3v-0.3l2.3-0.6 5.7-2.3 1.7-0.7 5.2-2.1z"/>
						<path id="&lt;Path&gt;" class="s20" d="m58.1 159l-0.1 0.1-2.3-9.1h0.7l-0.6-2.4 4.4 2.5h-0.4l1.7 1z"/>
						<path id="&lt;Path&gt;" class="s18" d="m46.7 170.5l-2.7-2.7 9.7-17.8h0.8l1.3-2.4 0.6 2.4h-0.7l2.3 9.1-2.8 6.5z"/>
						<g id="&lt;Group&gt;">
							<path id="&lt;Path&gt;" class="s8" d="m44 167.8l-5.6-5.7-1.8-9.4 10.2-2.9h1.2l7.8-2.2-1.3 2.4h-0.8z"/>
						</g>
						<path id="&lt;Path&gt;" class="s11" d="m38.4 162.1l-4.5-4.5 2.7-4.9z"/>
						<g id="&lt;Group&gt;">
							<path id="&lt;Path&gt;" class="s8" d="m33.9 157.6l-7-7.1 9.7 2.2z"/>
						</g>
						<g id="&lt;Group&gt;">
							<path id="&lt;Path&gt;" class="s8" d="m36.6 152.7l-2.2-3.2h0.6l-9.5-13.9v-2.8l21 9.4-6.4 7.4h-0.8z"/>
						</g>
						<path id="&lt;Path&gt;" class="s5" d="m26.9 150.5l-1.2-1.2-0.1-3-0.1-9.1-15.2-3.4-2.9-2.9 7.7-13.3 0.7-0.2 9.7 14.1v1.3 2.8l9.5 13.9h-0.6l2.2 3.2z"/>
						<path id="&lt;Path&gt;" class="s12" d="m86.2 175.2l-15.7-0.1 9.6-7.1 0.1 0.2 5.3 5.2z"/>
						<path id="&lt;Path&gt;" class="s21" d="m70.5 175.1h-2.5l-3.7-19.7 7 4 6.1 6 2.3 2.2 0.4 0.4z"/>
						<path id="&lt;Path&gt;" class="s22" d="m68 175.1l-7.3-0.1 3.6-19.6z"/>
						<path id="&lt;Path&gt;" class="s11" d="m60.7 175h-2.6l-5.3-3.9-1.7 3.9-4.4-4.5 8.5-4.9 2.8-6.5 0.1-0.1 6.2-3.6z"/>
						<path id="&lt;Path&gt;" class="s23" d="m58.1 175h-7l1.7-3.9z"/>
						<path id="&lt;Path&gt;" class="s20" d="m64.3 155.4l-0.9-3.7-1.5-1.5 4.4-1.8-1.6-6.3 7 4-0.3 0.1-4.9 2.1 7.7 4.4-7 2.7-0.8-0.8z"/>
						<path id="&lt;Path&gt;" class="s18" d="m64.3 155.4l-6.2 3.6 3.4-7.9 0.4-0.9 1.5 1.5z"/>
						<path id="&lt;Path&gt;" class="s19" d="m77.5 40.3l-3.6 1.5-3.3-3.5z"/>
						<path id="&lt;Path&gt;" class="s3" d="m73.9 41.8l-3.1 1.2-0.2-4.7z"/>
						<path id="&lt;Path&gt;" class="s24" d="m78.3 32.1l9.4 3.9-10.2 4.3-6.9-2z"/>
						<g id="&lt;Group&gt;">
							<path id="&lt;Path&gt;" class="s0" d="m70.8 43l-6.3 2.6 6.1-7.3z"/>
						</g>
						<g id="&lt;Group&gt;">
							<path id="&lt;Path&gt;" class="s0" d="m61.4 32.9l10-3.7 6.9 2.9-7.7 6.2z"/>
						</g>
						<g id="&lt;Group&gt;">
							<path id="&lt;Path&gt;" class="s8" d="m61.4 32.9l9.2 5.4-6.1 7.3-5.9 2.5z"/>
						</g>
						<path id="&lt;Path&gt;" class="s25" d="m52.8 50.5l-1.6 0.7 0.6-1.6z"/>
						<path id="&lt;Path&gt;" class="s6" d="m55.7 40.2l4-9.6 1.7 2.3-2.8 15.2-1.8 0.7z"/>
						<path id="&lt;Path&gt;" class="s5" d="m54.6 42.9l1.1-2.7 1.1 8.6-4 1.7-1-0.9 2.3-5.4z"/>
						<path id="&lt;Path&gt;" class="s3" d="m61.4 32.9l3.6-6.3 6.4 2.6z"/>
						<path id="&lt;Path&gt;" class="s9" d="m59.7 30.6l0.5-1.2 1.2 3.5z"/>
						<path id="&lt;Path&gt;" class="s20" d="m31.4 44l15.5 8.9-6.7 2.8 7.4 4.2-1 2.4-1.6 3.7-1.9 4.5-0.5 0.2-3.6-14.5-1.5 0.6-2.7 1.1z"/>
						<path id="&lt;Path&gt;" class="s18" d="m25.3 61.9l-1.6-0.7 1.7-3.2 0.1-3.2 5.9-10.8 3.4 13.9z"/>
						<g id="&lt;Group&gt;">
							<path id="&lt;Path&gt;" class="s0" d="m53.8 43.9l0.8-1-0.5 1.3z"/>
						</g>
						<g id="&lt;Group&gt;">
							<path id="&lt;Path&gt;" class="s8" d="m53.8 43.9l0.3 0.3-2.3 5.4-0.6 1.6h-0.1z"/>
						</g>
						<g id="&lt;Group&gt;">
							<path id="&lt;Path&gt;" class="s8" d="m61.9 25.3l3.1 1.3-3.6 6.3-1.2-3.5-0.5 1.2-4 9.6-1.1 2.7-0.8 1 3.4-18.6h0.2z"/>
						</g>
						<path id="&lt;Path&gt;" class="s25" d="m40.6 33.3l13.2 10.6-2.7 7.3h0.1l-0.1 0.2-0.1-0.2-2.2 1z"/>
						<path id="&lt;Path&gt;" class="s19" d="m40.6 33.3l8.2 18.9 2.2-1 0.1 0.2-3.5 8.5-7.4-4.2 6.7-2.8-15.5-8.9z"/>
						<path id="&lt;Path&gt;" class="s6" d="m57.2 25.3l-3.4 18.6-2.3-18.5h2.8z"/>
						<path id="&lt;Path&gt;" class="s5" d="m40.6 33.3l3.4-7.8 5.2-0.1h2.3l2.3 18.5z"/>
						<path id="&lt;Path&gt;" class="s12" d="m25.8 40.8l0.1-3.3 14.7-4.2-9.2 10.7z"/>
						<g id="&lt;Group&gt;">
							<path id="&lt;Path&gt;" class="s0" d="m25.8 42.6v-1.8l5.6 3.2-5.7 1.7z"/>
						</g>
						<path id="&lt;Path&gt;" class="s6" d="m40.6 33.3l-7.2-7.7h0.3 0.4l4.3-0.1h5.6z"/>
						<path id="&lt;Path&gt;" class="s21" d="m42.7 71.5l-0.1-0.8 0.4 0.3z"/>
						<path id="&lt;Path&gt;" class="s22" d="m42.6 70.7l0.1 0.8-0.5 1.3z"/>
						<path id="&lt;Path&gt;" class="s11" d="m36 87.7l-4.4-10.7 11-6.3-0.4 2.1-0.9 2.3z"/>
						<path id="&lt;Path&gt;" class="s18" d="m31.6 77l-0.2-0.5-2-4.8 8.1-14.9 1.5-0.6 3.6 14.5z"/>
						<g id="&lt;Group&gt;">
							<path id="&lt;Path&gt;" class="s8" d="m25.3 113.6l-2.8-3 4.6-1.3z"/>
						</g>
						<path id="&lt;Path&gt;" class="s12" d="m28.1 106.8l-0.2 0.4-7.1-4.2 10.1-2.8-0.5 1.1z"/>
						<path id="&lt;Path&gt;" class="s6" d="m19.5 76.5h11.9l0.2 0.5 4.4 10.7-0.1 0.3-0.4 1-1.4 3.2z"/>
						<g id="&lt;Group&gt;">
							<path id="&lt;Path&gt;" class="s1" d="m20.8 103l-1.3-26.5 14.6 15.7 1.4-3.2 1.1 14-6.2-1.7 0.5-1.1z"/>
						</g>
						<g id="&lt;Group&gt;">
							<path id="&lt;Path&gt;" class="s8" d="m18.2 106.1l-3.6-3.7-3.4-3.7 9.6 4.3z"/>
						</g>
						<path id="&lt;Path&gt;" class="s2" d="m11.6 76.5h7.9l1.3 26.5z"/>
						<g id="&lt;Group&gt;">
							<path id="&lt;Path&gt;" class="s0" d="m4.2 91.4l-3.2-3.3 10.6-11.6 9.2 26.5-9.6-4.3-2.3-2.3-1.9-2z"/>
						</g>
						<path id="&lt;Path&gt;" class="s14" d="m0.3 87.3l1.8-1.8 2.5-2.5 5.9-6 1.1-0.5-10.6 11.6z"/>
						<path id="&lt;Path&gt;" class="s10" d="m28.7 71l0.3-0.1 0.1 0.3z"/>
						<g id="&lt;Group&gt;">
							<path id="&lt;Path&gt;" class="s8" d="m19.5 76.5l9.2-5.5 0.4 0.2-0.1-0.3v-0.2l-3.7-8.8 9.5-4 2.7-1.1-8.1 14.9 2 4.8z"/>
						</g>
						<path id="&lt;Path&gt;" class="s14" d="m28.7 71l0.3-0.3v0.2z"/>
						<path id="&lt;Path&gt;" class="s22" d="m19.5 76.5l-3.2-5.5 4.5-4.5 7.9 4.5z"/>
						<path id="&lt;Path&gt;" class="s15" d="m11.6 76.5l-0.1-0.6 4.8-4.9 3.2 5.5z"/>
						<g id="&lt;Group&gt;">
							<path id="&lt;Path&gt;" class="s0" d="m24.9 62.3l0.4-0.4 3.7 8.8-0.3 0.3z"/>
						</g>
						<path id="&lt;Path&gt;" class="s17" d="m20.8 66.5l0.5-0.5 3.6-3.7 3.8 8.7z"/>
						<g id="&lt;Group&gt;">
							<path id="&lt;Path&gt;" class="s1" d="m11.6 76.5l-0.5-0.1 0.3-0.3 0.1-0.2z"/>
						</g>
						<path id="&lt;Path&gt;" class="s16" d="m11.6 76.5l-1.1 0.5 0.6-0.6z"/>
						<path id="&lt;Path&gt;" class="s19" d="m55.8 147.6l3.4-4v0.1l2 4.8 0.7 1.7-0.4 0.9-1.7-1h0.4z"/>
						<path id="&lt;Path&gt;" class="s12" d="m55.8 147.6l-9.3-5.4 10.8-3.1 1.9 4.5z"/>
						<g id="&lt;Group&gt;">
							<path id="&lt;Path&gt;" class="s0" d="m55.8 147.6l-7.8 2.2h-1.2l-10.2 2.9 2.7-3.1h0.8l6.4-7.4z"/>
						</g>
						<path id="&lt;Path&gt;" class="s7" d="m25.5 132.8v-1.3l-0.1-2.8 9.9-10.9 3.2 1.3 8 23.1z"/>
						<path id="&lt;Path&gt;" class="s14" d="m25.4 121.3v-0.4l8.5-3.8 1.4 0.7-9.9 10.9z"/>
						<path id="&lt;Path&gt;" class="s16" d="m25.4 120.9l-0.1-7.3 1.3 0.5 7.3 3z"/>
						<g id="&lt;Group&gt;">
							<path id="&lt;Path&gt;" class="s1" d="m51.2 124.3v0.2l4.2 9.9-0.5-8.5 15.6 6.4-14.3 4.1 0.3 0.9 0.8 1.8-10.8 3.1-1-20.2-0.6-12.9 3.1 7.5 2.8 6.7z"/>
						</g>
						<path id="&lt;Path&gt;" class="s2" d="m44.8 109.1h0.1l0.6 12.9 1 20.2-8-23.1 4.3 1.8-6.2-17.9h5.8z"/>
						<g id="&lt;Group&gt;">
							<path id="&lt;Path&gt;" class="s0" d="m38.5 119.1l-3.2-1.3-1.4-0.7-7.3-3 10-11.1 6.2 17.9z"/>
						</g>
						<path id="&lt;Path&gt;" class="s14" d="m26.6 114.1l-1.3-0.5 1.8-4.3 0.8-2.1 0.2-0.4 8.5-3.8z"/>
						<path id="&lt;Path&gt;" class="s22" d="m35.9 88l0.1-0.3 0.8 1.8z"/>
						<path id="&lt;Path&gt;" class="s15" d="m36.6 103l-1.1-14 0.4-1 0.9 1.5 5.4 13.1 0.2 0.4z"/>
						<path id="&lt;Path&gt;" class="s16" d="m36.6 103l-8.5 3.8 2.3-5.5z"/>
						<path id="&lt;Path&gt;" class="s3" d="m99.8 162.9l0.3 0.1-0.1 0.1z"/>
						<g id="&lt;Group&gt;">
							<path id="&lt;Path&gt;" class="s0" d="m99.8 162.9l0.2 0.2-12.7 12.1-0.3-0.3z"/>
						</g>
						<path id="&lt;Path&gt;" class="s25" d="m99.8 162.9l1.2-0.7-0.9 0.8z"/>
						<path id="&lt;Path&gt;" class="s26" d="m87 174.9l0.3 0.3h-1.1l-0.7-1.8-5.3-5.2 19.6-5.3z"/>
						<path id="&lt;Path&gt;" class="s27" d="m109.3 154.3l-8.3 7.9-1.2 0.7-7.1-4.9z"/>
						<path id="&lt;Path&gt;" class="s28" d="m92.7 158l7.1 4.9-19.6 5.3-0.1-0.2-0.4-0.4z"/>
						<path id="&lt;Path&gt;" class="s10" d="m92.7 158l-13 9.6-2.3-2.2-3.2-12.7z"/>
						<g id="&lt;Group&gt;">
							<path id="&lt;Path&gt;" class="s0" d="m77.4 165.4l-6.1-6-7-4 2.1-0.8 0.8 0.8 7-2.7z"/>
						</g>
						<path id="&lt;Path&gt;" class="s3" d="m113.6 150.2l-4.3 4.1-16.6 3.7-0.7-16.8z"/>
						<g id="&lt;Group&gt;">
							<path id="&lt;Path&gt;" class="s0" d="m87.6 139.5h0.1l4.3 1.7 0.7 16.8-13.6-15 6.2-2.5 1.6-0.7z"/>
						</g>
						<g id="&lt;Group&gt;">
							<path id="&lt;Path&gt;" class="s8" d="m92.7 158l-18.5-5.3 3.4-9 1.4-0.6 0.1-0.1z"/>
						</g>
						<path id="&lt;Path&gt;" class="s25" d="m71.4 146.2l0.3-0.1 5.9-2.4-3.4 9z"/>
						<path id="&lt;Path&gt;" class="s19" d="m74.2 152.7l-7.7-4.4 4.9-2.1z"/>
						<path id="&lt;Path&gt;" class="s18" d="m64.7 142.1l1.6 6.3-4.4 1.8-0.7-1.7z"/>
						<g id="&lt;Group&gt;">
							<path id="&lt;Path&gt;" class="s8" d="m64.7 142.1l-3.5 6.4-2-4.8z"/>
						</g>
						<g id="&lt;Group&gt;">
							<path id="&lt;Path&gt;" class="s8" d="m87.6 139.4l0.1 0.1h-0.1z"/>
						</g>
						<path id="&lt;Path&gt;" class="s25" d="m75.2 134.3l4.9 2 5.2 4.2-6.2 2.5-0.1 0.1z"/>
						<path id="&lt;Path&gt;" class="s19" d="m72.4 133.1l2.8 1.2 3.8 8.8-1.4 0.6-5.9 2.4-7-4z"/>
						<path id="&lt;Path&gt;" class="s6" d="m86.9 139.8l-0.1-0.7 0.8 0.3v0.1z"/>
						<path id="&lt;Path&gt;" class="s5" d="m80.1 136.3l6.7 2.8 0.1 0.7-1.6 0.7z"/>
						<path id="&lt;Path&gt;" class="s12" d="m70.5 132.3l1.9 0.8-7.7 9-8.2-4.8-0.3-0.9z"/>
						<g id="&lt;Group&gt;">
							<path id="&lt;Path&gt;" class="s0" d="m57.3 139.1l-0.8-1.8 8.2 4.8-5.5 1.6v-0.1z"/>
						</g>
						<path id="&lt;Path&gt;" class="s2" d="m51.2 124.5v-0.2l3.7 1.6 0.5 8.5z"/>
						<g id="&lt;Group&gt;">
							<path id="&lt;Path&gt;" class="s0" d="m51.2 124.5v-0.2z"/>
						</g>
						<path id="&lt;Path&gt;" class="s21" d="m64.3 45.7l16.8-6.9 3.2 21.1z"/>
						<path id="&lt;Path&gt;" class="s22" d="m81.1 38.8l6.7-2.8-3.5 23.9z"/>
						<path id="&lt;Path&gt;" class="s10" d="m51.2 51.2l9.6-4 4.3 21.7-18.5-6.6 1-2.4 3.5-8.5z"/>
						<g id="&lt;Group&gt;">
							<path id="&lt;Path&gt;" class="s0" d="m60.8 47.2l3.5-1.5 20 14.2-19.2 9z"/>
						</g>
						<path id="&lt;Path&gt;" class="s11" d="m84.3 59.9l3.5-23.9 0.1 0.1 0.8 0.3 6.7 2.8 4.9 2 2.8 1.2 1.9 0.7 1.7 0.8z"/>
						<path id="&lt;Path&gt;" class="s20" d="m65.1 68.9l19.2-9 5.2 26.3z"/>
						<path id="&lt;Path&gt;" class="s18" d="m84.3 59.9l22.4-16 1.1 0.4-18.3 41.9z"/>
						<g id="&lt;Group&gt;">
							<path id="&lt;Path&gt;" class="s8" d="m89.5 86.2l18.3-41.9 1.2 0.5 4.8 32.8z"/>
						</g>
						<path id="&lt;Path&gt;" class="s11" d="m109 44.8l11.6 4.8 3.7 1.6 0.5 1.2-11 25.2z"/>
						<g id="&lt;Group&gt;">
							<path id="&lt;Path&gt;" class="s8" d="m124.8 52.4l5.8 14 2.5 6 5 11.9-24.3-6.7z"/>
						</g>
						<path id="&lt;Path&gt;" class="s3" d="m36 87.7l5.3-12.6 0.9 27.5-5.4-13.1z"/>
						<g id="&lt;Group&gt;">
							<path id="&lt;Path&gt;" class="s0" d="m59.9 86.5l-15.1 22.6-2.4-6.1-0.2-0.4-0.9-27.5 0.9-2.3 0.5-1.3 0.3-0.5-0.4-0.3 0.5-0.2 1.9-4.5z"/>
						</g>
						<g id="&lt;Group&gt;">
							<path id="&lt;Path&gt;" class="s8" d="m46.6 62.3l18.5 6.6-5.2 17.6-14.9-20.5z"/>
						</g>
						<g id="&lt;Group&gt;">
							<path id="&lt;Path&gt;" class="s0" d="m54.7 121.6l-3.9 1.7-2.8-6.7z"/>
						</g>
						<g id="&lt;Group&gt;">
							<path id="&lt;Path&gt;" class="s8" d="m59.9 86.5l-5.2 35.1-6.7-5-3.1-7.5h-0.1z"/>
						</g>
						<path id="&lt;Path&gt;" class="s25" d="m65.1 68.9l12.2 35-17.4-17.4z"/>
						<path id="&lt;Path&gt;" class="s19" d="m65.1 68.9l24.4 17.3-12.2 17.7z"/>
						<path id="&lt;Path&gt;" class="s6" d="m64.2 129.7l-6.2-2.5-3.3-5.6 5.2-35.1z"/>
						<path id="&lt;Path&gt;" class="s5" d="m67.8 131.2l-3.6-1.5-4.3-43.2 17.4 17.4z"/>
						<path id="&lt;Path&gt;" class="s12" d="m77.3 103.9l12.2-17.7 12.2 9z"/>
						<g id="&lt;Group&gt;">
							<path id="&lt;Path&gt;" class="s0" d="m89.5 86.2l24.3-8.6-12.1 17.6z"/>
						</g>
						<path id="&lt;Path&gt;" class="s6" d="m86.5 138.9l-18.7-7.7 9.5-27.3 22.7 30.5-2 0.8-9 3.7z"/>
						<g id="&lt;Group&gt;">
							<path id="&lt;Path&gt;" class="s1" d="m100 134.4l-22.7-30.5 24.4-8.7 1.5 37.9-1.6 0.6z"/>
						</g>
						<g id="&lt;Group&gt;">
							<path id="&lt;Path&gt;" class="s8" d="m130.8 108.7l-0.9 2.2-28.2-15.7 12.1-17.6z"/>
						</g>
						<path id="&lt;Path&gt;" class="s5" d="m138.1 84.3l0.6 1.6 0.8 1.8-6.2 15-0.5 1.2-0.3 0.6-0.1 0.4-1.6 3.8-17-31.1z"/>
						<path id="&lt;Path&gt;" class="s2" d="m111.3 129.7l-0.3 0.2-6.3 2.6-1.5 0.6-1.5-37.9z"/>
						<g id="&lt;Group&gt;">
							<path id="&lt;Path&gt;" class="s0" d="m127.9 115.6l-3.5 8.5-0.1 0.2-1.7 0.7-3.9 1.6-1.8 0.8-5.6 2.3-9.6-34.5 28.2 15.7z"/>
						</g>
						<path id="&lt;Path&gt;" class="s3" d="m53 125.1l-1.8-0.8-0.4-1 3.9-1.7z"/>
						<g id="&lt;Group&gt;">
							<path id="&lt;Path&gt;" class="s8" d="m56 126.3l-3-1.2 1.7-3.5z"/>
						</g>
						<path id="&lt;Path&gt;" class="s9" d="m58 127.2l-2-0.9-1.3-4.7z"/>
						<g id="&lt;Group&gt;">
							<path id="&lt;Path&gt;" class="s8" d="m87.8 139.5l-1.3-0.6h2.5z"/>
						</g>
					</g>
					<path id="&lt;Path&gt;" class="s29" d="m139.5 87.7l-15.2 36.6-36.5 15.2-36.6-15.2-15.2-36.6 15.2-36.5 36.6-15.2 36.5 15.2z"/>
				</g>
			</g>
		</g>
	</g>
</svg>