<svg version="1.2" xmlns="http://www.w3.org/2000/svg" viewBox="0 0 172 172" width="172" height="172">
	<title>121-ai</title>
	<defs>
		<linearGradient id="g1" x1="174.4" y1="74" x2="105.6" y2="180.6" gradientUnits="userSpaceOnUse">
			<stop offset="0" stop-color="#ffffff"/>
			<stop offset="1" stop-color="#000000"/>
		</linearGradient>
	</defs>
	<style>
		.s0 { fill: #474a52 } 
		.s1 { fill: #444950 } 
		.s2 { fill: #eff7f9 } 
		.s3 { fill: #808890 } 
		.s4 { fill: #475875 } 
		.s5 { fill: #ffffff } 
		.s6 { fill: #a3b1bc } 
		.s7 { fill: #7a8694 } 
		.s8 { fill: #98a4b1 } 
		.s9 { fill: #e1ebf0 } 
		.s10 { fill: #75746b } 
		.s11 { fill: #b6c1ce } 
		.s12 { fill: #e5edf0 } 
		.s13 { fill: #304350 } 
		.s14 { fill: #cbd5dc } 
		.s15 { fill: #dee6e8 } 
		.s16 { fill: #e1e6e5 } 
		.s17 { fill: #f3f6f1 } 
		.s18 { fill: #e7f0f4 } 
		.s19 { fill: #4a4d53 } 
		.s20 { fill: #d1dadf } 
		.s21 { fill: #c2cbd4 } 
		.s22 { fill: #182631 } 
		.s23 { fill: #f0f7fb } 
		.s24 { fill: #c6ced0 } 
		.s25 { fill: #e3d6c0 } 
		.s26 { fill: #9dabb9 } 
		.s27 { fill: #525a66 } 
		.s28 { mix-blend-mode: screen;fill: url(#g1) } 
	</style>
	<g id="Layer 1">
		<g id="&lt;Group&gt;">
			<g id="&lt;Group&gt;">
				<g id="&lt;Group&gt;">
					<g id="&lt;Group&gt;">
						<path id="&lt;Path&gt;" class="s0" d="m27.3 1.2l-0.3-0.6h7.8z"/>
						<path id="&lt;Path&gt;" class="s1" d="m42.1 0.6h23.4l1.8 2.7z"/>
						<g id="&lt;Group&gt;">
							<path id="&lt;Path&gt;" class="s2" d="m65.5 0.6h20.9l-19.1 2.7z"/>
						</g>
						<path id="&lt;Path&gt;" class="s3" d="m86.4 0.6h3.5l5.8 8.7-28.4-6z"/>
						<path id="&lt;Path&gt;" class="s4" d="m89.9 0.6h18.5l-12.7 8.7z"/>
						<g id="&lt;Group&gt;">
							<path id="&lt;Path&gt;" class="s5" d="m108.4 0.6h12.8l2.8 5.7-28.3 3z"/>
						</g>
						<path id="&lt;Path&gt;" class="s6" d="m121.2 0.6h11.2l-8.4 5.7z"/>
						<g id="&lt;Group&gt;">
							<path id="&lt;Path&gt;" class="s5" d="m132.4 0.6h12.1c0.9 0.9 1.8 1.8 2.6 2.6l3.6 6.4-10.1 4.6-0.3-0.3 0.2-3.4 1.1-2.8-17.6-1.4z"/>
						</g>
						<path id="&lt;Path&gt;" class="s7" d="m34.8 0.6h4.2l1.4 12.4h1.5l0.1 0.8-2-0.8h-5.4-2.4l-0.7-1.5-2.3-5.6-0.6-1.4-1.3-3.3z"/>
						<g id="&lt;Group&gt;">
							<path id="&lt;Path&gt;" class="s2" d="m39 0.6h0.8l21.4 8.8-8.2 3.6h-9.3l-1.7 0.8-0.1-0.8h-1.5z"/>
						</g>
						<g id="&lt;Group&gt;">
							<path id="&lt;Path&gt;" class="s5" d="m39.8 0.6h2.3l25.2 2.7-6.1 6.1z"/>
						</g>
						<path id="&lt;Path&gt;" class="s8" d="m61.2 9.4l6.1-6.1 11.5 9.7h-5.2z"/>
						<path id="&lt;Path&gt;" class="s9" d="m67.3 3.3l28.4 6-8.8 3.7h-7-1.1z"/>
						<path id="&lt;Path&gt;" class="s10" d="m61.2 9.4l1.2 3.6h2.6l3.3 9.9-12.2-6 2-3.9h1.3z"/>
						<path id="&lt;Path&gt;" class="s11" d="m61.2 9.4l12.4 3.6h5.2 1.1l-11.6 9.9-3.3-9.9h-2.6z"/>
						<path id="&lt;Path&gt;" class="s12" d="m95.7 9.3l14.2 3.1-6.4 0.6h-15.4-1.2z"/>
						<g id="&lt;Group&gt;">
							<path id="&lt;Path&gt;" class="s2" d="m95.7 9.3l28.3-3-14.1 6.1z"/>
						</g>
						<g id="&lt;Group&gt;">
							<path id="&lt;Path&gt;" class="s5" d="m124 6.3l12.5 6.7h-20.7-1.9l-4-0.6z"/>
						</g>
						<path id="&lt;Path&gt;" class="s11" d="m124 6.3l17.6 1.4-1.1 2.8-1.1 2.5h-2.9z"/>
						<path id="&lt;Path&gt;" class="s13" d="m109.9 12.4l0.6 0.6h-0.6z"/>
						<g id="&lt;Group&gt;">
							<path id="&lt;Path&gt;" class="s2" d="m109.9 12.4l4 0.6h-2.3-1.1z"/>
						</g>
						<path id="&lt;Path&gt;" class="s1" d="m147.1 3.2q2.5 2.4 4.6 4.6l-1 1.8z"/>
						<g id="&lt;Group&gt;">
							<path id="&lt;Path&gt;" class="s2" d="m151.7 7.8c1.5 1.4 2.8 2.8 4.2 4.1l-5.2-2.3z"/>
						</g>
						<path id="&lt;Path&gt;" class="s3" d="m155.9 11.9c2.3 2.4 4.6 4.7 7.1 7.1l-6.6 11-0.2-0.2-5.5-20.2z"/>
						<path id="&lt;Path&gt;" class="s4" d="m163 19c2.1 2.2 4.5 4.5 7 7.1l-13.6 4v-0.1z"/>
						<g id="&lt;Group&gt;">
							<path id="&lt;Path&gt;" class="s5" d="m170 26.1c0.4 0.4 0.7 0.7 1.1 1.1l-0.3 0.1-7 3-2.5 1 2.6 2.5-5.2 3.1v-4.5l0.9-0.4-2.8-1.6 1.9 2-5.2 2.1-9.4-5.2 8.9-2.6 3.2 3.1 0.2 0.2v0.1z"/>
						</g>
						<g id="&lt;Group&gt;">
							<path id="&lt;Path&gt;" class="s2" d="m140.5 10.5l-0.2 3.4-0.6-0.5-0.3-0.4z"/>
						</g>
						<path id="&lt;Path&gt;" class="s8" d="m140.6 14.2l10.1-4.6-4.2 10.5z"/>
						<path id="&lt;Path&gt;" class="s9" d="m150.7 9.6l5.5 20.2-3.2-3.1-4.6-4.6-1.9-2z"/>
						<g id="&lt;Group&gt;">
							<path id="&lt;Path&gt;" class="s2" d="m158.7 32.4l-1.9-2 2.8 1.6z"/>
						</g>
						<path id="&lt;Path&gt;" class="s14" d="m170.8 27.3l0.3-0.1v2.5z"/>
						<path id="&lt;Path&gt;" class="s15" d="m171.1 29.7v4.6l-7.3-4 7-3z"/>
						<path id="&lt;Path&gt;" class="s7" d="m171.1 38.6v9.4l-1.8 2.5z"/>
						<g id="&lt;Group&gt;">
							<path id="&lt;Path&gt;" class="s2" d="m171.1 48v6.3l-1.8-3.8z"/>
						</g>
						<g id="&lt;Group&gt;">
							<path id="&lt;Path&gt;" class="s2" d="m171.1 34.3v0.2l-7.2-0.7-2.6-2.5 2.5-1z"/>
						</g>
						<path id="&lt;Path&gt;" class="s8" d="m171.1 34.5v4.1l-1.8 11.9-5.4-16.7z"/>
						<path id="&lt;Path&gt;" class="s14" d="m171.1 54.3v9.4l-1.8-13.2z"/>
						<path id="&lt;Path&gt;" class="s0" d="m163.9 33.8l5.4 16.7-2.6 7.1z"/>
						<path id="&lt;Path&gt;" class="s16" d="m171.1 63.7v5.4l-4.4-11.5 2.6-7.1z"/>
						<path id="&lt;Path&gt;" class="s17" d="m171.1 76.1v13l-4.3 1.5z"/>
						<path id="&lt;Path&gt;" class="s18" d="m171.1 89.1v3.1l-4.3-1.6z"/>
						<path id="&lt;Path&gt;" class="s1" d="m171.1 69.1v3.6l-7.2 3.4 2.8-18.5z"/>
						<g id="&lt;Group&gt;">
							<path id="&lt;Path&gt;" class="s2" d="m171.1 72.7v3.4l-4.3 14.5-2.9-14.5z"/>
						</g>
						<path id="&lt;Path&gt;" class="s6" d="m171.1 92.2v13l-4.3-14.6z"/>
						<path id="&lt;Path&gt;" class="s3" d="m163.9 76.1l2.9 14.5-8.1 3.8v-1.1z"/>
						<path id="&lt;Path&gt;" class="s4" d="m171.1 105.2v2.7l-12.4-12.9v-0.6l8.1-3.8z"/>
						<g id="&lt;Group&gt;">
							<path id="&lt;Path&gt;" class="s5" d="m171.1 107.9v1.6l-10 3.6-2.4-16v-2.1z"/>
						</g>
						<path id="&lt;Path&gt;" class="s6" d="m171.1 109.5v14l-10-10.4z"/>
						<g id="&lt;Group&gt;">
							<path id="&lt;Path&gt;" class="s5" d="m171.1 123.5v6.3l-12.4 6.8v-3l2.4-20.5z"/>
						</g>
						<g id="&lt;Group&gt;">
							<path id="&lt;Path&gt;" class="s2" d="m171.1 129.8v15l-0.3-0.2-2-0.8-10.1-6.7v-0.5z"/>
						</g>
						<path id="&lt;Path&gt;" class="s19" d="m158.7 137.6v-0.5l10.1 6.7-7.5-3.1-2.6-1.1v-1.2z"/>
						<path id="&lt;Path&gt;" class="s9" d="m158.7 36.9l5.2-3.1-5.2 9.3v-1.6z"/>
						<path id="&lt;Path&gt;" class="s7" d="m163.9 33.8l2.8 23.8-8 0.6v-8.4-6.7z"/>
						<g id="&lt;Group&gt;">
							<path id="&lt;Path&gt;" class="s2" d="m166.7 57.6l-8 13.7v-0.4-5.5-3.4-3.8z"/>
						</g>
						<g id="&lt;Group&gt;">
							<path id="&lt;Path&gt;" class="s5" d="m166.7 57.6l-2.8 18.5-5.2-3.6v-1.2z"/>
						</g>
						<path id="&lt;Path&gt;" class="s8" d="m163.9 76.1l-5.2 4.3v-0.1-7.8z"/>
						<path id="&lt;Path&gt;" class="s9" d="m163.9 76.1l-5.2 17.2v-1.5-9.3-2.1z"/>
						<g id="&lt;Group&gt;">
							<path id="&lt;Path&gt;" class="s5" d="m161.1 113.1l-2.4 3.1v-7z"/>
						</g>
						<path id="&lt;Path&gt;" class="s11" d="m161.1 113.1l-2.4 20.5v-8-3.2-2.2-3.2-0.8z"/>
						<path id="&lt;Path&gt;" class="s10" d="m145.2 166.1h-2.8l-2.4-5.7z"/>
						<g id="&lt;Group&gt;">
							<path id="&lt;Path&gt;" class="s5" d="m167 148.9q-0.3 0.3-0.6 0.6l-12.1-5.4v-0.1l4.3-4.2-6.9-3.1h0.1l0.1 0.1 0.9 0.4h0.2l1.8 0.8 2.6 1.1 1.3 0.5 2.6 1.1z"/>
						</g>
						<path id="&lt;Path&gt;" class="s11" d="m170.2 145.6q-1.7 1.8-3.2 3.3l-5.7-8.2 7.5 3.1 2 0.8z"/>
						<path id="&lt;Path&gt;" class="s13" d="m152.3 163.6q-1.2 1.2-2.5 2.5h-4.6l-0.6-12.4 3.2-3.2z"/>
						<g id="&lt;Group&gt;">
							<path id="&lt;Path&gt;" class="s2" d="m166.4 149.5c-5.1 5.1-9.3 9.3-14.1 14.1l-4.5-13.1 4.4-4.4 2.1-2z"/>
						</g>
						<path id="&lt;Path&gt;" class="s9" d="m170.8 144.6l0.3 0.2c-0.3 0.3-0.5 0.5-0.9 0.8z"/>
						<g id="&lt;Group&gt;">
							<path id="&lt;Path&gt;" class="s5" d="m142.4 166.1h2.8l-2.3 1.3z"/>
						</g>
						<path id="&lt;Path&gt;" class="s18" d="m146.9 169c-0.8 0.7-1.5 1.5-2.4 2.3l-0.2-0.6-1.4-3.3 2.3-1.3z"/>
						<path id="&lt;Path&gt;" class="s20" d="m149.8 166.1q-1.4 1.3-2.9 2.9l-1.7-2.9z"/>
						<path id="&lt;Path&gt;" class="s9" d="m34.6 13h5.4l2 0.8z"/>
						<path id="&lt;Path&gt;" class="s21" d="m32.2 13h2.4l7.4 0.8-8.5 2.5z"/>
						<g id="&lt;Group&gt;">
							<path id="&lt;Path&gt;" class="s2" d="m42 13.8l14.1 3.1-21.2 2.9-0.6-1.6-0.8-1.9z"/>
						</g>
						<g id="&lt;Group&gt;">
							<path id="&lt;Path&gt;" class="s5" d="m42 13.8l1.7-0.8h9.3l8.2-3.6-1.8 3.6h-1.3l-2 3.9z"/>
						</g>
						<path id="&lt;Path&gt;" class="s22" d="m68.3 22.9l11.6-9.9h7 1.2l24.8 9.9z"/>
						<g id="&lt;Group&gt;">
							<path id="&lt;Path&gt;" class="s23" d="m88.1 13h15.4l6.4-0.6v0.6h0.6 1.1l1.3 9.9z"/>
						</g>
						<path id="&lt;Path&gt;" class="s13" d="m113.9 13h1.9l9.2 9.9h-12.1l-1.3-9.9z"/>
						<g id="&lt;Group&gt;">
							<path id="&lt;Path&gt;" class="s2" d="m115.8 13h20.7 2.9l-2 4.9-12.4 5z"/>
						</g>
						<path id="&lt;Path&gt;" class="s24" d="m137.4 17.9l-1.3 3.2-11.1 1.8z"/>
						<path id="&lt;Path&gt;" class="s7" d="m34.9 19.8l21.2-2.9-13.3 8.5h18.8l1.1 10-25.3-10h-0.1z"/>
						<g id="&lt;Group&gt;">
							<path id="&lt;Path&gt;" class="s5" d="m56.1 16.9l8 8.5h-2.5-18.8z"/>
						</g>
						<path id="&lt;Path&gt;" class="s25" d="m56.1 16.9l12.2 6 0.6 2.5h-4.8z"/>
						<path id="&lt;Path&gt;" class="s1" d="m68.3 22.9l24.8 2.5h-9.2-3.2-11.8z"/>
						<g id="&lt;Group&gt;">
							<path id="&lt;Path&gt;" class="s5" d="m68.3 22.9h44.6l-11.6 2.5h-6.1-2.1z"/>
						</g>
						<path id="&lt;Path&gt;" class="s18" d="m101.3 25.4l11.6-2.5 3.9 2.5h-3.3z"/>
						<path id="&lt;Path&gt;" class="s20" d="m112.9 22.9h12.1l0.6 2.5h-0.3-6.6-1.8-0.1z"/>
						<g id="&lt;Group&gt;">
							<path id="&lt;Path&gt;" class="s23" d="m134.9 23.9l-0.6 1.5h-8.7l-0.6-2.5z"/>
						</g>
						<path id="&lt;Path&gt;" class="s26" d="m136.1 21.1l-1.2 2.8-9.9-1z"/>
						<path id="&lt;Path&gt;" class="s15" d="m158.7 138.4v1.2l-1.3-0.5z"/>
						<path id="&lt;Path&gt;" class="s7" d="m158.1 121.5l0.6 0.9v3.2z"/>
						<g id="&lt;Group&gt;">
							<path id="&lt;Path&gt;" class="s2" d="m158.7 120.2v2.2l-0.6-0.9z"/>
						</g>
						<g id="&lt;Group&gt;">
							<path id="&lt;Path&gt;" class="s2" d="m157.4 139.1l-2.6-1.1 3.9-0.4v0.8z"/>
						</g>
						<path id="&lt;Path&gt;" class="s8" d="m158.7 133.6v3 0.5 0.5l-3.9 0.4-1.8-0.8 5.1-15.7 0.6 4.1z"/>
						<path id="&lt;Path&gt;" class="s14" d="m158.7 117v3.2l-0.6 1.3z"/>
						<path id="&lt;Path&gt;" class="s0" d="m153 137.2h-0.2l2.7-22.8 2.6 7.1z"/>
						<path id="&lt;Path&gt;" class="s16" d="m158.7 106.1v3.1 7 0.8l-0.6 4.5-2.6-7.1z"/>
						<path id="&lt;Path&gt;" class="s17" d="m158.7 82.5v9.3l-3.1-10.4z"/>
						<path id="&lt;Path&gt;" class="s18" d="m158.7 80.3v0.1 2.1l-3.1-1.1z"/>
						<path id="&lt;Path&gt;" class="s1" d="m152.7 95.9l6 2.8v7.4l-3.2 8.3z"/>
						<g id="&lt;Group&gt;">
							<path id="&lt;Path&gt;" class="s2" d="m158.7 94.4v0.6 2.1l2.4 16-2.4-3.9v-3.1-7.4l-6-2.8 2.9-14.5 3.1 10.4v1.5z"/>
						</g>
						<path id="&lt;Path&gt;" class="s6" d="m158.7 70.9v0.4 1.2 7.8l-3.1 1.1z"/>
						<path id="&lt;Path&gt;" class="s3" d="m155.6 81.4l-2.9 14.5-5.5-18.5z"/>
						<path id="&lt;Path&gt;" class="s4" d="m158.7 65.4v5.5l-3.1 10.5-8.4-4z"/>
						<g id="&lt;Group&gt;">
							<path id="&lt;Path&gt;" class="s5" d="m158.7 62v3.4l-11.5 12 2.7-18.5z"/>
						</g>
						<path id="&lt;Path&gt;" class="s6" d="m158.7 49.8v8.4 3.8l-8.8-3.1z"/>
						<g id="&lt;Group&gt;">
							<path id="&lt;Path&gt;" class="s5" d="m147.4 37.1l1.9-0.8 9.4 5.2v1.6 6.7l-8.8 9.1z"/>
						</g>
						<g id="&lt;Group&gt;">
							<path id="&lt;Path&gt;" class="s5" d="m146.3 134.5v-0.1l0.4 0.2z"/>
						</g>
						<path id="&lt;Path&gt;" class="s9" d="m151.9 136.8l-0.1-0.1h-0.2l-4.9-2.1-0.4-0.2v-0.6-7.1z"/>
						<path id="&lt;Path&gt;" class="s7" d="m152.8 137.2l-0.9-0.4-5.6-10.1v-5.3-7.7l9.2 0.7z"/>
						<g id="&lt;Group&gt;">
							<path id="&lt;Path&gt;" class="s2" d="m155.5 114.4l-9.2-0.7v7.7l-4.8-8.3 4.8-3.2v-5.2-3.7l0.8-1.1z"/>
						</g>
						<g id="&lt;Group&gt;">
							<path id="&lt;Path&gt;" class="s5" d="m152.7 95.9l2.8 18.5-8.4-14.5z"/>
						</g>
						<g id="&lt;Group&gt;">
							<path id="&lt;Path&gt;" class="s5" d="m146.3 100.1l0.8-0.2-0.8 1.1z"/>
						</g>
						<path id="&lt;Path&gt;" class="s8" d="m152.7 95.9l-5.6 4-0.8-1.8v-1.5-6z"/>
						<path id="&lt;Path&gt;" class="s9" d="m152.7 95.9l-6.4-5.3v-10.5-1.3l0.9-1.4z"/>
						<path id="&lt;Path&gt;" class="s10" d="m147.1 99.9l-0.8 0.2v-0.4z"/>
						<path id="&lt;Path&gt;" class="s11" d="m146.3 98.1l0.8 1.8-0.8-0.2z"/>
						<path id="&lt;Path&gt;" class="s12" d="m147.2 77.4l-0.9 1.4v-3.9-0.2z"/>
						<g id="&lt;Group&gt;">
							<path id="&lt;Path&gt;" class="s2" d="m149.9 58.9l-2.7 18.5-0.9-2.7v-5.5-0.6-1.2-2.6z"/>
						</g>
						<g id="&lt;Group&gt;">
							<path id="&lt;Path&gt;" class="s5" d="m146.3 54.2l3.6 4.7-3.6 5.9v-0.4z"/>
						</g>
						<path id="&lt;Path&gt;" class="s11" d="m146.3 37.5l1.1-0.4 2.5 21.8-3.6-4.7v-3.7-10.8z"/>
						<path id="&lt;Path&gt;" class="s3" d="m117.5 26.3l-4-0.9h3.3 0.1z"/>
						<path id="&lt;Path&gt;" class="s4" d="m117.5 26.3l-0.6-0.9h1.8z"/>
						<g id="&lt;Group&gt;">
							<path id="&lt;Path&gt;" class="s5" d="m125.3 25.4l-7.8 0.9 1.2-0.9z"/>
						</g>
						<path id="&lt;Path&gt;" class="s9" d="m40.4 33l-3.1-7.6h0.1l25.3 10z"/>
						<path id="&lt;Path&gt;" class="s21" d="m42.4 37.9l-2-4.9 22.3 2.4-8.3 2.5h-8.3z"/>
						<g id="&lt;Group&gt;">
							<path id="&lt;Path&gt;" class="s2" d="m62.7 35.4l-1.1-10h2.5 4.8 11.8l2.3 1z"/>
						</g>
						<g id="&lt;Group&gt;">
							<path id="&lt;Path&gt;" class="s5" d="m80.7 25.4h3.2l-0.9 1z"/>
						</g>
						<g id="&lt;Group&gt;">
							<path id="&lt;Path&gt;" class="s2" d="m62.7 35.4l11.5 2.5h-1.3l-16.3 20.4-10.5-20.4h8.3z"/>
						</g>
						<g id="&lt;Group&gt;">
							<path id="&lt;Path&gt;" class="s5" d="m62.7 35.4l20.3-9-5.8 11.5h-3z"/>
						</g>
						<path id="&lt;Path&gt;" class="s8" d="m83.9 25.4h9.2 2.1l8.1 7-20.3-6z"/>
						<path id="&lt;Path&gt;" class="s9" d="m95.2 25.4h6.1 12.2l4 0.9-14.2 6.1z"/>
						<path id="&lt;Path&gt;" class="s10" d="m77.2 37.9l5.8-11.5 3.9 11.5z"/>
						<path id="&lt;Path&gt;" class="s11" d="m83 26.4l20.3 6-6.5 5.5h-6.6-3.3z"/>
						<path id="&lt;Path&gt;" class="s12" d="m117.5 26.3l14.1 3.1-28.3 3z"/>
						<g id="&lt;Group&gt;">
							<path id="&lt;Path&gt;" class="s2" d="m134.3 25.4l-1.4 3.5-1.3 0.5-14.1-3.1 7.8-0.9h0.3z"/>
						</g>
						<path id="&lt;Path&gt;" class="s10" d="m103.3 32.4l13.8 5.5h-17.1-3.2z"/>
						<g id="&lt;Group&gt;">
							<path id="&lt;Path&gt;" class="s23" d="m131.6 29.4l0.3 1.8-2 4.8-0.8 1.9h-2.1-8.6-1.3l-13.8-5.5z"/>
						</g>
						<g id="&lt;Group&gt;">
							<path id="&lt;Path&gt;" class="s5" d="m132.6 29.5l-1-0.1 1.3-0.5z"/>
						</g>
						<path id="&lt;Path&gt;" class="s13" d="m131.6 29.4l0.7 0.7-0.4 1.1z"/>
						<g id="&lt;Group&gt;">
							<path id="&lt;Path&gt;" class="s2" d="m132.3 30.1l-0.7-0.7 1 0.1z"/>
						</g>
						<path id="&lt;Path&gt;" class="s24" d="m146.3 37.5v2.2l-4-0.5z"/>
						<path id="&lt;Path&gt;" class="s21" d="m141.6 39.4h0.2l0.5-0.2 4 0.5v10.8z"/>
						<g id="&lt;Group&gt;">
							<path id="&lt;Path&gt;" class="s2" d="m141.6 39.5v-0.1l4.7 11.1v3.7 10.2z"/>
						</g>
						<path id="&lt;Path&gt;" class="s10" d="m146.3 69.2v5.5 0.2l-4.8 1.2z"/>
						<path id="&lt;Path&gt;" class="s11" d="m146.3 74.9v3.9 1.3l-4.8-4z"/>
						<path id="&lt;Path&gt;" class="s10" d="m146.3 80.1v10.5 6l-4.8 8.5v-29z"/>
						<g id="&lt;Group&gt;">
							<path id="&lt;Path&gt;" class="s23" d="m146.3 96.6v1.5 1.6 0.4 0.9 3.7l-4.8 0.4z"/>
						</g>
						<path id="&lt;Path&gt;" class="s13" d="m146.3 104.7v5.2l-4.8 3.2v-8z"/>
						<path id="&lt;Path&gt;" class="s24" d="m146.3 121.4v5.3 7.1l-4.8-20.7z"/>
						<g id="&lt;Group&gt;">
							<path id="&lt;Path&gt;" class="s2" d="m133.9 43.2v-0.6l7.5-3.1-2.8 19.4z"/>
						</g>
						<path id="&lt;Path&gt;" class="s7" d="m141.4 39.5h0.2l4.7 24.9v0.4 2.6l-7.7-8.5z"/>
						<path id="&lt;Path&gt;" class="s15" d="m133.9 52.6v-9.4l4.7 15.7z"/>
						<path id="&lt;Path&gt;" class="s25" d="m146.3 68.6v0.6l-4.8 6.9-7.6 1.2v-0.5z"/>
						<g id="&lt;Group&gt;">
							<path id="&lt;Path&gt;" class="s5" d="m133.9 60.3v-7.7l4.7 6.3 7.7 8.5v1.2l-12.4 8.2z"/>
						</g>
						<path id="&lt;Path&gt;" class="s1" d="m141.5 76.1l-2.9 19.8-4.7-15.7v-2.9z"/>
						<g id="&lt;Group&gt;">
							<path id="&lt;Path&gt;" class="s5" d="m141.5 76.1v29l-2.9-9.2z"/>
						</g>
						<path id="&lt;Path&gt;" class="s24" d="m133.9 89.8v-9.6l4.7 15.7z"/>
						<path id="&lt;Path&gt;" class="s18" d="m141.5 105.1l-7.6 8.4v-1.9l4.7-15.7z"/>
						<path id="&lt;Path&gt;" class="s20" d="m141.5 113.1l-7.6 1.2v-0.8l7.6-8.4z"/>
						<g id="&lt;Group&gt;">
							<path id="&lt;Path&gt;" class="s2" d="m133.9 92.8v-3l4.7 6.1-4.7 3.9z"/>
						</g>
						<path id="&lt;Path&gt;" class="s27" d="m138.6 95.9l-4.7 15.7v-3.7-5.5-2.6z"/>
						<g id="&lt;Group&gt;">
							<path id="&lt;Path&gt;" class="s23" d="m141.5 113.1l-2.7 18.3-0.7-0.3-4.2-13.9v-2.9z"/>
						</g>
						<path id="&lt;Path&gt;" class="s26" d="m146.3 133.8v0.6 0.1l-1.3-0.6-4.4-1.8-1.8-0.7 2.7-18.3z"/>
						<path id="&lt;Path&gt;" class="s1" d="m138.1 131.1l-1.3-0.6-2.9-3.7v-6.5-3.1z"/>
						<path id="&lt;Path&gt;" class="s4" d="m136.8 130.5l-2.9-1.2v-2.5z"/>
						<path id="&lt;Path&gt;" class="s7" d="m37.7 42.6l4.7-4.7h3.7l10.5 20.4-18.9-7.6v-5.5z"/>
						<path id="&lt;Path&gt;" class="s8" d="m37.7 58.5v-0.8-3-4l18.9 7.6-18.9 15.6v-1.7-11.8z"/>
						<path id="&lt;Path&gt;" class="s14" d="m56.6 58.3l16.3-20.4h1.3 3 9.7 3.3l2.1 7.6z"/>
						<path id="&lt;Path&gt;" class="s12" d="m92.3 45.5l-2.1-7.6h6.6 3.2z"/>
						<path id="&lt;Path&gt;" class="s0" d="m56.6 58.3l11.8 10.9-30.7 9.2v-4.5z"/>
						<path id="&lt;Path&gt;" class="s16" d="m56.6 58.3l35.7-12.8-23.9 23.7z"/>
						<path id="&lt;Path&gt;" class="s17" d="m117.1 37.9h1.3l4.3 30.9-30.4-23.3 7.7-7.6z"/>
						<path id="&lt;Path&gt;" class="s18" d="m118.4 37.9h8.6l-4.3 30.9z"/>
						<path id="&lt;Path&gt;" class="s1" d="m68.4 69.2l23.9-23.7 6.5 35.4z"/>
						<g id="&lt;Group&gt;">
							<path id="&lt;Path&gt;" class="s2" d="m122.7 68.8l-23.9 12.1-6.5-35.4z"/>
						</g>
						<path id="&lt;Path&gt;" class="s6" d="m129.1 37.9l4.8 4.7v0.6 9.4 7.7l-11.2 8.5 4.3-30.9z"/>
						<path id="&lt;Path&gt;" class="s3" d="m122.7 68.8l6.6 35.4-30.5-23.3z"/>
						<path id="&lt;Path&gt;" class="s4" d="m122.7 68.8l11.2-8.5v16.5 0.5 2.9 9.6 3l-4.6 11.4z"/>
						<g id="&lt;Group&gt;">
							<path id="&lt;Path&gt;" class="s5" d="m129.3 104.2l4.6-11.4v7 2.6z"/>
						</g>
						<path id="&lt;Path&gt;" class="s0" d="m40.1 127.9l-2.4 1.2v-0.4-2z"/>
						<path id="&lt;Path&gt;" class="s15" d="m38.2 129.8l-0.5-0.5v-0.2l2.4-1.2z"/>
						<path id="&lt;Path&gt;" class="s9" d="m56.2 134.1l-16.1-6.2-2.4-10.5v-22.3-0.4-1.8l29 41.2z"/>
						<path id="&lt;Path&gt;" class="s7" d="m37.7 92.9v-1.2-9.5-3.8l30.7-9.2 2 64.9h-3.7z"/>
						<path id="&lt;Path&gt;" class="s24" d="m39.9 131.6l-1.7-1.8 1.9-1.9z"/>
						<path id="&lt;Path&gt;" class="s21" d="m42.4 134.1l-2.5-2.5 0.2-3.7 16.1 6.2h-1.7z"/>
						<g id="&lt;Group&gt;">
							<path id="&lt;Path&gt;" class="s2" d="m68.4 69.2l23.9 35.4-18.4 29.5h-3.5z"/>
						</g>
						<g id="&lt;Group&gt;">
							<path id="&lt;Path&gt;" class="s5" d="m68.4 69.2l30.4 11.7-6.5 23.7z"/>
						</g>
						<g id="&lt;Group&gt;">
							<path id="&lt;Path&gt;" class="s5" d="m92.3 104.6l-4.1 29.5h-3.5-10-0.8z"/>
						</g>
						<path id="&lt;Path&gt;" class="s8" d="m114 127.9l-21.7-23.3 6.5-23.7z"/>
						<path id="&lt;Path&gt;" class="s9" d="m114 127.9l-15.2-47 30.5 23.3z"/>
						<path id="&lt;Path&gt;" class="s10" d="m95 134.1h-0.7l-5.8 11.5-3.8-11.5h3.5l4.1-29.5z"/>
						<path id="&lt;Path&gt;" class="s11" d="m114 127.9l-2 6.2h-14.6-2.4l-2.7-29.5z"/>
						<path id="&lt;Path&gt;" class="s12" d="m133.9 113.5v0.8 2.9 3.1l-19.9 7.6 15.3-23.7 4.6 3.7v3.7z"/>
						<g id="&lt;Group&gt;">
							<path id="&lt;Path&gt;" class="s2" d="m129.3 104.2l4.6-1.8v5.5z"/>
						</g>
						<path id="&lt;Path&gt;" class="s10" d="m114 127.9l4.3 6.2h-1.1-5.2z"/>
						<g id="&lt;Group&gt;">
							<path id="&lt;Path&gt;" class="s23" d="m133.9 129.3l-4.4 4.4-0.4 0.4h-10.8l-4.3-6.2 19.9-7.6v6.5z"/>
						</g>
						<path id="&lt;Path&gt;" class="s3" d="m139.7 13.4l0.6 0.5 0.3 0.3 5.9 5.9 1.9 2-4.3 7.2z"/>
						<path id="&lt;Path&gt;" class="s4" d="m153 26.7l-8.9 2.6 4.3-7.2z"/>
						<path id="&lt;Path&gt;" class="s9" d="m144.1 29.3l-5.6 0.4c-1.5-1.5-3-3-4.2-4.3l0.6-1.5 1.2-2.8 1.3-3.2 2-4.9 0.3 0.4z"/>
						<path id="&lt;Path&gt;" class="s12" d="m144.1 29.3l2 8c-1.2-1.2-2.6-2.6-4-4q-0.8-0.8-1.5-1.5-1-1.1-2.1-2.1z"/>
						<g id="&lt;Group&gt;">
							<path id="&lt;Path&gt;" class="s2" d="m144.1 29.3l9.4 5.2 5.2-2.1v4.5 4.6l-9.4-5.2-1.9 0.8-1.1 0.4q-0.1-0.1-0.2-0.2z"/>
						</g>
						<path id="&lt;Path&gt;" class="s11" d="m134.3 25.4c1.2 1.3 2.7 2.8 4.2 4.3q1.1 1 2.1 2.1l-10.7 4.2 2-4.8 0.4-1.1 0.3-0.6 0.3-0.6z"/>
						<path id="&lt;Path&gt;" class="s10" d="m140.6 31.8q0.7 0.7 1.5 1.5l-0.3 6.1h-0.2v0.1h-0.2l-7.5 3.1-4.8-4.7 0.8-1.9z"/>
						<g id="&lt;Group&gt;">
							<path id="&lt;Path&gt;" class="s23" d="m142.1 33.3c1.4 1.4 2.8 2.8 4 4q0.1 0.1 0.2 0.2l-4 1.7-0.5 0.2z"/>
						</g>
						<path id="&lt;Path&gt;" class="s12" d="m151.6 136.7h0.1l-10.7 3.1q0 0 0.1-0.1 0.4-0.4 0.8-0.8 0.5-0.5 0.9-0.9c1.3-1.3 2.5-2.5 3.5-3.5l0.4 0.1z"/>
						<g id="&lt;Group&gt;">
							<path id="&lt;Path&gt;" class="s2" d="m151.6 136.7h0.2-0.1z"/>
						</g>
						<path id="&lt;Path&gt;" class="s10" d="m139.4 158.9l-1.4-3.3-0.7-1.9-3-7.2q0.7-0.8 1.6-1.6l8.5 9.1z"/>
						<g id="&lt;Group&gt;">
							<path id="&lt;Path&gt;" class="s23" d="m151.7 136.7l0.5 9.4-4.4 4.4-3.2 3.2 0.6 12.4-5.2-5.7-0.6-1.5 5-4.9-8.5-9.1c1.6-1.6 3.3-3.3 5.1-5.1z"/>
						</g>
						<path id="&lt;Path&gt;" class="s13" d="m151.7 136.7l2.6 7.3v0.1l-2.1 2z"/>
						<g id="&lt;Group&gt;">
							<path id="&lt;Path&gt;" class="s2" d="m151.7 136.7l6.9 3.1-4.3 4.2z"/>
						</g>
						<path id="&lt;Path&gt;" class="s4" d="m129.5 133.7l-0.3 0.6-0.1-0.2z"/>
						<g id="&lt;Group&gt;">
							<path id="&lt;Path&gt;" class="s5" d="m141.9 138.9q-0.4 0.4-0.8 0.8l-8.6 2.5-3.3-7.9 0.3-0.6 4.4-4.4 2.9 1.2 1.3 0.6 0.7 0.3 1.8 0.7z"/>
						</g>
						<path id="&lt;Path&gt;" class="s6" d="m142.8 138q-0.4 0.4-0.9 0.9l-1.3-6.8 4.4 1.8z"/>
						<g id="&lt;Group&gt;">
							<path id="&lt;Path&gt;" class="s5" d="m146.3 134.5c-1 1-2.2 2.2-3.5 3.5l2.2-4.1z"/>
						</g>
						<g id="&lt;Group&gt;">
							<path id="&lt;Path&gt;" class="s2" d="m141.1 139.7q-0.1 0.1-0.1 0.1c-1.8 1.8-3.5 3.5-5.1 5.1q-0.9 0.8-1.6 1.6l-1.8-4.3z"/>
						</g>
						<path id="&lt;Path&gt;" class="s0" d="m144.3 170.7l0.2 0.6h-7.8z"/>
						<path id="&lt;Path&gt;" class="s1" d="m129.4 171.3h-23.4l-1.7-2.6z"/>
						<g id="&lt;Group&gt;">
							<path id="&lt;Path&gt;" class="s2" d="m106 171.3h-20.9l19.2-2.6z"/>
						</g>
						<path id="&lt;Path&gt;" class="s3" d="m85.1 171.3h-3.4l-5.8-8.6 28.4 6z"/>
						<path id="&lt;Path&gt;" class="s4" d="m81.7 171.3h-18.6l12.8-8.6z"/>
						<g id="&lt;Group&gt;">
							<path id="&lt;Path&gt;" class="s5" d="m63.1 171.3h-12.7l-2.9-5.6 28.4-3z"/>
						</g>
						<path id="&lt;Path&gt;" class="s6" d="m50.4 171.3h-11.2l8.3-5.6z"/>
						<g id="&lt;Group&gt;">
							<path id="&lt;Path&gt;" class="s5" d="m39.2 171.3h-12.2c-0.9-0.9-1.7-1.7-2.6-2.5l-3.5-6.4 10.1-4.7 0.3 0.3-0.2 3.5-1.1 2.7 17.5 1.5z"/>
						</g>
						<path id="&lt;Path&gt;" class="s7" d="m136.7 171.3h-4.1l-1.4-12.4h-1.5l-0.1-0.8 2 0.8h5.4 2.4l0.6 1.5 2.4 5.7 0.5 1.3 1.4 3.3z"/>
						<path id="&lt;Path&gt;" class="s22" d="m132.6 171.3h-0.8l-21.5-8.7 8.3-3.7h9.2 1.9 1.5z"/>
						<g id="&lt;Group&gt;">
							<path id="&lt;Path&gt;" class="s5" d="m131.8 171.3h-2.4l-25.1-2.6 6-6.1z"/>
						</g>
						<path id="&lt;Path&gt;" class="s8" d="m110.3 162.6l-6 6.1-11.5-9.8h5.1z"/>
						<path id="&lt;Path&gt;" class="s9" d="m104.3 168.7l-28.4-6 8.8-3.8h7 1.1z"/>
						<path id="&lt;Path&gt;" class="s10" d="m110.3 162.6l-1.2-3.7h-2.5l-3.3-9.9 12.1 6-1.9 3.9h-1.3z"/>
						<path id="&lt;Path&gt;" class="s11" d="m110.3 162.6l-12.4-3.7h-5.1-1.1l11.6-9.9 3.3 9.9h2.5z"/>
						<path id="&lt;Path&gt;" class="s12" d="m75.9 162.7l-14.2-3.1 6.3-0.7h15.5 1.2z"/>
						<g id="&lt;Group&gt;">
							<path id="&lt;Path&gt;" class="s2" d="m75.9 162.7l-28.4 3 14.2-6.1z"/>
						</g>
						<g id="&lt;Group&gt;">
							<path id="&lt;Path&gt;" class="s5" d="m47.5 165.7l-12.4-6.8h20.7 1.8l4.1 0.7z"/>
						</g>
						<path id="&lt;Path&gt;" class="s11" d="m47.5 165.7l-17.5-1.5 1.1-2.7 1.1-2.6h2.9z"/>
						<path id="&lt;Path&gt;" class="s13" d="m61.7 159.6l-0.6-0.7h0.5z"/>
						<g id="&lt;Group&gt;">
							<path id="&lt;Path&gt;" class="s2" d="m61.7 159.6l-4.1-0.7h2.4 1.1z"/>
						</g>
						<path id="&lt;Path&gt;" class="s1" d="m24.4 168.8q-2.4-2.5-4.6-4.7l1.1-1.7z"/>
						<g id="&lt;Group&gt;">
							<path id="&lt;Path&gt;" class="s2" d="m19.8 164.1c-1.4-1.4-2.8-2.7-4.1-4.1l5.2 2.4z"/>
						</g>
						<path id="&lt;Path&gt;" class="s3" d="m15.7 160c-2.4-2.3-4.7-4.6-7.1-7.1l6.6-10.9 0.2 0.1 5.5 20.3z"/>
						<path id="&lt;Path&gt;" class="s4" d="m8.6 152.9c-2.2-2.2-4.5-4.5-7.1-7l13.6-4 0.1 0.1z"/>
						<g id="&lt;Group&gt;">
							<path id="&lt;Path&gt;" class="s5" d="m1.5 145.9c-0.3-0.4-0.7-0.8-1.1-1.2l0.3-0.1 7.1-2.9 2.5-1.1-2.6-2.4 5.1-3.1v4.5l-0.9 0.4 2.9 1.6-2-2 5.3-2.2 9.4 5.3-9 2.6-3.1-3.2-0.2-0.1-0.1-0.1z"/>
						</g>
						<g id="&lt;Group&gt;">
							<path id="&lt;Path&gt;" class="s2" d="m31.1 161.5l0.2-3.5 0.5 0.6 0.4 0.3z"/>
						</g>
						<path id="&lt;Path&gt;" class="s8" d="m31 157.7l-10.1 4.7 4.2-10.6z"/>
						<path id="&lt;Path&gt;" class="s9" d="m20.9 162.4l-5.5-20.3 3.1 3.2 4.6 4.6 2 1.9z"/>
						<g id="&lt;Group&gt;">
							<path id="&lt;Path&gt;" class="s2" d="m12.8 139.6l2 2-2.9-1.6z"/>
						</g>
						<path id="&lt;Path&gt;" class="s14" d="m0.7 144.6l-0.3 0.1v-2.4z"/>
						<path id="&lt;Path&gt;" class="s15" d="m0.7 144.6l-0.3-2.3v-4.6l7.4 4z"/>
						<path id="&lt;Path&gt;" class="s7" d="m0.4 133.4v-9.4l1.9-2.5z"/>
						<g id="&lt;Group&gt;">
							<path id="&lt;Path&gt;" class="s2" d="m0.4 124v-6.3l1.9 3.8z"/>
						</g>
						<g id="&lt;Group&gt;">
							<path id="&lt;Path&gt;" class="s2" d="m0.4 137.7v-0.3l7.3 0.8 2.6 2.4-2.5 1.1z"/>
						</g>
						<path id="&lt;Path&gt;" class="s8" d="m0.4 137.4v-4l1.9-11.9 5.4 16.7z"/>
						<path id="&lt;Path&gt;" class="s14" d="m0.4 117.7v-9.5l1.9 13.3z"/>
						<path id="&lt;Path&gt;" class="s0" d="m7.7 138.2l-5.4-16.7 2.6-7.1z"/>
						<path id="&lt;Path&gt;" class="s16" d="m0.4 108.2v-5.3l4.5 11.5-2.6 7.1z"/>
						<path id="&lt;Path&gt;" class="s17" d="m0.4 95.9v-13l4.4-1.6z"/>
						<path id="&lt;Path&gt;" class="s18" d="m0.4 82.9v-3.1l4.4 1.5z"/>
						<path id="&lt;Path&gt;" class="s1" d="m0.4 102.9v-3.6l7.3-3.4-2.8 18.5z"/>
						<g id="&lt;Group&gt;">
							<path id="&lt;Path&gt;" class="s2" d="m0.4 99.3v-3.4l4.4-14.6 2.9 14.6z"/>
						</g>
						<path id="&lt;Path&gt;" class="s6" d="m0.4 79.8v-13l4.4 14.5z"/>
						<path id="&lt;Path&gt;" class="s3" d="m4.8 81.3l8-3.7v1.1l-5.1 17.2z"/>
						<path id="&lt;Path&gt;" class="s4" d="m0.4 66.8v-2.7l12.4 12.9v0.6l-8 3.7z"/>
						<g id="&lt;Group&gt;">
							<path id="&lt;Path&gt;" class="s5" d="m0.4 64.1v-1.7l10-3.5 2.4 15.9v2.2z"/>
						</g>
						<path id="&lt;Path&gt;" class="s6" d="m0.4 62.4v-13.9l10 10.4z"/>
						<g id="&lt;Group&gt;">
							<path id="&lt;Path&gt;" class="s5" d="m0.4 48.5v-6.3l12.4-6.9v3.1l-2.4 20.5z"/>
						</g>
						<g id="&lt;Group&gt;">
							<path id="&lt;Path&gt;" class="s2" d="m0.4 42.2v-15l0.3 0.1 2 0.9 10.1 6.6v0.5z"/>
						</g>
						<path id="&lt;Path&gt;" class="s19" d="m12.8 34.4v0.4l-10.1-6.6 7.5 3.1 2.6 1v1.3z"/>
						<path id="&lt;Path&gt;" class="s9" d="m12.8 135.1l-5.1 3.1 5.1-9.3v1.6z"/>
						<path id="&lt;Path&gt;" class="s7" d="m7.7 138.2l-2.8-23.8 7.9-0.7v8.5 6.7z"/>
						<g id="&lt;Group&gt;">
							<path id="&lt;Path&gt;" class="s2" d="m4.9 114.4l7.9-13.7v0.4 5.5 3.3 3.8z"/>
						</g>
						<g id="&lt;Group&gt;">
							<path id="&lt;Path&gt;" class="s5" d="m4.9 114.4l2.8-18.5 5.1 3.6v1.2z"/>
						</g>
						<path id="&lt;Path&gt;" class="s8" d="m7.7 95.9l5.1-4.3v0.1 7.8z"/>
						<path id="&lt;Path&gt;" class="s9" d="m7.7 95.9l5.1-17.2v1.4 9.4 2.1z"/>
						<g id="&lt;Group&gt;">
							<path id="&lt;Path&gt;" class="s5" d="m10.4 58.9l2.4-3.1v7z"/>
						</g>
						<path id="&lt;Path&gt;" class="s11" d="m10.4 58.9l2.4-20.5v7.9 3.3 2.1 3.3 0.8z"/>
						<path id="&lt;Path&gt;" class="s10" d="m26.3 5.9h2.9l2.3 5.6z"/>
						<g id="&lt;Group&gt;">
							<path id="&lt;Path&gt;" class="s5" d="m4.6 23q0.3-0.2 0.5-0.5l12.2 5.4-4.3 4.3 6.8 3h-0.2l-0.9-0.4-0.2-0.1-1.7-0.7-2.7-1.1-1.3-0.6-2.6-1z"/>
						</g>
						<path id="&lt;Path&gt;" class="s11" d="m1.3 26.3q1.7-1.7 3.3-3.3l5.6 8.3-7.5-3.1-2-0.9z"/>
						<path id="&lt;Path&gt;" class="s13" d="m19.2 8.4q1.2-1.2 2.5-2.5h4.6l0.6 12.4-3.1 3.1z"/>
						<g id="&lt;Group&gt;">
							<path id="&lt;Path&gt;" class="s2" d="m5.1 22.5c5.1-5.1 9.3-9.3 14.1-14.1l4.6 13-4.5 4.4-2 2.1z"/>
						</g>
						<path id="&lt;Path&gt;" class="s9" d="m0.7 27.3l-0.3-0.1c0.3-0.3 0.6-0.6 0.9-0.9z"/>
						<g id="&lt;Group&gt;">
							<path id="&lt;Path&gt;" class="s5" d="m26.3 5.9l2.3-1.4 0.6 1.4z"/>
						</g>
						<path id="&lt;Path&gt;" class="s18" d="m24.6 3c0.8-0.8 1.6-1.5 2.4-2.4l0.3 0.6 1.3 3.3-2.3 1.4z"/>
						<path id="&lt;Path&gt;" class="s20" d="m21.7 5.9q1.4-1.4 2.9-2.9l1.7 2.9z"/>
						<path id="&lt;Path&gt;" class="s9" d="m137 158.9h-5.4l-2-0.8z"/>
						<path id="&lt;Path&gt;" class="s21" d="m139.4 158.9h-2.4l-7.4-0.8 8.4-2.5z"/>
						<g id="&lt;Group&gt;">
							<path id="&lt;Path&gt;" class="s2" d="m129.6 158.1l0.1 0.8h-1.9z"/>
						</g>
						<g id="&lt;Group&gt;">
							<path id="&lt;Path&gt;" class="s2" d="m129.6 158.1l-14.2-3.1 21.2-2.8 0.7 1.5 0.7 1.9z"/>
						</g>
						<g id="&lt;Group&gt;">
							<path id="&lt;Path&gt;" class="s5" d="m129.6 158.1l-1.8 0.8h-9.2l-8.3 3.7 1.9-3.7h1.3l1.9-3.9z"/>
						</g>
						<path id="&lt;Path&gt;" class="s10" d="m103.3 149l-11.6 9.9h-7-1.2l-24.8-9.9z"/>
						<g id="&lt;Group&gt;">
							<path id="&lt;Path&gt;" class="s23" d="m83.5 158.9h-15.5l-6.3 0.7-0.1-0.7h-0.5-1.1l-1.3-9.9z"/>
						</g>
						<path id="&lt;Path&gt;" class="s13" d="m57.6 158.9h-1.8l-9.3-9.9h12.2l1.3 9.9z"/>
						<g id="&lt;Group&gt;">
							<path id="&lt;Path&gt;" class="s2" d="m55.8 158.9h-20.7-2.9l2-4.8 12.3-5.1z"/>
						</g>
						<path id="&lt;Path&gt;" class="s24" d="m34.2 154.1l1.3-3.2 11-1.9z"/>
						<path id="&lt;Path&gt;" class="s7" d="m136.6 152.2l-21.2 2.8 13.3-8.5h-18.8l-1.1-9.9 25.3 9.9h0.2z"/>
						<g id="&lt;Group&gt;">
							<path id="&lt;Path&gt;" class="s5" d="m115.4 155l-8-8.5h2.5 18.8z"/>
						</g>
						<path id="&lt;Path&gt;" class="s25" d="m115.4 155l-12.1-6-0.6-2.5h4.7z"/>
						<path id="&lt;Path&gt;" class="s1" d="m103.3 149l-24.9-2.5h9.2 3.2 11.9z"/>
						<g id="&lt;Group&gt;">
							<path id="&lt;Path&gt;" class="s5" d="m103.3 149h-44.6l11.6-2.5h6.1 2z"/>
						</g>
						<path id="&lt;Path&gt;" class="s18" d="m70.3 146.5l-11.6 2.5-4-2.5h3.3z"/>
						<path id="&lt;Path&gt;" class="s20" d="m58.7 149h-12.2l-0.5-2.5h0.3 6.6 1.7 0.1z"/>
						<g id="&lt;Group&gt;">
							<path id="&lt;Path&gt;" class="s23" d="m36.7 148l0.6-1.5h8.7l0.5 2.5z"/>
						</g>
						<path id="&lt;Path&gt;" class="s26" d="m35.5 150.9l1.2-2.9 9.8 1z"/>
						<path id="&lt;Path&gt;" class="s15" d="m12.8 33.6v-1.3l1.3 0.6z"/>
						<path id="&lt;Path&gt;" class="s7" d="m13.5 50.4l-0.7-0.8v-3.3z"/>
						<g id="&lt;Group&gt;">
							<path id="&lt;Path&gt;" class="s2" d="m12.8 51.7v-2.1l0.7 0.8z"/>
						</g>
						<g id="&lt;Group&gt;">
							<path id="&lt;Path&gt;" class="s2" d="m14.1 32.9l2.7 1.1-4 0.4v-0.8z"/>
						</g>
						<path id="&lt;Path&gt;" class="s8" d="m12.8 38.4v-3.1-0.5-0.4l4-0.4 1.7 0.7-5 15.7-0.7-4.1z"/>
						<path id="&lt;Path&gt;" class="s14" d="m12.8 55v-3.3l0.7-1.3z"/>
						<path id="&lt;Path&gt;" class="s0" d="m18.5 34.7l0.2 0.1-2.6 22.8-2.6-7.2z"/>
						<path id="&lt;Path&gt;" class="s16" d="m12.8 65.9v-3.1-7-0.8l0.7-4.6 2.6 7.2z"/>
						<path id="&lt;Path&gt;" class="s17" d="m12.8 80.1l3.2 10.5-3.2-1.1z"/>
						<path id="&lt;Path&gt;" class="s18" d="m16 90.6l-3.2 1.1v-0.1-2.1z"/>
						<path id="&lt;Path&gt;" class="s1" d="m18.8 76.1l-6-2.9v-7.3l3.3-8.3z"/>
						<g id="&lt;Group&gt;">
							<path id="&lt;Path&gt;" class="s2" d="m12.8 77.6v-0.6-2.2l-2.4-15.9 2.4 3.9v3.1 7.3l6 2.9-2.8 14.5-3.2-10.5v-1.4z"/>
						</g>
						<path id="&lt;Path&gt;" class="s6" d="m12.8 91.7l3.2-1.1-3.2 10.5v-0.4-1.2z"/>
						<path id="&lt;Path&gt;" class="s3" d="m16 90.6l2.8-14.5 5.6 18.5z"/>
						<path id="&lt;Path&gt;" class="s4" d="m16 90.6l8.4 4-11.6 12v-5.5z"/>
						<g id="&lt;Group&gt;">
							<path id="&lt;Path&gt;" class="s5" d="m12.8 109.9v-3.3l11.6-12-2.8 18.5z"/>
						</g>
						<path id="&lt;Path&gt;" class="s6" d="m12.8 122.2v-8.5-3.8l8.8 3.2z"/>
						<g id="&lt;Group&gt;">
							<path id="&lt;Path&gt;" class="s5" d="m24.2 134.9l-1.9 0.8-9.5-5.2v-1.6-6.7l8.8-9.1z"/>
						</g>
						<g id="&lt;Group&gt;">
							<path id="&lt;Path&gt;" class="s5" d="m25.2 37.5l-0.3-0.1z"/>
						</g>
						<path id="&lt;Path&gt;" class="s9" d="m19.6 35.2h0.2l0.1 0.1 5 2.1 0.3 0.1v0.7 7z"/>
						<path id="&lt;Path&gt;" class="s7" d="m18.7 34.8l0.9 0.4 5.6 10v5.3 7.8l-9.1-0.7z"/>
						<g id="&lt;Group&gt;">
							<path id="&lt;Path&gt;" class="s2" d="m16.1 57.6l9.1 0.7v-7.8l4.9 8.4-4.9 3.2v5.2 3.6l-0.7 1.2z"/>
						</g>
						<g id="&lt;Group&gt;">
							<path id="&lt;Path&gt;" class="s5" d="m18.8 76.1l-2.7-18.5 8.4 14.5z"/>
						</g>
						<g id="&lt;Group&gt;">
							<path id="&lt;Path&gt;" class="s5" d="m25.2 71.8l-0.7 0.3 0.7-1.2z"/>
						</g>
						<path id="&lt;Path&gt;" class="s8" d="m18.8 76.1l5.7-4 0.7 1.7v1.6 5.9z"/>
						<path id="&lt;Path&gt;" class="s9" d="m18.8 76.1l6.4 5.2v10.6 1.3l-0.8 1.4z"/>
						<path id="&lt;Path&gt;" class="s10" d="m24.5 72.1l0.7-0.3v0.5z"/>
						<path id="&lt;Path&gt;" class="s11" d="m25.2 73.8l-0.7-1.7 0.7 0.2z"/>
						<path id="&lt;Path&gt;" class="s12" d="m24.4 94.6l0.8-1.4v3.8 0.2z"/>
						<g id="&lt;Group&gt;">
							<path id="&lt;Path&gt;" class="s2" d="m24.4 94.6l0.8 2.6v5.6 0.5 1.3 2.6l-3.6 5.9z"/>
						</g>
						<g id="&lt;Group&gt;">
							<path id="&lt;Path&gt;" class="s5" d="m25.2 117.7l-3.6-4.6 3.6-5.9v0.4z"/>
						</g>
						<path id="&lt;Path&gt;" class="s11" d="m25.2 134.5l-1 0.4-2.6-21.8 3.6 4.6v3.8 10.8z"/>
						<path id="&lt;Path&gt;" class="s3" d="m54.1 145.7l3.9 0.8h-3.3-0.1z"/>
						<path id="&lt;Path&gt;" class="s4" d="m54.1 145.7l0.5 0.8h-1.7z"/>
						<g id="&lt;Group&gt;">
							<path id="&lt;Path&gt;" class="s5" d="m46.3 146.5l7.8-0.8-1.2 0.8z"/>
						</g>
						<path id="&lt;Path&gt;" class="s9" d="m131.1 139l3.2 7.5h-0.2l-25.3-9.9z"/>
						<path id="&lt;Path&gt;" class="s21" d="m129.1 134.1l2 4.9-22.3-2.4 8.4-2.5h1.1z"/>
						<g id="&lt;Group&gt;">
							<path id="&lt;Path&gt;" class="s2" d="m108.8 136.6l1.1 9.9h-2.5-4.7-11.9l-2.3-0.9z"/>
						</g>
						<g id="&lt;Group&gt;">
							<path id="&lt;Path&gt;" class="s5" d="m88.5 145.6l2.3 0.9h-3.2z"/>
						</g>
						<g id="&lt;Group&gt;">
							<path id="&lt;Path&gt;" class="s2" d="m108.8 136.6l-11.4-2.5h14.6 5.2z"/>
						</g>
						<g id="&lt;Group&gt;">
							<path id="&lt;Path&gt;" class="s5" d="m108.8 136.6l-20.3 9 5.8-11.5h0.7 2.4z"/>
						</g>
						<path id="&lt;Path&gt;" class="s8" d="m87.6 146.5h-9.2-2l-8.1-6.9 20.2 6z"/>
						<path id="&lt;Path&gt;" class="s9" d="m76.4 146.5h-6.1-12.3l-3.9-0.8 14.2-6.1z"/>
						<path id="&lt;Path&gt;" class="s11" d="m88.5 145.6l-20.2-6 6.4-5.5h10z"/>
						<path id="&lt;Path&gt;" class="s12" d="m54.1 145.7l-14.2-3.1 28.4-3z"/>
						<g id="&lt;Group&gt;">
							<path id="&lt;Path&gt;" class="s2" d="m37.3 146.5l1.4-3.4 1.2-0.5 14.2 3.1-7.8 0.8h-0.3z"/>
						</g>
						<path id="&lt;Path&gt;" class="s10" d="m68.3 139.6l-13.8-5.5h1.7 10.5 3.7 3.5 0.8z"/>
						<g id="&lt;Group&gt;">
							<path id="&lt;Path&gt;" class="s23" d="m39.9 142.6l-0.2-1.8 2-4.9 0.7-1.8h12.1l13.8 5.5z"/>
						</g>
						<g id="&lt;Group&gt;">
							<path id="&lt;Path&gt;" class="s5" d="m39.9 142.6l-1.2 0.5 0.3-0.7z"/>
						</g>
						<path id="&lt;Path&gt;" class="s13" d="m39.9 142.6l-0.7-0.7 0.5-1.1z"/>
						<g id="&lt;Group&gt;">
							<path id="&lt;Path&gt;" class="s2" d="m39.9 142.6l-0.9-0.2 0.2-0.5z"/>
						</g>
						<path id="&lt;Path&gt;" class="s24" d="m25.2 134.5v-2.2l4.1 0.5z"/>
						<path id="&lt;Path&gt;" class="s21" d="m29.9 132.5l-0.2 0.1-0.4 0.2-4.1-0.5v-10.8z"/>
						<g id="&lt;Group&gt;">
							<path id="&lt;Path&gt;" class="s2" d="m30 132.5h-0.1l-4.7-11v-3.8-10.1z"/>
						</g>
						<path id="&lt;Path&gt;" class="s10" d="m25.2 102.8v-5.6-0.2l4.9-1.1z"/>
						<path id="&lt;Path&gt;" class="s11" d="m25.2 97v-3.8-1.3l4.9 4z"/>
						<path id="&lt;Path&gt;" class="s10" d="m25.2 91.9v-10.6-5.9l4.9-8.6v29.1z"/>
						<g id="&lt;Group&gt;">
							<path id="&lt;Path&gt;" class="s23" d="m25.2 75.4v-1.6-1.5-0.5-0.9-3.6l4.9-0.5z"/>
						</g>
						<path id="&lt;Path&gt;" class="s13" d="m25.2 67.3v-5.2l4.9-3.2v7.9z"/>
						<path id="&lt;Path&gt;" class="s24" d="m25.2 50.5v-5.3-7l4.9 20.7z"/>
						<g id="&lt;Group&gt;">
							<path id="&lt;Path&gt;" class="s2" d="m37.7 129.1v0.2l-7.6 3.1 2.8-19.3 4.8 15.6z"/>
						</g>
						<path id="&lt;Path&gt;" class="s7" d="m30.1 132.4l-0.1 0.1-4.8-24.9v-0.4-2.6l7.7 8.5z"/>
						<path id="&lt;Path&gt;" class="s15" d="m37.7 128.7l-4.8-15.6 4.8 6.3v7.3z"/>
						<g id="&lt;Group&gt;">
							<path id="&lt;Path&gt;" class="s5" d="m25.2 104.6v-1.3l12.5-8.2v22.3l2.4 10.5-2.4-1.2v-7.3l-4.8-6.3z"/>
						</g>
						<path id="&lt;Path&gt;" class="s25" d="m25.2 103.3v-0.5l4.9-6.9 7.6-1.2v0.4z"/>
						<path id="&lt;Path&gt;" class="s1" d="m30.1 95.9l2.8-19.8 4.8 15.6v1.2 1.8z"/>
						<g id="&lt;Group&gt;">
							<path id="&lt;Path&gt;" class="s5" d="m30.1 95.9v-29.1l2.8 9.3z"/>
						</g>
						<path id="&lt;Path&gt;" class="s24" d="m37.7 91.7l-4.8-15.6 4.8 6.1z"/>
						<path id="&lt;Path&gt;" class="s18" d="m30.1 66.8l7.6-8.3v1.9l-4.8 15.7z"/>
						<path id="&lt;Path&gt;" class="s20" d="m30.1 58.9l7.6-1.2v0.8l-7.6 8.3z"/>
						<g id="&lt;Group&gt;">
							<path id="&lt;Path&gt;" class="s2" d="m32.9 76.1l4.8-3.9v1.7 4.5 3.8z"/>
						</g>
						<path id="&lt;Path&gt;" class="s27" d="m32.9 76.1l4.8-15.7v11.8z"/>
						<g id="&lt;Group&gt;">
							<path id="&lt;Path&gt;" class="s23" d="m30.1 58.9l2.6-18.3 0.8 0.3 4.2 13.8v3z"/>
						</g>
						<path id="&lt;Path&gt;" class="s26" d="m25.2 38.2v-0.7l1.3 0.5 4.4 1.8 1.8 0.8-2.6 18.3z"/>
						<path id="&lt;Path&gt;" class="s1" d="m33.5 40.9l1.3 0.5 2.9 3.8v5.5 4z"/>
						<path id="&lt;Path&gt;" class="s4" d="m34.8 41.4l2.9 1.2v2.6z"/>
						<path id="&lt;Path&gt;" class="s3" d="m31.8 158.6l-0.5-0.6-0.3-0.3-5.9-5.9-2-1.9 4.4-7.2z"/>
						<path id="&lt;Path&gt;" class="s4" d="m18.5 145.3l9-2.6-4.4 7.2z"/>
						<path id="&lt;Path&gt;" class="s9" d="m27.5 142.7l5.5-0.5c1.6 1.6 3 3.1 4.3 4.3l-0.6 1.5-1.2 2.9-1.3 3.2-2 4.8-0.4-0.3z"/>
						<path id="&lt;Path&gt;" class="s12" d="m27.5 142.7l-2.1-8.1c1.2 1.3 2.6 2.6 4.1 4.1q0.7 0.7 1.4 1.5 1.1 1 2.1 2z"/>
						<g id="&lt;Group&gt;">
							<path id="&lt;Path&gt;" class="s2" d="m27.5 142.7l-9.4-5.3-5.3 2.2v-4.5-4.6l9.5 5.2 1.9-0.8 1-0.4q0.1 0 0.2 0.1z"/>
						</g>
						<path id="&lt;Path&gt;" class="s11" d="m37.3 146.5c-1.3-1.2-2.7-2.7-4.3-4.3q-1-1-2.1-2l10.8-4.3-2 4.9-0.5 1.1-0.2 0.5-0.3 0.7z"/>
						<path id="&lt;Path&gt;" class="s10" d="m30.9 140.2q-0.7-0.8-1.4-1.5l0.2-6.1 0.2-0.1h0.1l0.1-0.1 7.6-3.1 0.5 0.5 1.7 1.8 2.5 2.5-0.7 1.8z"/>
						<g id="&lt;Group&gt;">
							<path id="&lt;Path&gt;" class="s23" d="m29.5 138.7c-1.5-1.5-2.9-2.8-4.1-4.1q-0.1-0.1-0.2-0.1l4.1-1.7 0.4-0.2z"/>
						</g>
						<path id="&lt;Path&gt;" class="s12" d="m19.9 35.3l-0.1-0.1 10.8-3.1q-0.1 0.1-0.1 0.1-0.4 0.4-0.8 0.9-0.5 0.4-1 0.9c-1.2 1.2-2.4 2.4-3.5 3.5l-0.3-0.1z"/>
						<g id="&lt;Group&gt;">
							<path id="&lt;Path&gt;" class="s2" d="m19.9 35.3l-0.1-0.1z"/>
						</g>
						<path id="&lt;Path&gt;" class="s10" d="m32.2 13l1.3 3.3 0.8 1.9 3 7.2q-0.8 0.8-1.7 1.7l-8.4-9.1z"/>
						<g id="&lt;Group&gt;">
							<path id="&lt;Path&gt;" class="s23" d="m19.8 35.2l-0.5-9.4 4.5-4.4 3.1-3.1-0.6-12.4 5.2 5.6 0.7 1.5-5 5 8.4 9.1c-1.5 1.5-3.3 3.3-5 5z"/>
						</g>
						<path id="&lt;Path&gt;" class="s13" d="m19.8 35.2l-2.5-7.3 2-2.1z"/>
						<g id="&lt;Group&gt;">
							<path id="&lt;Path&gt;" class="s2" d="m19.8 35.2l-6.8-3 4.3-4.3z"/>
						</g>
						<path id="&lt;Path&gt;" class="s4" d="m42 38.2l0.3-0.5 0.1 0.1z"/>
						<g id="&lt;Group&gt;">
							<path id="&lt;Path&gt;" class="s5" d="m29.7 33.1q0.4-0.5 0.8-0.9l8.6-2.4 3.2 7.9-0.3 0.5-4.3 4.4-2.9-1.2-1.3-0.5-0.8-0.3-1.8-0.8z"/>
						</g>
						<path id="&lt;Path&gt;" class="s6" d="m28.7 34q0.5-0.5 1-0.9l1.2 6.7-4.4-1.8z"/>
						<g id="&lt;Group&gt;">
							<path id="&lt;Path&gt;" class="s5" d="m26.5 38l-1.3-0.5c1.1-1.1 2.3-2.3 3.5-3.5z"/>
						</g>
						<g id="&lt;Group&gt;">
							<path id="&lt;Path&gt;" class="s2" d="m30.5 32.2q0 0 0.1-0.1c1.7-1.7 3.5-3.5 5-5q0.9-0.9 1.7-1.7l1.8 4.4z"/>
						</g>
					</g>
					<path id="&lt;Path&gt;" class="s28" d="m133.9 42.6v86.7l-4.8 4.8h-86.7l-4.7-4.8v-86.7l4.7-4.7h86.7z"/>
				</g>
			</g>
		</g>
	</g>
</svg>